<svg width="35" height="35" viewBox="0 0 35 35" fill="none" xmlns="http://www.w3.org/2000/svg">
<circle cx="17.5008" cy="17.5" r="17.4176" transform="rotate(0.271807 17.5008 17.5)" fill="white"/>
<path d="M11.9434 22.557V11.9405C11.9434 11.0651 11.9434 10.6269 12.1276 10.3679C12.2884 10.1418 12.5362 9.99341 12.8113 9.95792C13.1264 9.91728 13.5129 10.1234 14.2848 10.5351L24.2377 15.8433L24.2413 15.8449C25.0943 16.2998 25.5211 16.5274 25.661 16.8307C25.7831 17.0953 25.7831 17.4008 25.661 17.6654C25.5209 17.9691 25.0931 18.1977 24.2377 18.6539L14.2848 23.9621C13.5124 24.3741 13.1266 24.5794 12.8113 24.5387C12.5362 24.5032 12.2884 24.3548 12.1276 24.1288C11.9434 23.8698 11.9434 23.4324 11.9434 22.557Z" fill="#141416"/>
</svg>
