<svg width="36" height="36" viewBox="0 0 36 36" fill="none" xmlns="http://www.w3.org/2000/svg">
<g id="Group 10">
<circle id="Ellipse 9" cx="18.0008" cy="18.0001" r="17.5" transform="rotate(0.271807 18.0008 18.0001)" fill="#804361"/>
<path id="Vector" d="M12.418 23.081V12.4143C12.418 11.5347 12.418 11.0945 12.6031 10.8342C12.7646 10.6071 13.0136 10.458 13.29 10.4223C13.6067 10.3815 13.995 10.5886 14.7705 11.0022L24.7705 16.3355L24.7741 16.3371C25.6312 16.7942 26.0599 17.0229 26.2006 17.3276C26.3232 17.5935 26.3232 17.9004 26.2006 18.1663C26.0597 18.4714 25.63 18.701 24.7705 19.1594L14.7705 24.4927C13.9944 24.9067 13.6068 25.113 13.29 25.0721C13.0136 25.0365 12.7646 24.8874 12.6031 24.6602C12.418 24.4 12.418 23.9605 12.418 23.081Z" fill="white"/>
</g>
</svg>
