<svg width="25" height="24" viewBox="0 0 25 24" fill="none" xmlns="http://www.w3.org/2000/svg">
<g id="Repeat">
<path id="Path 2 Copy" d="M22.2272 6.04388C22.8539 5.65222 22.8539 4.73956 22.2272 4.34789L17.114 1.15214C16.4479 0.735855 15.584 1.2147 15.584 2.00013V8.39164C15.584 9.17707 16.4479 9.65592 17.114 9.23964L22.2272 6.04388Z" fill="#814361"/>
<path id="Path 2 Copy 2" d="M3.05406 19.0439C2.42739 18.6522 2.42739 17.7396 3.05406 17.3479L8.16727 14.1521C8.83332 13.7359 9.69727 14.2147 9.69727 15.0001V21.3916C9.69727 22.1771 8.83331 22.6559 8.16727 22.2396L3.05406 19.0439Z" fill="#814361"/>
<path id="Path 4" d="M4.58398 11V11C4.58398 7.68629 7.27028 5 10.584 5V5H15.584" stroke="#814361" stroke-width="2" stroke-linecap="round" stroke-linejoin="round"/>
<path id="Path 4 Copy" d="M19.584 12V12C19.584 15.3137 16.8977 18 13.584 18V18H8.58398" stroke="#814361" stroke-width="2" stroke-linecap="round" stroke-linejoin="round"/>
</g>
</svg>
