<svg width="25" height="24" viewBox="0 0 25 24" fill="none" xmlns="http://www.w3.org/2000/svg">
<path d="M16.4184 18C14.8413 18 13.3649 17.3826 12.2695 16.3346" stroke="#814361" stroke-width="2" stroke-linecap="round" stroke-linejoin="round"/>
<path d="M7.57272 8.05196C6.20673 6.76008 4.37434 6 2.41797 6" stroke="#814361" stroke-width="2" stroke-linecap="round" stroke-linejoin="round"/>
<path d="M23.0612 19.0439C23.6878 18.6522 23.6878 17.7396 23.0612 17.3479L17.948 14.1521C17.2819 13.7359 16.418 14.2147 16.418 15.0001V21.3916C16.418 22.1771 17.2819 22.6559 17.948 22.2396L23.0612 19.0439Z" fill="#814361"/>
<path d="M16.418 6V6C13.9958 6 11.8111 7.45643 10.8795 9.69231L9.34105 13.3846C8.17652 16.1795 5.44572 18 2.41797 18V18" stroke="#814361" stroke-width="2" stroke-linecap="round" stroke-linejoin="round"/>
<path d="M22.0612 7.04388C22.6878 6.65222 22.6878 5.73956 22.0612 5.34789L16.948 2.15214C16.2819 1.73586 15.418 2.2147 15.418 3.00013V9.39164C15.418 10.1771 16.2819 10.6559 16.948 10.2396L22.0612 7.04388Z" fill="#814361"/>
</svg>
