<svg xmlns="http://www.w3.org/2000/svg" width="23" height="21" viewBox="0 0 23 21" fill="none">
  <path d="M22.0602 17.0439C22.6869 16.6522 22.6869 15.7396 22.0602 15.3479L16.947 12.1521C16.2809 11.7359 15.417 12.2147 15.417 13.0001V19.3916C15.417 20.1771 16.2809 20.6559 16.947 20.2396L22.0602 17.0439Z" fill="white"/>
  <path d="M15.417 4V4C12.9948 4 10.8101 5.45643 9.87853 7.69231L8.34007 11.3846C7.17555 14.1795 4.44475 16 1.41699 16V16" stroke="white" stroke-width="2" stroke-linecap="round" stroke-linejoin="round"/>
  <path d="M21.0602 5.04388C21.6869 4.65222 21.6869 3.73956 21.0602 3.34789L15.947 0.152135C15.2809 -0.264145 14.417 0.214698 14.417 1.00013V7.39164C14.417 8.17707 15.2809 8.65592 15.947 8.23964L21.0602 5.04388Z" fill="white"/>
</svg>