<svg width="26" height="26" viewBox="0 0 26 26" fill="none" xmlns="http://www.w3.org/2000/svg">
<g id="Group 14">
<path id="Path 2 Copy" d="M24.591 6.56967C25.2488 6.18312 25.2488 5.23189 24.591 4.84534L18.0183 0.983154C17.3517 0.591427 16.5117 1.07211 16.5117 1.84532V9.56969C16.5117 10.3429 17.3517 10.8236 18.0183 10.4319L24.591 6.56967Z" fill="white"/>
<path id="Path 2 Copy 2" d="M1.40903 21.1546C0.751195 20.7681 0.751197 19.8169 1.40903 19.4303L7.98166 15.5681C8.6483 15.1764 9.48828 15.6571 9.48828 16.4303V24.1546C9.48828 24.9279 8.64829 25.4085 7.98166 25.0168L1.40903 21.1546Z" fill="white"/>
<path id="Path 4" d="M3.38477 12.2194V12.2194C3.38477 8.50163 6.39861 5.48779 10.1164 5.48779H10.5446H16.5112" stroke="white" stroke-width="2" stroke-linecap="round" stroke-linejoin="round"/>
<path id="Path 4 Copy" d="M21.2852 13.3412V13.3412C21.2852 17.0589 18.2713 20.0728 14.5536 20.0728H14.1253H8.15875" stroke="white" stroke-width="2" stroke-linecap="round" stroke-linejoin="round"/>
</g>
</svg>
