<svg width="60" height="60" viewBox="0 0 60 60" fill="none" xmlns="http://www.w3.org/2000/svg">
<circle cx="30" cy="30" r="30" fill="white"/>
<path d="M20 38.0043V21.997C20 20.677 20 20.0163 20.2935 19.6258C20.5496 19.2849 20.9445 19.0611 21.3828 19.0076C21.8848 18.9463 22.5006 19.2571 23.7303 19.8778L39.5866 27.8815L39.5923 27.8839C40.9513 28.5699 41.6311 28.913 41.8541 29.3703C42.0486 29.7693 42.0486 30.2299 41.8541 30.6288C41.6308 31.0868 40.9494 31.4314 39.5866 32.1193L23.7303 40.1229C22.4997 40.7441 21.885 41.0537 21.3828 40.9924C20.9445 40.9389 20.5496 40.7151 20.2935 40.3743C20 39.9837 20 39.3242 20 38.0043Z" fill="black"/>
</svg>
