<svg width="58" height="62" viewBox="0 0 58 62" fill="none" xmlns="http://www.w3.org/2000/svg">
<g id="Group 4" filter="url(#filter0_d_1118_4027)">
<circle id="Ellipse 9" cx="29" cy="25" r="25" fill="#C76B98"/>
<path id="Vector" d="M23 31.6851V19.3158C23 18.2959 23 17.7853 23.2134 17.4835C23.3997 17.2202 23.6869 17.0472 24.0057 17.0059C24.3708 16.9585 24.8186 17.1987 25.7129 17.6783L37.2448 23.863L37.249 23.8648C38.2373 24.3949 38.7317 24.66 38.8939 25.0134C39.0354 25.3217 39.0354 25.6776 38.8939 25.9859C38.7315 26.3398 38.2359 26.6061 37.2448 27.1376L25.7129 33.3223C24.8179 33.8022 24.3709 34.0415 24.0057 33.9941C23.6869 33.9528 23.3997 33.7799 23.2134 33.5165C23 33.2147 23 32.7051 23 31.6851Z" fill="white"/>
</g>
<defs>
<filter id="filter0_d_1118_4027" x="0" y="0" width="58" height="62" filterUnits="userSpaceOnUse" color-interpolation-filters="sRGB">
<feFlood flood-opacity="0" result="BackgroundImageFix"/>
<feColorMatrix in="SourceAlpha" type="matrix" values="0 0 0 0 0 0 0 0 0 0 0 0 0 0 0 0 0 0 127 0" result="hardAlpha"/>
<feOffset dy="8"/>
<feGaussianBlur stdDeviation="2"/>
<feComposite in2="hardAlpha" operator="out"/>
<feColorMatrix type="matrix" values="0 0 0 0 0 0 0 0 0 0 0 0 0 0 0 0 0 0 0.25 0"/>
<feBlend mode="normal" in2="BackgroundImageFix" result="effect1_dropShadow_1118_4027"/>
<feBlend mode="normal" in="SourceGraphic" in2="effect1_dropShadow_1118_4027" result="shape"/>
</filter>
</defs>
</svg>
