<svg width="17" height="17" viewBox="0 0 17 17" fill="none" xmlns="http://www.w3.org/2000/svg">
<path id="Vector" d="M15.066 0.5H5.46602C4.58602 0.5 3.86602 1.22 3.86602 2.1V11.7C3.86602 12.58 4.58602 13.3 5.46602 13.3H15.066C15.946 13.3 16.666 12.58 16.666 11.7V2.1C16.666 1.22 15.946 0.5 15.066 0.5ZM13.466 4.5H11.066V8.9C11.066 10.004 10.17 10.9 9.06602 10.9C7.96202 10.9 7.06602 10.004 7.06602 8.9C7.06602 7.796 7.96202 6.9 9.06602 6.9C9.52202 6.9 9.93002 7.052 10.266 7.308V2.9H13.466V4.5ZM2.26602 3.7H0.666016V14.9C0.666016 15.78 1.38602 16.5 2.26602 16.5H13.466V14.9H2.26602V3.7Z" fill="#C76B98"/>
</svg>
