<svg xmlns="http://www.w3.org/2000/svg" width="17" height="17" viewBox="0 0 17 17" fill="none">
  <path d="M15.067 0.5H5.46699C4.58699 0.5 3.86699 1.22 3.86699 2.1V11.7C3.86699 12.58 4.58699 13.3 5.46699 13.3H15.067C15.947 13.3 16.667 12.58 16.667 11.7V2.1C16.667 1.22 15.947 0.5 15.067 0.5ZM13.467 4.5H11.067V8.9C11.067 10.004 10.171 10.9 9.06699 10.9C7.96299 10.9 7.06699 10.004 7.06699 8.9C7.06699 7.796 7.96299 6.9 9.06699 6.9C9.52299 6.9 9.93099 7.052 10.267 7.308V2.9H13.467V4.5ZM2.26699 3.7H0.666992V14.9C0.666992 15.78 1.38699 16.5 2.26699 16.5H13.467V14.9H2.26699V3.7Z" fill="white"/>
</svg>