<svg width="312" height="64" viewBox="0 0 312 64" fill="none" xmlns="http://www.w3.org/2000/svg">
<path d="M21.3326 40C19.2298 40 17.2613 39.1768 15.8008 37.7795" stroke="white" stroke-width="2" stroke-linecap="round" stroke-linejoin="round"/>
<path d="M9.53901 26.7359C7.7177 25.0134 5.27451 24 2.66602 24" stroke="white" stroke-width="2" stroke-linecap="round" stroke-linejoin="round"/>
<path d="M30.6419 41.1092C31.2686 40.7175 31.2686 39.8049 30.6419 39.4132L22.862 34.5508C22.196 34.1345 21.332 34.6133 21.332 35.3988V45.1236C21.332 45.9091 22.196 46.3879 22.862 45.9716L30.6419 41.1092Z" fill="white"/>
<path d="M21.3327 24V24C18.1031 24 15.1902 25.9419 13.9481 28.9231L11.384 35.0769C10.1418 38.0581 7.22896 40 3.99935 40H2.66602" stroke="white" stroke-width="2" stroke-linecap="round" stroke-linejoin="round"/>
<path d="M29.3099 25.1092C29.9365 24.7175 29.9365 23.8049 29.3099 23.4132L21.53 18.5508C20.864 18.1345 20 18.6133 20 19.3988V29.1236C20 29.9091 20.864 30.3879 21.53 29.9716L29.3099 25.1092Z" fill="white"/>
<path d="M75.9931 31.1563C75.3756 31.5493 75.3756 32.4507 75.9931 32.8436L87.7971 40.3553C88.4628 40.7789 89.334 40.3007 89.334 39.5116V24.4883C89.334 23.6992 88.4628 23.221 87.7971 23.6447L75.9931 31.1563Z" fill="white"/>
<rect x="73.334" y="41.3333" width="2.66667" height="18.6667" rx="1" transform="rotate(-180 73.334 41.3333)" fill="white"/>
<circle cx="156.001" cy="32" r="31.8493" transform="rotate(0.271807 156.001 32)" fill="white"/>
<path d="M145.836 41.2471V21.8342C145.836 20.2334 145.836 19.4322 146.173 18.9585C146.467 18.5452 146.92 18.2738 147.423 18.2089C147.999 18.1345 148.706 18.5115 150.117 19.2642L168.317 28.9707L168.324 28.9736C169.883 29.8055 170.664 30.2217 170.92 30.7763C171.143 31.2602 171.143 31.8187 170.92 32.3025C170.663 32.858 169.881 33.2758 168.317 34.11L150.117 43.8165C148.705 44.5698 147.999 44.9453 147.423 44.8709C146.92 44.806 146.467 44.5347 146.173 44.1213C145.836 43.6477 145.836 42.8479 145.836 41.2471Z" fill="black"/>
<path d="M236.007 32.8437C236.624 32.4507 236.624 31.5493 236.007 31.1564L224.203 23.6447C223.537 23.2211 222.666 23.6993 222.666 24.4884V39.5117C222.666 40.3008 223.537 40.779 224.203 40.3553L236.007 32.8437Z" fill="white"/>
<rect x="238.666" y="22.6667" width="2.66667" height="18.6667" rx="1" fill="white"/>
<path d="M309.31 23.7758C309.937 23.3842 309.937 22.4715 309.31 22.0798L301.53 17.2174C300.864 16.8011 300 17.28 300 18.0654V27.7902C300 28.5757 300.864 29.0545 301.53 28.6382L309.31 23.7758Z" fill="white"/>
<path d="M282.841 41.1092C282.214 40.7175 282.214 39.8049 282.841 39.4132L290.62 34.5508C291.286 34.1345 292.15 34.6133 292.15 35.3988V45.1236C292.15 45.9091 291.286 46.3879 290.62 45.9716L282.841 41.1092Z" fill="white"/>
<path d="M285.334 30.6667V30.6667C285.334 26.2484 288.916 22.6667 293.334 22.6667V22.6667H300.001" stroke="white" stroke-width="2" stroke-linecap="round" stroke-linejoin="round"/>
<path d="M305.334 32V32C305.334 36.4183 301.752 40 297.334 40V40H290.667" stroke="white" stroke-width="2" stroke-linecap="round" stroke-linejoin="round"/>
</svg>
