<svg width="31" height="29" viewBox="0 0 31 29" fill="none" xmlns="http://www.w3.org/2000/svg">
<g id="Group">
<path id="Path 2 Copy 2" d="M29.6419 23.1092C30.2686 22.7175 30.2686 21.8049 29.6419 21.4132L21.862 16.5508C21.196 16.1345 20.332 16.6133 20.332 17.3988V27.1236C20.332 27.9091 21.196 28.3879 21.862 27.9716L29.6419 23.1092Z" fill="#C76B98"/>
<path id="Path 5 Copy" d="M20.3327 6V6C17.1031 6 14.1902 7.9419 12.9481 10.9231L10.384 17.0769C9.14181 20.0581 6.22896 22 2.99935 22H1.66602" stroke="#C76B98" stroke-width="2" stroke-linecap="round" stroke-linejoin="round"/>
<path id="Path 2 Copy" d="M28.3099 7.1092C28.9365 6.71753 28.9365 5.80487 28.3099 5.4132L20.53 0.550785C19.864 0.134504 19 0.613347 19 1.39878V11.1236C19 11.9091 19.864 12.3879 20.53 11.9716L28.3099 7.1092Z" fill="#C76B98"/>
</g>
</svg>
