<svg width="32" height="36" viewBox="0 0 32 36" fill="none" xmlns="http://www.w3.org/2000/svg">
<circle cx="16" cy="34" r="2" fill="#C76B98"/>
<path d="M29.3099 7.77586C29.9365 7.38419 29.9365 6.47153 29.3099 6.07986L21.53 1.21744C20.864 0.801161 20 1.28 20 2.06544V11.7903C20 12.5757 20.864 13.0546 21.53 12.6383L29.3099 7.77586Z" fill="#C76B98"/>
<path d="M2.84052 25.1092C2.21385 24.7175 2.21385 23.8048 2.84052 23.4132L10.6204 18.5508C11.2864 18.1345 12.1504 18.6133 12.1504 19.3988L12.1504 29.1236C12.1504 29.909 11.2864 30.3879 10.6204 29.9716L2.84052 25.1092Z" fill="#C76B98"/>
<path d="M5.33398 14.6667V14.6667C5.33398 10.2484 8.91571 6.66666 13.334 6.66666V6.66666H20.0007" stroke="#C76B98" stroke-width="2" stroke-linecap="round" stroke-linejoin="round"/>
<path d="M25.334 16V16C25.334 20.4183 21.7523 24 17.334 24V24H10.6673" stroke="#C76B98" stroke-width="2" stroke-linecap="round" stroke-linejoin="round"/>
</svg>
