<svg width="320" height="320" viewBox="0 0 320 320" fill="none" xmlns="http://www.w3.org/2000/svg">
<rect width="320" height="320" fill="black"/>
<path fill-rule="evenodd" clip-rule="evenodd" d="M272.113 240.251C321.115 196.529 257.85 171.582 269.509 134.634C281.169 97.6865 310.682 42.1219 200.563 51.9113C90.4445 61.7007 -0.977318 172.921 38.2806 225.265C77.5384 277.609 223.111 283.973 272.113 240.251Z" fill="#141416" stroke="#ABABAB"/>
<path fill-rule="evenodd" clip-rule="evenodd" d="M181.205 150.617C184.386 152.162 187.567 153.706 190.748 155.251C195.759 157.684 200.857 160.177 204.897 164.003C208.938 167.83 211.828 173.273 211.223 178.795C210.511 185.286 205.363 190.286 200.53 194.694C194.229 200.441 187.928 206.188 181.627 211.935C178.866 214.453 175.843 218.04 177.33 221.463C181.192 230.352 184.69 240.463 181.178 249.496C180.187 252.046 178.134 254.679 175.392 254.553C173.352 254.46 171.734 252.862 170.422 251.302C165.205 245.104 161.335 237.787 159.151 229.997C156.355 220.021 156.696 208.33 163.501 200.5C168.789 194.416 177.901 190.325 178.464 182.296C168.162 173.579 153.258 170.609 140.383 174.706C127.508 178.803 117.092 189.831 113.768 202.884C111.957 209.992 116.01 217.31 120.994 222.706C125.979 228.103 132.093 232.576 135.929 238.836C143.642 251.425 140.275 267.545 136.666 281.849C135.413 286.813 127.855 287.642 124.093 284.157C120.33 280.672 119.682 274.98 120.081 269.877C120.48 264.774 121.675 259.616 120.672 254.596C118.084 241.641 102.864 235.727 95.4051 224.805C89.7525 216.528 88.9738 205.699 91.0667 195.907C93.1596 186.116 97.8399 177.095 102.47 168.21C93.8536 155.066 90.2361 138.751 92.4933 123.213C93.6321 115.374 83.2758 109.342 84.3543 101.493C85.215 95.2294 92.5902 92.401 98.8243 91.2226C110.69 88.9797 122.823 88.1505 134.885 88.7583C137.582 88.8942 138.768 84.9906 137.418 82.6608C136.067 80.331 133.43 79.1317 131.246 77.5496C126.846 74.3624 124.081 69.3374 122.556 64.1342C120.6 57.4568 120.596 49.875 124.23 43.9352C125.138 42.4508 126.699 40.2506 129.074 42.3827C129.787 38.6613 137.353 35.0845 142.19 37.0823C145.09 38.2798 148.179 35.8242 150.022 33.2925C151.865 30.7608 153.647 27.7038 156.709 27.0169C162.192 25.7868 165.703 33.0971 165.071 38.6613C164.44 44.2255 161.984 50.1038 164.395 55.1618C165.312 57.085 166.9 58.7502 167.204 60.8575C167.468 62.6856 166.995 61.9728 165.966 66.1817C164.937 70.3907 162.457 71.7424 161.434 74.071C159.861 77.655 160.097 80.8031 156.809 83.9751C156.256 84.5087 157.383 85.732 156.985 86.6384C165.083 86.7541 171.234 93.4824 177.502 98.5926C185.296 104.948 194.832 109.394 204.866 110.256C214.9 111.119 225.4 108.185 232.892 101.478C235.825 98.8529 242.821 102.283 243.332 98.3874C243.43 97.3782 243.161 96.9438 242.203 96.6956C241.706 96.567 240.532 96.8342 240.168 96.367C239.1 94.9974 245.321 92.637 245.058 94.5173C244.991 94.9988 244.708 95.3546 244.744 95.6668C244.848 96.5737 245.366 96.8535 246.166 97.0136C247.852 97.1184 250.267 95.9665 251.276 94.5173C251.951 93.5464 251.688 93.2889 251.158 93.246C250.292 93.1759 248.713 93.6796 249.36 92.5776C250.155 91.2226 252.205 89.9376 254.154 91.1173C254.575 91.3719 254.427 91.8663 254.211 92.3521C253.815 93.243 253.19 94.1047 255.429 93.4041C258.888 92.3215 259.086 92.5243 259.979 92.7889C260.873 93.0535 262.185 94.6241 263.025 96.091C264.753 99.11 266.526 102.276 266.688 105.748C266.85 109.22 264.84 113.059 261.422 113.753C261.391 114.763 261.887 115.715 262.64 116.385C263.459 117.114 265.566 116.67 265.212 117.322C264.062 119.44 261.261 119.983 259.056 119.242C258.451 119.038 259.847 117.996 259.979 117.273C260.191 116.117 259.95 114.871 259.243 113.926C257.249 114.767 255.254 115.608 253.26 116.45C253.839 117.187 253.575 118.062 254.154 118.8C254.701 119.496 256.103 119.32 256.338 120.308C256.594 121.383 254.523 121.834 253.453 121.934C252.28 122.044 250.455 122.164 249.909 121.383C249.288 120.494 251.234 120.209 251.323 119.28C251.422 118.265 251.049 117.18 250.155 116.689C248.442 115.748 245.984 117.48 246.304 119.403C247.109 124.247 245.095 129.455 241.236 132.508C237.377 135.561 231.829 136.334 227.277 134.454C223.161 132.755 218.602 134.941 214.343 136.244C204.687 139.199 193.67 137.315 185.556 131.321C185.087 138.022 183.8 145.279 179.501 150.22C180.198 150.617 179.839 150.617 181.205 150.617Z" fill="white"/>
<ellipse cx="138.257" cy="75.7335" rx="2.34667" ry="2.33894" fill="#C76B98"/>
<circle cx="155.093" cy="71.04" r="2.34667" fill="#C76B98"/>
<path fill-rule="evenodd" clip-rule="evenodd" d="M168.797 175.568C167.741 175.094 166.683 174.62 165.618 174.158C157.825 170.777 148.477 168.346 141.124 172.594C140.001 165.446 147.692 159.987 154.77 158.37C156.711 157.926 158.714 157.612 160.717 157.297C166.017 156.465 171.319 155.632 175.48 152.41C181.658 147.626 183.305 139.098 183.849 131.321C191.963 137.315 202.98 139.199 212.636 136.244C213.373 136.019 214.119 135.767 214.87 135.513C218.46 134.301 222.166 133.049 225.57 134.454C230.122 136.334 235.67 135.561 239.529 132.508C243.388 129.455 245.402 124.247 244.597 119.403C244.277 117.48 246.735 115.748 248.448 116.689C249.342 117.18 249.715 118.265 249.616 119.28C249.576 119.696 249.164 119.983 248.777 120.252C248.299 120.585 247.859 120.892 248.202 121.383C248.748 122.164 250.573 122.044 251.746 121.934C252.816 121.834 254.887 121.383 254.631 120.308C254.497 119.742 253.978 119.558 253.458 119.373C253.07 119.235 252.68 119.097 252.447 118.8C252.158 118.431 252.079 118.028 252 117.625C251.921 117.221 251.842 116.818 251.553 116.45L257.536 113.926C258.243 114.871 258.484 116.117 258.272 117.273C258.216 117.584 257.925 117.954 257.66 118.291C257.309 118.737 257.004 119.126 257.349 119.242C259.554 119.983 262.355 119.44 263.505 117.322C263.685 116.99 263.229 116.942 262.629 116.879C262.049 116.818 261.335 116.743 260.933 116.385C260.18 115.715 259.684 114.763 259.715 113.753C263.133 113.059 265.143 109.22 264.981 105.748C264.819 102.276 263.046 99.11 261.318 96.091C260.478 94.6241 259.166 93.0535 258.272 92.7889C258.217 92.7725 258.164 92.7562 258.113 92.7406C257.342 92.5041 256.966 92.3888 253.722 93.4041C251.712 94.033 252.01 93.403 252.378 92.6231C252.421 92.5341 252.463 92.4432 252.504 92.3521C252.72 91.8663 252.868 91.3719 252.447 91.1173C250.498 89.9376 248.448 91.2226 247.653 92.5776C247.178 93.3868 247.903 93.3302 248.665 93.2708C248.94 93.2493 249.221 93.2274 249.451 93.246C249.981 93.2889 250.244 93.5464 249.569 94.5173C248.56 95.9665 246.145 97.1184 244.459 97.0136C243.659 96.8535 243.141 96.5737 243.037 95.6668C243.018 95.5008 243.089 95.3225 243.169 95.1196C243.241 94.9408 243.32 94.7428 243.351 94.5173C243.614 92.637 237.393 94.9974 238.461 96.367C238.698 96.6714 239.279 96.664 239.793 96.6575C240.067 96.654 240.323 96.6508 240.496 96.6956C241.454 96.9438 241.723 97.3782 241.625 98.3874C241.346 100.514 239.133 100.457 236.704 100.395C234.685 100.343 232.517 100.287 231.185 101.478C223.693 108.185 213.193 111.119 203.159 110.256C193.125 109.394 183.589 104.948 175.795 98.5926C174.719 97.7155 173.647 96.7907 172.567 95.8598C167.358 91.3675 161.986 86.7342 155.278 86.6384C155.475 86.19 155.299 85.6641 155.137 85.1824C154.972 84.6905 154.823 84.2447 155.102 83.9751C156.834 82.3044 157.719 79.0499 158.485 76.2315C159.173 73.6986 159.766 71.5179 160.792 71.1555C162.845 70.4304 163.447 68.6208 164.142 66.5333C164.18 66.4169 164.219 66.2997 164.259 66.1817C164.496 65.4752 164.707 64.9046 164.887 64.4185C165.438 62.9317 165.696 62.2352 165.497 60.8575C165.299 59.4834 164.555 58.2974 163.807 57.1052C163.407 56.469 163.007 55.831 162.688 55.1618C160.934 51.4821 161.756 47.3682 162.577 43.257C162.885 41.7171 163.192 40.1775 163.364 38.6613C163.996 33.0971 160.485 25.7868 155.002 27.0169C152.33 27.6163 150.633 30.0203 149.019 32.3051C148.784 32.6388 148.55 32.9699 148.315 33.2925C146.472 35.8242 143.383 38.2798 140.483 37.0823C135.646 35.0845 128.08 38.6613 127.367 42.3827C124.992 40.2506 123.431 42.4508 122.523 43.9352C118.889 49.875 118.893 57.4568 120.849 64.1342C122.374 69.3374 125.138 74.3624 129.539 77.5496C130.098 77.9548 130.687 78.3349 131.277 78.7153C132.989 79.8201 134.706 80.9277 135.711 82.6608C137.061 84.9906 135.875 88.8942 133.178 88.7583C121.116 88.1505 108.983 88.9797 97.1173 91.2226C90.8832 92.401 83.508 95.2294 82.6472 101.493C82.1092 105.409 84.4175 108.872 86.7244 112.334C89.0413 115.811 91.3569 119.285 90.7862 123.213C88.5291 138.751 92.1466 155.066 100.763 168.21C96.1329 177.095 91.4526 186.116 89.3597 195.907C87.2668 205.699 88.0455 216.528 93.698 224.805C96.6437 229.119 100.8 232.651 104.911 236.144C111.209 241.496 117.399 246.757 118.965 254.596C119.702 258.281 119.253 262.041 118.805 265.799C118.642 267.16 118.48 268.52 118.374 269.877C117.975 274.98 118.623 280.672 122.386 284.157C124.534 286.147 127.92 286.73 130.662 285.941C130.639 286.36 130.615 286.751 130.592 287.118C130.467 289.119 130.385 290.432 130.737 291.988C130.829 292.394 130.978 292.855 131.368 293.003C132.144 293.297 132.661 292.113 132.608 291.309C132.41 288.265 132.029 286.547 131.663 285.578C133.259 284.868 134.511 283.622 134.958 281.849C138.568 267.545 141.935 251.425 134.222 238.836C131.674 234.677 128.119 231.307 124.559 227.93C122.76 226.225 120.96 224.517 119.287 222.706C114.303 217.31 110.25 209.992 112.061 202.884C115.385 189.831 125.801 178.803 138.676 174.706C151.551 170.609 166.455 173.579 176.757 182.296C176.374 187.765 172.024 191.407 167.618 195.096C165.555 196.823 163.48 198.56 161.794 200.5C154.989 208.33 154.648 220.021 157.444 229.997C159.628 237.787 163.498 245.104 168.715 251.302C170.027 252.862 171.645 254.46 173.685 254.553C176.427 254.679 178.48 252.046 179.471 249.496C182.983 240.463 179.485 230.352 175.623 221.463C174.135 218.04 177.159 214.453 179.92 211.935L198.823 194.694C203.656 190.286 208.804 185.286 209.516 178.795C210.121 173.273 207.231 167.83 203.19 164.003C199.15 160.177 194.052 157.684 189.041 155.251L179.498 150.617C182.643 154.646 187.391 156.907 192.066 159.134C192.969 159.564 193.87 159.993 194.756 160.433C200.226 163.151 205.841 167.118 207.093 173.079C208.632 180.402 203.042 187.124 197.858 192.537C191.295 199.393 184.675 206.297 176.878 211.72C174.225 213.565 171.283 215.282 168.05 215.398C164.817 215.513 161.3 213.494 160.792 210.31C160.334 207.436 162.321 204.802 164.19 202.565L178.009 186.025C180.109 183.511 182.876 182.856 186.167 182.078C187.325 181.804 188.548 181.515 189.829 181.124C182.075 181.518 175.473 178.559 168.797 175.568ZM112.869 131.112C113.427 136.119 114.975 141.132 118.113 145.081C121.252 149.029 126.143 151.778 131.194 151.56C132.885 151.487 133.427 148.979 132.423 147.621C131.552 146.444 130.112 145.908 128.715 145.388C128.502 145.308 128.289 145.229 128.08 145.148C126.502 144.538 124.819 143.517 124.534 141.854C128.987 145.306 135.636 145.626 140.402 142.618C142.061 147.363 147.565 150.212 152.546 149.428C157.527 148.645 161.69 144.678 163.342 139.931C163.374 139.84 163.405 139.749 163.436 139.657C163.687 138.918 163.945 138.159 164.515 137.635C165.047 137.148 165.771 136.941 166.467 136.749L180.087 132.996C180.425 132.903 180.808 132.815 181.108 132.997C181.428 133.19 181.516 133.606 181.563 133.976C182.505 141.42 178.311 149.24 171.575 152.596C167.964 154.396 163.837 154.984 159.745 155.567C154.407 156.327 149.128 157.079 145.134 160.502C142.961 162.365 141.453 164.812 139.942 167.264C139.22 168.435 138.497 169.608 137.701 170.718C132.82 177.528 123.854 182.138 115.891 179.478C111.321 177.951 107.769 174.337 104.849 170.515C96.0589 159.011 91.4192 144.425 91.9536 129.976C92.0505 127.354 92.3207 124.7 93.2722 122.254C99.3064 129.241 106.284 135.419 113.957 140.569C113.689 139.182 112.725 138.044 111.765 137.004C109.018 134.031 105.987 131.246 102.959 128.464C95.9183 121.995 88.8952 115.542 85.5134 106.769C84.77 104.841 84.2201 102.736 84.6781 100.721C85.7169 96.1513 91.1068 94.2491 95.7161 93.3214C106.786 91.0935 118.083 89.9899 129.377 90.0333C129.977 97.0035 135.797 103.237 142.758 104.155C149.718 105.073 157.054 100.431 159.008 93.7119C159.066 93.5126 159.12 93.3106 159.175 93.1081C159.418 92.205 159.663 91.2929 160.244 90.5701C160.954 89.6852 162.4 89.2502 163.23 90.0256C169.379 95.7738 175.832 101.3 183.185 105.411C190.538 109.522 198.893 112.173 207.317 111.801C192.928 117.032 178.22 121.392 163.302 124.85C162.161 125.114 160.748 125.287 160.015 124.377C157.417 121.152 153.18 119.312 149.04 119.61C144.9 119.908 140.972 122.337 138.867 125.901C138.104 127.191 136.202 127.029 134.755 126.626C131.744 125.786 128.646 124.495 126.868 121.934C126.567 121.502 126.307 121.036 126.047 120.572C125.539 119.663 125.033 118.758 124.231 118.108C123.096 117.19 121.61 116.967 120.139 116.745C119.73 116.683 119.322 116.622 118.923 116.546C114.38 115.679 110.357 112.46 108.527 108.228C112.809 105.37 118.592 106.726 123.32 108.77C124.065 109.092 124.812 109.43 125.561 109.769C129.57 111.585 133.66 113.437 137.984 113.041C141.66 112.705 144.869 110.798 148.092 108.884C150.941 107.191 153.8 105.492 157.003 104.866C165.221 103.26 173.287 109.357 177.134 116.768C177.164 116.825 177.193 116.882 177.223 116.939C177.852 118.156 178.533 119.472 179.795 119.983C178.507 112.769 173.069 106.442 166.114 104.064C159.159 101.687 150.968 103.355 145.507 108.262C142.118 111.306 136.969 111.521 132.547 110.402C130.056 109.772 127.682 108.785 125.306 107.797C123.464 107.032 121.621 106.265 119.722 105.665C115.373 104.289 110.35 103.883 106.479 106.289C105.317 103.738 103.762 101.364 101.886 99.277C103.745 109.91 113.478 118.653 124.285 119.396L118.288 121.667C116.887 122.197 115.435 122.761 114.407 123.847C112.646 125.708 112.586 128.571 112.869 131.112ZM109.91 205.487C109.328 208.414 109.008 211.585 110.322 214.266C111.03 215.711 112.16 216.898 113.272 218.065L113.348 218.145C120.036 225.168 126.318 232.576 132.152 240.318C129.562 242.797 126.678 244.972 123.58 246.784C122.716 247.288 121.784 247.778 120.784 247.76C119.293 247.734 118.081 246.611 117.032 245.554C109.706 238.179 102.568 230.616 95.6294 222.878C93.4231 220.417 91.1799 217.841 90.1772 214.696C88.9027 210.699 89.805 206.374 90.7148 202.28C93.2237 190.988 95.863 179.388 102.405 169.834C106.081 176.41 112.887 181.156 120.346 182.344C115.174 189.142 111.576 197.12 109.91 205.487ZM156.519 79.5973C155.424 81.8773 153.578 83.8913 151.184 84.7265C147.992 85.84 144.482 84.726 141.357 83.4379C139.733 82.7686 138.093 82.026 136.835 80.8031C135.768 79.765 135.036 78.4382 134.359 77.1141C132.249 72.9909 130.506 68.6818 129.156 64.2535C128.04 60.5916 127.465 55.9578 130.436 53.5326C133.83 56.128 138.395 56.7791 142.645 56.2867C146.423 55.8489 150.043 54.5975 153.643 53.3527C154.092 53.1973 154.541 53.0421 154.99 52.8886C155.503 52.7133 156.11 52.5514 156.552 52.8633C156.891 53.1018 157.01 53.5396 157.102 53.9424C158.469 59.9344 158.867 66.1447 158.277 72.2613C158.034 74.777 157.613 77.3173 156.519 79.5973ZM170.155 250.775C164.071 242.693 159.995 233.122 158.39 223.147C157.701 218.864 157.478 214.375 158.911 210.279C160.279 215.644 166.758 219.07 171.984 217.191C173.348 219.991 174.588 222.85 175.699 225.759C178.618 233.4 180.606 242.095 177.372 249.61C176.595 251.416 175.06 253.339 173.109 253.051C171.844 252.864 170.922 251.794 170.155 250.775ZM129.646 42.105C131.184 39.36 134.568 37.9654 137.713 38.2292C138.446 38.2908 139.177 38.3836 139.893 38.4746C142.163 38.7629 144.285 39.0325 145.887 38.2292C148.327 37.0061 149.347 35.3059 150.385 33.5753C151.078 32.42 151.778 31.2512 152.915 30.2018C153.635 29.5379 154.437 28.9008 155.394 28.6909C157.352 28.2617 159.233 29.7476 160.348 31.4079C162.742 34.9712 163.058 39.8212 161.146 43.6629C159.041 47.8937 154.701 50.5411 150.36 52.4346C147.234 53.7978 143.926 54.9036 140.515 54.9739C137.103 55.0441 133.553 53.9676 131.201 51.5048C128.849 49.0419 127.983 45.0735 129.646 42.105ZM120.027 264.756C119.881 263.675 119.766 262.468 120.424 261.596C123.122 261.838 125.906 260.864 127.86 258.995C127.265 257.773 125.426 257.856 124.264 258.565C123.818 258.837 123.409 259.172 123 259.505C122.345 260.041 121.692 260.573 120.897 260.842C120.129 260.085 120.266 258.747 120.905 257.878C121.545 257.009 122.549 256.497 123.516 256.015L129.604 252.981C128.435 251.827 126.485 251.812 124.992 252.502C123.499 253.193 122.357 254.445 121.257 255.666C120.037 253.542 120.908 250.494 123.068 249.329L130.955 245.076C131.568 244.745 132.218 244.406 132.915 244.426C134.423 244.471 135.333 246.098 135.745 247.544C136.938 251.726 136.575 256.172 136.201 260.505C135.651 266.876 135.092 273.296 133.299 279.435C132.681 281.552 131.705 283.857 129.652 284.677C127.425 285.567 124.805 284.216 123.473 282.228C122.142 280.239 121.787 277.777 121.467 275.408L120.027 264.756ZM225.184 120.308C226.038 120.204 226.777 119.221 226.361 118.471L223.429 113.186C223.042 112.49 222.647 111.764 222.596 110.97C222.544 110.176 222.942 109.294 223.702 109.048C224.789 108.697 225.789 109.744 226.418 110.695C227.744 112.698 228.9 114.812 229.87 117.008C231.021 115.48 229.764 113.369 228.615 111.84C227.466 110.31 226.461 107.964 227.898 106.699C229.317 105.449 231.572 106.73 232.66 108.275C233.231 109.087 233.7 109.987 234.168 110.884C235.074 112.622 235.973 114.348 237.592 115.39C238.292 114.964 237.943 113.897 237.52 113.198L232.086 104.236C231.6 103.435 232.403 102.348 233.333 102.212C234.263 102.077 235.16 102.573 235.937 103.1C239.673 105.634 242.649 109.514 243.351 113.963C244.053 118.413 242.147 123.356 238.229 125.602C237.044 126.281 235.724 126.704 234.382 126.964C226.214 128.546 217.274 123.336 214.655 115.466C214.255 114.262 214.158 112.617 215.295 112.046C216.162 111.612 217.21 112.128 217.932 112.775C218.975 113.709 219.721 114.904 220.467 116.099C221.185 117.251 221.904 118.403 222.89 119.324C223.518 119.91 224.33 120.412 225.184 120.308ZM139.974 129.15C140.977 129.181 142.018 129.213 142.852 129.751C143.772 130.345 144.173 131.848 143.301 132.51C142.971 132.761 142.544 132.834 142.134 132.899C138.327 133.508 133.984 133.981 131.025 131.518C130.359 131.821 130.165 132.733 130.436 133.41C130.708 134.086 131.312 134.568 131.917 134.978C134.603 136.797 137.818 137.831 141.065 137.918C138.939 139.753 135.826 140.377 133.153 139.505C132.104 139.163 130.628 138.772 130.163 139.771C132.222 141.732 135.365 141.882 138.212 141.919C133.125 144.335 126.45 142.762 122.987 138.331C122.741 138.015 122.185 138.176 121.989 138.525C121.793 138.874 121.847 139.303 121.906 139.699C122.205 141.712 122.616 143.926 124.22 145.186C125.069 145.853 126.122 146.144 127.176 146.435C127.597 146.551 128.017 146.667 128.425 146.807C129.855 147.298 131.333 148.375 131.347 149.882C126.74 150.278 122.231 147.676 119.442 144.002C116.654 140.328 115.373 135.721 114.782 131.153C114.629 129.971 114.522 128.749 114.866 127.608C115.552 125.338 117.803 123.965 119.877 122.804C121.382 121.961 123.457 121.185 124.651 122.427C128.54 126.475 134.045 128.936 139.666 129.14C139.768 129.144 139.871 129.147 139.974 129.15ZM149.854 137.311L208.803 121.051C211.371 120.343 214.409 119.724 216.463 121.413C193.123 128.6 169.485 134.823 145.628 140.061C144.329 140.346 142.478 140.288 142.251 138.983C143.035 139.012 143.032 138.136 143.029 137.21C143.026 136.298 143.022 135.337 143.77 135.143L212.466 117.265C212.881 117.157 213.408 117.085 213.663 117.429C214.077 117.988 213.229 118.614 212.557 118.8L147.039 136.949C147.634 137.763 148.88 137.58 149.854 137.311ZM216.318 132.626C212.065 135.465 206.666 136.211 201.582 135.61C196.499 135.009 191.652 133.166 186.941 131.17L215.145 123.293C216.134 123.016 217.354 122.799 218.052 123.55C223.775 129.711 234.188 130.811 241.08 125.981C240.277 129.816 236.796 132.935 232.885 133.326C230.657 133.549 228.463 132.973 226.28 132.4C225.701 132.248 225.123 132.096 224.545 131.959C221.788 131.307 218.672 131.054 216.318 132.626ZM138.378 85.4432C138.781 84.8687 139.647 84.5519 140.206 84.9782C143.479 87.4775 148.029 88.2156 151.928 86.8796C153.173 86.4533 154.589 87.3361 155.102 88.5434C155.616 89.7507 155.409 91.1496 154.957 92.3814C153.583 96.1323 149.884 98.9228 145.887 99.223C141.891 99.5232 137.814 97.317 135.89 93.8139C135.296 92.7325 135.098 91.0375 136.244 90.5713C137.386 90.1063 137.713 88.6734 137.837 87.45L137.84 87.413C137.91 86.7268 137.982 86.0076 138.378 85.4432ZM247.368 115.469C246.907 115.593 246.42 115.715 245.96 115.592C245.499 115.469 245.093 115.008 245.209 114.547C249.331 113.895 253.31 112.36 256.799 110.076C258.157 109.187 259.6 107.637 258.914 106.168C258.459 105.195 257.239 104.82 256.162 104.864C254.602 104.927 253.148 105.624 251.746 106.308L244.182 109.995C243.83 109.58 243.976 108.912 244.348 108.515C244.706 108.132 245.215 107.936 245.706 107.746L245.761 107.725C249.195 106.397 252.394 104.469 255.169 102.055C255.981 101.348 255.559 99.8919 254.631 99.3436C253.704 98.7953 252.537 98.9035 251.477 99.1008C248.4 99.6733 245.44 100.856 242.818 102.56C241.528 103.398 239.696 104.327 238.64 103.209C241.489 100.332 245.394 98.796 249.178 97.3382L256.499 94.5173C257.008 94.3212 257.558 94.1221 258.087 94.2569C258.806 94.4404 259.228 95.1651 259.554 95.83C261.403 99.6029 262.764 103.613 263.594 107.729C263.714 108.327 263.814 108.987 263.505 109.513C263.225 109.989 262.68 110.233 262.167 110.444C257.348 112.431 252.402 114.11 247.368 115.469ZM212.744 115.721C212.469 116.012 212.061 116.125 211.673 116.226L144.443 133.765C145.486 131.253 148.554 130.394 151.22 129.814C169.77 125.781 187.941 120.217 206.093 114.66C207.125 114.344 208.157 114.029 209.189 113.713C210.085 113.439 211.06 113.166 211.937 113.494C212.815 113.821 213.385 115.041 212.744 115.721ZM121.751 48.8291C122.163 47.4856 122.836 45.6292 123.89 44.6959C124.427 44.22 125.154 43.7124 125.801 44.0254C126.208 44.2221 126.407 44.6769 126.574 45.0954C126.823 45.7213 127.179 46.5606 127.535 47.3999C127.891 48.2391 128.246 49.0783 128.496 49.7042C128.845 50.5821 129.183 51.9465 128.542 52.3899C125.801 54.2859 126.425 61.208 127.652 64.3929C127.946 65.1533 128.197 66.7116 127.944 67.8476C127.692 68.9836 126.425 70.0055 125.389 69.4685C124.794 69.1604 123.852 67.5278 123.51 66.9365C123.479 66.8825 123.453 66.8371 123.433 66.8023C118.383 58.1923 121.182 50.4149 121.686 49.0147C121.717 48.9279 121.74 48.8655 121.751 48.8291ZM143.905 142.056C148.395 141.227 152.838 140.15 157.207 138.83C157.275 138.81 157.343 138.789 157.411 138.769C158.771 138.357 160.151 137.939 161.57 137.946C161.392 140.184 160.144 142.258 158.432 143.719C156.721 145.179 154.577 146.068 152.382 146.574C150.717 146.958 148.961 147.13 147.307 146.704C145.653 146.278 144.11 145.177 143.481 143.594C143.255 143.026 143.303 142.167 143.905 142.056ZM149.471 128.702C146.608 129.106 143.581 128.899 141.004 127.592C140.459 127.316 140.741 126.486 141.126 126.013C143.105 123.58 146.102 121.997 149.233 121.731C152.365 121.465 155.588 122.519 157.951 124.583C158.342 124.924 158.739 125.464 158.475 125.91C158.336 126.145 158.059 126.253 157.801 126.345C155.079 127.318 152.334 128.298 149.471 128.702ZM140.649 102.238C138.103 101.442 136.111 99.4231 134.656 97.1951C133.773 95.8445 133.051 94.4016 132.329 92.958C131.86 92.0201 131.39 91.082 130.877 90.1686C131.82 90.0125 132.738 90.6534 133.262 91.4509C133.635 92.0202 133.861 92.6648 134.088 93.3096C134.179 93.5679 134.269 93.8264 134.37 94.08C136.252 98.8421 141.858 101.698 146.907 100.754C151.955 99.8101 156.049 95.379 156.925 90.3357C157.017 89.8058 157.184 89.1503 157.713 89.0451C158.285 89.5211 158.31 90.3815 158.21 91.1173C157.477 96.4566 152.619 100.474 147.429 101.992C145.227 102.635 142.839 102.922 140.649 102.238ZM241.571 105.434C244.752 102.961 248.501 101.217 252.447 100.376C252.921 100.275 253.632 100.379 253.589 100.86C253.575 101.012 253.476 101.141 253.379 101.258C251.418 103.614 248.549 104.993 245.773 106.301C244.995 106.667 244.174 107.043 243.316 106.99C242.457 106.937 241.569 106.292 241.571 105.434ZM255.337 106.62C255.746 106.49 256.193 106.368 256.595 106.518C256.996 106.668 257.262 107.218 256.979 107.54C254.544 110.31 250.9 111.677 247.345 112.684C246.415 112.947 245.048 112.94 244.89 111.99C248.04 109.638 251.587 107.814 255.337 106.62ZM159.699 66.0344C159.904 64.7667 160.15 63.252 160.15 62.2723C160.15 60.9265 160.355 59.2804 161.614 58.8012C162.821 58.3417 164.186 59.4441 164.418 60.7108C164.65 61.9774 163.214 67.0917 162.501 68.1657C162.176 68.6565 161.797 69.146 161.26 69.3927C160.724 69.6394 159.994 69.5596 159.666 69.0704C159.495 68.8158 159.457 68.4978 159.427 68.1928C159.398 67.8871 159.536 67.0382 159.699 66.0344ZM159.727 50.1037C159.79 50.1938 159.817 50.3032 159.843 50.41C160.366 52.6224 160.569 54.9097 160.443 57.1792C159.843 57.4481 159.346 56.6501 159.17 56.0186L158.416 53.3172C158.119 52.254 157.88 50.953 158.672 50.1818C158.96 49.9019 159.498 49.7748 159.727 50.1037ZM127.985 74.1752C127.205 73.6384 126.574 73.2033 126.574 71.8753C126.574 70.3042 128.277 68.7731 128.649 69.0704C129.999 70.1515 132.425 75.5127 132.547 77.2343C131.531 76.8209 130.782 76.2571 129.415 75.2278C129.117 75.0037 128.79 74.7577 128.425 74.4863C128.275 74.3751 128.128 74.2735 127.985 74.1752ZM136.845 135.424L139.599 134.843C139.942 134.771 140.36 134.721 140.589 134.986C141.032 135.495 140.16 136.139 139.484 136.152C138.558 136.169 137.63 135.913 136.845 135.424ZM220.427 110.216C220.925 110.272 221.346 110.905 221.018 111.284L220.988 111.318C220.558 111.645 220.063 111.991 219.527 111.914C218.991 111.837 218.614 111.055 219.057 110.746C219.468 110.459 219.929 110.159 220.427 110.216ZM224.388 118.418L223.762 118.327L223.701 118.321L222.376 116.289C223.538 115.914 224.834 117.284 224.388 118.418ZM221.476 114.75C220.967 114.775 220.558 114.142 220.791 113.69C221.025 113.238 221.779 113.202 222.055 113.629C222.331 114.057 221.986 114.726 221.476 114.75ZM151.977 48.4711L147.19 50.7292C143.534 52.4544 138.94 52.0074 135.688 49.6098C135.228 49.5037 134.83 50.0506 134.908 50.5137C134.986 50.9769 135.363 51.3271 135.742 51.6067C138.364 53.5435 141.95 53.7861 145.113 52.9835C148.277 52.1808 151.113 50.4527 153.862 48.6979C153.663 48.0029 152.632 48.1617 151.977 48.4711ZM147.477 58.9476C147.083 59.2982 146.403 58.8222 146.409 58.2964C146.415 57.7707 146.843 57.348 147.284 57.0596C149.135 55.8502 151.788 56.038 153.448 57.4957C153.081 58.096 152.225 57.9568 151.504 57.8396L151.503 57.8395C151.447 57.8304 151.391 57.8213 151.337 57.8128C149.967 57.5982 148.51 58.0266 147.477 58.9476ZM138.612 60.9343C139.24 60.7915 139.905 60.3126 139.845 59.6736C139.795 59.135 139.251 58.7774 138.728 58.6323C137.495 58.2905 136.079 58.7349 135.265 59.7193C134.451 60.7036 134.284 62.1736 134.856 63.3143C135.132 63.0687 135.357 62.7662 135.58 62.4654C135.912 62.019 136.241 61.5762 136.73 61.3281C137.1 61.1403 137.515 61.0903 137.931 61.0401H137.931C138.16 61.0126 138.39 60.9849 138.612 60.9343ZM151.111 68.025C151.871 68.0142 152.383 67.2325 152.574 66.4999C152.967 64.9933 152.567 63.3046 151.541 62.1313C151.076 61.6002 150.284 61.1582 149.693 61.5449C149.51 61.6645 149.379 61.8482 149.273 62.039C148.531 63.3746 148.902 65.0444 149.479 66.4586C149.782 67.2018 150.306 68.0365 151.111 68.025ZM141.509 68.0282L141.283 65.6789C141.196 64.7848 141.005 63.7336 140.187 63.3555C139.07 62.839 137.89 64.0766 137.597 65.2685C137.283 66.5485 137.464 67.9429 138.096 69.1006C138.669 70.1507 140.095 71.0304 141.007 70.253C141.61 69.7379 141.585 68.8166 141.509 68.0282ZM139.622 244.115C145.918 243.928 152.215 243.744 158.511 243.563C159.203 243.543 159.946 243.537 160.52 243.922C161.052 244.279 161.343 244.961 161.232 245.591L142.748 245.938C142.061 245.951 141.351 245.959 140.719 245.691C140.087 245.422 139.554 244.796 139.622 244.115ZM146.09 75.6314C145.415 75.4393 145.733 74.4411 146.05 73.8173C147.075 71.802 146.498 69.3303 145.471 67.3157L145.446 67.2658C145.218 66.8195 144.974 66.3427 145.055 65.8513C145.139 65.3416 145.784 64.9176 146.187 65.2427C146.308 65.3404 146.382 65.4835 146.452 65.6224C147.223 67.1524 147.979 68.7251 148.23 70.4186C148.481 72.1122 148.157 73.9713 146.992 75.2291C146.756 75.4835 146.424 75.7265 146.09 75.6314ZM147.097 82.0499C150.257 81.5451 152.792 78.4787 152.683 75.2913C152.677 75.1016 152.66 74.9043 152.562 74.7415C152.288 74.2853 151.541 74.3916 151.189 74.7914C150.899 75.1203 150.789 75.5561 150.681 75.986L150.68 75.9869L150.68 75.9871L150.68 75.9873L150.68 75.9874L150.68 75.9876C150.657 76.0796 150.634 76.1713 150.609 76.2617C150.186 77.796 149.135 79.1484 147.75 79.9397C147.682 79.9782 147.613 80.0162 147.544 80.0543C147.139 80.2769 146.723 80.5058 146.511 80.9064C146.263 81.3756 146.571 82.1338 147.097 82.0499ZM166.394 274.011C166.529 277.796 166.951 289.809 166.457 291.988C166.366 292.394 166.217 292.855 165.827 293.003C165.051 293.297 164.596 292.136 164.586 291.309C164.508 284.607 164.43 276.732 164.352 268.857C164.274 260.982 164.196 253.107 164.118 246.405C165.404 246.405 165.827 250.927 165.827 253.848C165.827 263.661 166.394 274.011 166.394 274.011ZM122.13 190.778C121.942 190.669 121.723 190.559 121.498 190.447C120.602 189.998 119.616 189.505 120.135 188.811C133.851 189.402 147.6 189.265 161.301 188.4C165.182 188.155 169.559 187.589 171.866 184.47C171.958 184.345 172.047 184.216 172.137 184.087C172.443 183.642 172.752 183.195 173.203 182.907C173.785 182.535 174.717 182.582 175.008 183.207C174.597 186.551 171.452 189.338 168.071 189.354C166.592 189.362 166.09 191.286 165.903 192.748C165.715 194.21 164.703 196.083 163.315 195.574C163.665 194.375 163.892 193.141 163.991 191.896C164.024 191.478 164.015 190.994 163.691 190.728C163.44 190.521 163.082 190.52 162.756 190.529L126.553 191.558C126.323 191.565 126.071 191.581 125.907 191.741C125.706 191.936 125.725 192.257 125.758 192.534L128.327 214.362C128.383 214.842 128.579 215.455 129.065 215.458L149.587 215.571C150.678 215.577 152.231 216.408 151.565 217.268C151.292 217.62 150.78 217.653 150.333 217.654L129.447 217.739C128.565 217.742 128.316 218.937 128.348 219.815L128.681 228.797C126.172 227.015 126 223.44 125.982 220.37C125.931 211.425 125.129 202.485 123.586 193.673C123.394 192.573 123.098 191.34 122.13 190.778Z" fill="#00160A"/>
<path fill-rule="evenodd" clip-rule="evenodd" d="M168.602 233.18C169.462 231.238 171.464 229.851 173.59 229.723C174.143 229.69 174.77 229.772 175.108 230.209C175.445 230.646 175.155 231.477 174.606 231.405C173.288 231.233 171.973 231.903 171.048 232.854C170.123 233.805 169.52 235.014 168.931 236.201C168.085 235.511 168.161 234.177 168.602 233.18Z" fill="#00160A"/>
<path fill-rule="evenodd" clip-rule="evenodd" d="M262.513 47.3489C263.593 47.4506 264.594 46.8265 265.49 46.2154C267.981 44.5163 270.663 42.1997 270.5 39.1956C270.448 38.2415 270.103 37.3439 269.757 36.4452C269.61 36.0606 269.462 35.6758 269.337 35.2863C268.684 33.2524 268.66 31.1078 268.636 28.9577C268.616 27.1941 268.596 25.4268 268.229 23.7138C268.098 23.0995 267.834 22.4016 267.229 22.2269C266.888 22.1285 266.525 22.2285 266.184 22.3282L255.305 25.511C253.257 26.1102 252.818 28.7612 252.76 30.8884L252.6 36.676C251.953 36.7568 251.339 36.5042 250.726 36.2515C250.491 36.155 250.257 36.0586 250.021 35.9806C247.696 35.2135 244.885 36.5034 243.958 38.7628C243.03 41.0221 244.127 43.9071 246.324 44.9854C248.521 46.0637 251.483 45.1713 252.713 43.0604C253.549 41.6271 253.598 39.8868 253.625 38.2292L253.677 35.1169C253.696 33.9537 255.005 33.3087 256.111 32.9389C259.519 31.7999 262.958 30.7545 266.423 29.8043C266.765 29.7104 267.191 29.6399 267.425 29.9063C267.551 30.0502 267.579 30.253 267.601 30.443L268.075 34.5178C268.146 35.1221 268.077 35.9348 267.481 36.0629C264.6 36.6816 262.039 38.643 260.697 41.2586C260.126 42.3729 259.765 43.6528 260.018 44.8786C260.272 46.1044 261.263 47.2312 262.513 47.3489ZM266.913 24.0397C267.035 24.1628 267.07 24.3441 267.099 24.5141L267.429 26.4269C267.517 26.9321 267.599 27.4748 267.379 27.9386C267.032 28.6712 266.109 28.8916 265.309 29.049C263.46 29.4126 261.635 29.8951 259.848 30.4925C258.356 30.9919 256.891 31.5708 255.428 32.1495C255.304 32.1985 255.18 32.2474 255.057 32.2962C254.709 32.4334 254.23 32.5323 254.032 32.2182C253.982 32.1396 253.961 32.0466 253.944 31.9553C253.595 30.1005 254.454 28.0772 256.036 27.0299C256.907 26.453 257.937 26.17 258.947 25.8958L266.048 23.968C266.342 23.8884 266.7 23.8243 266.913 24.0397ZM252.586 39.2929C252.556 41.0857 252.123 43.1355 250.528 44.0031C249.263 44.6915 247.611 44.3606 246.462 43.4961C245.114 42.4807 244.374 40.4589 245.359 39.0984C245.77 38.5317 246.411 38.1644 247.075 37.9241C248.599 37.3721 250.341 37.4276 251.827 38.0755C252.064 38.1789 252.306 38.3066 252.443 38.5232C252.585 38.7478 252.59 39.0283 252.586 39.2929ZM62.507 43.2987C62.6912 43.8645 63.4941 43.8428 64.0752 43.7069L69.3594 42.4711C69.2119 41.0992 68.9446 39.7402 68.5614 38.4143C68.4484 38.0235 68.3123 37.6148 68.0048 37.3474C67.5287 36.9332 66.8162 36.9905 66.1895 37.0718L58.0733 38.1246C57.5161 38.1968 56.7724 38.5579 56.9845 39.0764C58.8426 43.619 60.3081 48.321 61.3596 53.1132C61.5607 54.03 61.5269 55.3173 60.6069 55.5184C57.9428 56.1008 55.6634 58.1842 54.8518 60.7787C54.6022 61.5768 54.4888 62.4633 54.8118 63.2349C54.9868 63.653 55.2805 64.0126 55.6097 64.3252C57.1898 65.825 59.71 66.2422 61.6919 65.3318C63.6737 64.4214 64.9921 62.2409 64.8734 60.0697C64.8286 59.2496 64.5996 58.452 64.372 57.6626L59.1837 39.6668L66.0532 39.1296C66.7432 39.1682 67.0348 40.1451 66.6702 40.7301C66.3057 41.3151 65.5815 41.5584 64.904 41.6942C64.8064 41.7137 64.7079 41.7322 64.6091 41.7508C64.022 41.861 63.4248 41.9731 62.9487 42.3229C62.6405 42.5494 62.3888 42.9358 62.507 43.2987Z" fill="#C76B98"/>
<path fill-rule="evenodd" clip-rule="evenodd" d="M167.47 227.36C167.264 227.627 166.798 227.55 166.6 227.278C166.401 227.005 166.419 226.627 166.527 226.308C166.721 225.736 167.159 225.282 167.619 224.889C168.774 223.902 170.15 223.172 171.617 222.768C172.195 222.608 172.87 222.516 173.348 222.876C173.827 223.237 173.75 224.199 173.152 224.252C170.938 224.45 168.826 225.605 167.47 227.36Z" fill="#00160A"/>
</svg>
