<svg width="221" height="176" viewBox="0 0 221 176" fill="none" xmlns="http://www.w3.org/2000/svg">
<g id="Group" opacity="0.9">
<g id="Group 2">
<path id="Blob" fill-rule="evenodd" clip-rule="evenodd" d="M127.049 174.885C153.267 174.885 176.275 155.489 163.354 129.144C150.432 102.799 198.443 103.65 212.546 85.4425C229.745 63.2373 224.764 -31.0201 114.352 26.4438C96.6652 35.6489 51.2417 16.974 36.1745 26.2401C18.439 37.1473 -6.51392 59.4816 18.439 82.36C30.7303 93.6294 -13.337 122.88 5.96364 149.08C24.7962 174.646 37.9974 150.274 66.6697 155.489C95.342 160.703 107.577 174.885 127.049 174.885Z" fill="#141416" stroke="#535353"/>
<path id="Whites" d="M96.6152 129.053C96.6152 129.053 102.652 126.229 104.906 124.264C107.159 122.299 109.961 117.417 109.961 117.417C109.961 117.417 140.738 139.523 160.806 136.37C165.43 135.643 174.439 132.587 175.014 127.201C176.582 112.495 154.876 108.737 159.618 101.28C162.512 96.7275 171.503 103.502 171.503 103.502L208.793 121.745C208.793 121.745 195.91 153.328 164.647 154.594C126.188 156.151 96.6152 129.053 96.6152 129.053Z" fill="white"/>
<path id="Whites_2" fill-rule="evenodd" clip-rule="evenodd" d="M67.0519 5.36406C66.7019 5.2274 64.8222 2.93842 62.4359 2.52182C61.3516 2.33251 62.3358 3.70573 61.1423 3.71809C57.588 3.75489 51.8119 3.09078 50.7419 3.71809C49.9466 4.18284 51.698 5.80642 50.7419 5.88096C41.7207 6.58421 27.9582 15.5424 24.9722 19.8885C24.022 21.2716 31.7074 18.9249 30.4829 19.6087C29.1085 20.3762 27.5843 25.4013 26.6729 29.2825C26.042 31.9551 25.6447 35.3947 25.5045 39.1364C25.3877 42.3668 25.4344 42.9013 25.9018 44.6676C26.4393 46.643 26.8599 47.224 27.5843 46.9452C27.8413 46.8522 27.9582 46.5036 27.9582 45.8529C27.9582 45.3416 28.2386 43.8077 28.5891 42.4365L29.1967 39.9731L29.4537 40.9956C29.7809 42.1809 31.697 45.8529 33.4263 48.5255C33.5195 48.6673 33.9208 48.4869 34.2826 47.6171C34.6123 46.8245 34.4785 45.5582 35.0386 44.2011C36.3145 41.1098 38.8198 37.0906 41.7207 33.8733C46.0079 29.1184 47.4303 23.6156 51.4491 19.1983C58.9491 10.9548 68.3621 5.87562 67.0519 5.36406Z" fill="white"/>
<path id="Shadow" fill-rule="evenodd" clip-rule="evenodd" d="M30.5905 20.7311C29.3874 21.6932 27.6015 29.4976 27.5709 29.628C26.94 32.3007 26.3318 41.5818 26.9534 43.3389C27.5751 45.0961 29.3159 38.7619 29.3159 38.7619C29.3159 38.7619 31.947 45.5568 34.2719 47.4199C34.3712 47.4994 31.5085 39.0131 30.5905 34.0589C29.3787 27.5192 31.2752 20.1835 30.5905 20.7311Z" fill="#E7EAEE"/>
<path id="Whites_3" fill-rule="evenodd" clip-rule="evenodd" d="M75.4311 157.412C77.6744 156.924 81.4596 155.225 82.9088 154.644C84.3581 154.062 88.7742 147.861 90.3632 140.865C91.5082 135.706 92.0924 128.362 91.4381 127.13C91.3415 126.955 90.988 123.616 91.929 124.706C94.0205 127.13 96.5032 130.935 104.337 124.117C106.471 122.26 109.299 119.863 108.554 117.744C106.471 111.815 97.4394 99.8773 96.0627 98.973C94.4165 97.8917 86.0961 98.8105 73.7138 95.1758C59.6712 91.0537 53.8239 78.9154 48.3286 80.4954C43.8845 81.7733 33.2368 89.6259 30.5646 94.5987C17.949 118.075 33.2368 134.526 36.7184 139.25L40.0989 140.702L40.2157 143.7L40.3793 145.583C40.6831 149.185 40.7999 149.511 42.4357 150.719C46.525 153.81 54.587 156.692 61.8778 157.714C65.2661 158.179 72.627 158.017 75.4311 157.412Z" fill="white"/>
<path id="Shadow_2" fill-rule="evenodd" clip-rule="evenodd" d="M41.4311 142.604L41.5947 144.486C41.8984 148.088 42.0153 148.414 43.651 149.622C46.0635 151.446 49.8585 153.196 54.062 154.535C56.984 155.466 60.1034 156.198 63.0931 156.617C66.4814 157.082 73.8423 156.92 76.6465 156.315C78.0325 156.017 66.6315 147.109 59.915 149.622C54.7571 151.552 42.6 136.828 47.5429 132.982C53.0878 128.666 42.9272 111.647 42.6 107.951C42.2729 104.256 40.9845 103.374 40.9469 103.503C40.9093 103.633 40.9093 104.075 41.0105 105.14C41.4464 109.732 41.4311 142.604 41.4311 142.604Z" fill="#E7EAEE"/>
<g id="Group_2">
<path id="Highlights" fill-rule="evenodd" clip-rule="evenodd" d="M40.2088 106.897C40.6994 106.802 41.1745 107.12 41.27 107.608C43.0336 116.619 50.4936 122.72 63.8332 125.91C77.2521 129.119 86.3924 128.946 91.2085 125.521C91.615 125.232 91.3119 127.708 91.0142 127.898C87.873 129.901 77.1934 132.89 64.4487 130.189C48.1535 126.734 40.5023 113.107 39.4934 107.952C39.3979 107.464 39.7182 106.992 40.2088 106.897Z" fill="#C76B98"/>
<path id="Highlights_2" fill-rule="evenodd" clip-rule="evenodd" d="M33.4205 90.6382C33.8543 90.3913 50.0392 108.839 72.2504 113.015C94.4616 117.191 99.8393 114.535 100.704 108.839C100.778 108.348 101.239 108.01 101.734 108.084C102.228 108.158 102.568 108.617 102.493 109.108C101.398 116.327 91.1203 118.044 71.946 114.79C53.0125 111.576 40.0317 103.942 33.0845 91.8664C32.8363 91.4349 32.9867 90.8851 33.4205 90.6382Z" fill="#C76B98"/>
<path id="Stroke" fill-rule="evenodd" clip-rule="evenodd" d="M126.644 89.615C126.037 89.4058 125.383 88.941 124.962 88.4065L124.261 87.5466L126.738 85.1063C130.547 81.3879 133.468 77.5765 135.992 73.0446C136.833 71.534 138.959 66.4908 138.959 66.0028C138.959 65.8401 139.216 65.1893 139.52 64.5154C139.987 63.5393 140.338 63.1674 141.343 62.6097C142.535 61.9125 143.89 61.6801 144.474 62.0751C145.596 62.8188 145.596 65.1661 144.474 69.2099C143.236 73.6488 141.576 76.8328 138.141 81.4111C137.604 82.1083 136.599 83.4795 135.875 84.4324C133.935 86.9888 132.673 88.2205 130.967 89.1734C129.285 90.103 128.304 90.2192 126.644 89.615ZM143.421 87.5233L145.104 88.267C145.453 88.4272 149.301 90.2664 153.925 92.4756C161.378 96.0375 170.844 100.561 170.902 100.561C170.996 100.561 171.434 99.5528 171.533 98.3766C171.767 95.8434 172.631 92.4038 173.636 90.0101C174.104 88.941 174.477 87.6049 174.477 87.4887C174.477 87.4357 174.097 87.2833 173.476 87.0338C172.735 86.7368 171.652 86.3022 170.458 85.7338C164.569 82.9218 153.049 77.1814 151.624 76.3215C150.222 75.5081 149.941 75.4384 149.941 75.9729C149.941 76.6701 148.516 79.9005 147.417 81.6435C146.833 82.5964 145.688 84.3162 144.87 85.455L143.421 87.5233ZM170.504 96.3779C171.175 96.7642 170.014 97.3308 169.733 97.4237C168.082 97.5632 166.138 97.2544 164.546 96.3315C163.713 95.7441 157.156 92.1211 152.806 89.7178C150.818 88.6191 149.291 87.7754 148.983 87.5931C148.001 87.0121 147.066 86.3846 146.903 86.1987C146.412 85.5712 146.88 85.2923 148.258 85.4085C149.087 85.4783 169.057 95.5436 170.504 96.3779ZM81.9008 154.907L81.901 154.907L81.9017 154.906C82.3371 154.724 82.7117 154.566 82.9963 154.452C84.4456 153.871 88.8616 147.669 90.4507 140.674C91.5957 135.515 92.1799 128.171 91.5256 126.939C91.1311 126.226 93.4746 128.619 95.22 130.401L95.2202 130.401C95.7494 130.941 96.2235 131.425 96.5497 131.75C106.738 141.813 121.904 149.9 137.654 153.689C145.505 155.594 151.09 156.268 158.591 156.268C171.187 156.268 181.118 153.805 190.138 148.39C190.566 148.133 190.967 147.897 191.349 147.672L191.351 147.671C194.495 145.82 196.368 144.717 201.495 138.977C207.246 132.54 212.361 117.596 214.067 112.437C214.815 110.113 216.637 100.869 216.637 98.5625C216.637 95.8315 215.679 94.5419 214.371 93.2172C212.057 90.9629 208.926 90.1495 206.332 91.1256L205.117 91.5904L204.743 90.3587C204.206 88.4994 203.084 87.012 201.355 85.8965C198.784 84.2 198.41 84.0838 196.097 84.0838C194.298 84.0838 193.807 84.1767 192.662 84.7112L191.33 85.3155L191.049 84.4788C190.512 82.7591 188.709 80.3616 187.311 79.6681C186.07 79.053 183.923 78.9966 182.427 79.273C179.155 79.8773 176.818 81.3879 175.86 83.5027C175.58 84.1535 175.229 84.6648 175.089 84.6648C174.972 84.6648 170.369 83.3861 164.877 80.9691C163.951 80.5601 163.081 80.1765 162.264 79.8164C152.403 75.4693 150.265 74.5271 150.459 73.3467C150.623 72.3474 150.576 71.7896 150.296 70.9297C149.805 69.4888 149.244 69.0937 147.655 69.0937C146.393 69.0937 146.393 69.0937 146.534 68.4662C147.281 64.9105 147.258 62.8653 146.463 61.5638C145.926 60.7039 145.295 60.3553 143.846 60.1462C143.005 60.03 142.608 60.0997 141.673 60.611C141.042 60.9364 140.505 61.1688 140.458 61.1223C140.411 61.0758 140.575 59.7976 140.832 58.2869C142.748 47.1083 141.268 37.4768 136.384 27.2511C136.337 27.154 136.284 27.0393 136.222 26.9082L136.221 26.906L136.221 26.9051C134.736 23.7349 128.766 10.9874 111.692 4.55523C110.919 4.26409 110.188 3.98257 109.485 3.71202C103.669 1.47309 99.8027 -0.0153268 90.474 0.000119083C80.018 0.0174314 76.4767 1.4875 69.5831 4.62495C68.625 5.06652 67.7838 5.32216 67.7137 5.2292C67.6436 5.113 67.1996 4.83412 66.7556 4.60171C66.3116 4.36931 65.3535 3.7883 64.6525 3.32349C62.6429 1.97555 61.4044 1.41778 60.7734 1.55722C60.049 1.74315 60.049 2.3474 60.7734 2.62628C61.0772 2.74248 61.4277 3.13757 61.5679 3.53265C61.8717 4.36931 62.2222 4.46227 62.4326 3.76506C62.526 3.50941 62.6662 3.32349 62.7363 3.36997C62.7629 3.38319 62.8519 3.42462 62.9877 3.48784C63.3292 3.64686 63.9669 3.94375 64.6525 4.27635C65.6106 4.74115 66.6621 5.2292 66.9426 5.3454C67.4566 5.53133 67.2931 5.67077 65.0731 6.97223C56.4036 12.0386 49.3465 19.9171 45.3974 28.8879C44.7898 30.2358 44.2523 31.0725 43.6915 31.5373C42.2661 32.7225 39.4619 36.0924 38.8076 37.4171C38.4571 38.1376 37.7093 39.2531 37.1251 39.9038C36.5643 40.5546 35.9567 41.3912 35.7464 41.7398C35.5595 42.1117 35.3725 42.3673 35.3024 42.3208C35.2557 42.2511 35.3258 41.1123 35.4894 39.7876C35.8399 36.6967 35.8399 35.8832 35.5595 35.8135C35.1389 35.6973 34.5313 37.3241 34.2742 39.3461C34.0873 40.5778 34.0406 42.437 34.1574 44.3427L34.2976 47.364L32.6385 44.6913C32.067 43.7961 31.5042 42.9009 31.1051 42.266L31.1049 42.2657L31.1027 42.2621L31.1017 42.2607C30.8498 41.8599 30.6635 41.5636 30.5821 41.4377C29.9746 40.5546 29.624 39.2299 29.8811 38.7883C30.0213 38.5326 29.9979 38.4164 29.7642 38.4164C29.2735 38.4164 28.3154 39.9735 27.6845 41.7631C27.3807 42.5997 27.0769 43.2969 26.9835 43.2969C26.6329 43.2969 26.7965 34.9769 27.1704 32.3042C27.9415 27.0287 29.9746 20.5214 30.8859 20.5214C31.0728 20.5214 31.2364 20.4284 31.2364 20.289C31.2364 19.8706 30.6289 20.0333 30.1381 20.5678C29.0398 21.7531 27.591 25.4018 26.6797 29.283C26.0487 31.9556 25.6515 35.3952 25.5113 39.1369C25.3944 42.3673 25.4412 42.9018 25.9085 44.6681C26.446 46.6435 26.8666 47.2245 27.591 46.9457C27.8481 46.8527 27.9649 46.5041 27.9649 45.8534C27.9649 45.3421 28.2453 43.8082 28.5958 42.437L29.2034 39.9735L29.4605 40.9961C29.7876 42.1814 31.7038 45.8534 33.433 48.526C34.6248 50.3387 34.6481 50.4549 35.0454 53.2903C35.2557 54.8939 35.91 58.7943 37.4289 64.7943C38.771 70.0956 46.3156 75.3545 48.1994 76.6676L48.1996 76.6677L48.2003 76.6682C48.448 76.8409 48.5977 76.9452 48.6221 76.9722C48.8558 77.2279 49.183 77.3673 49.3699 77.2976C49.5802 77.2278 49.6971 77.3208 49.6971 77.5765C49.6971 77.8089 49.8606 78.111 50.0476 78.2504C50.2812 78.4131 50.4448 79.0406 50.4916 80.1329C50.6084 82.3175 52.2442 86.5008 53.506 87.8719C54.3239 88.7551 56.0298 89.1269 57.9226 88.8015C59.161 88.6156 59.5116 88.4762 59.3947 88.1973C59.3246 88.0114 59.7686 88.2438 60.3762 88.7086C67.48 94.1004 74.6773 97.3308 82.7626 98.7252C85.8939 99.2597 91.0816 99.5618 93.9091 99.3527C96.4095 99.19 96.4095 99.19 96.2926 99.678C96.1291 100.329 96.3394 100.724 99.7744 106.511C102.508 111.089 102.742 111.391 105.78 114.482C112.23 121.106 119.263 126.242 127.232 130.216C134.733 133.934 146.709 137.025 157.657 138.001C168.605 138.977 176.468 128.984 176.444 126.428C176.398 122.918 175.907 120.618 174.715 118.387C173.547 116.225 172.776 115.481 169.271 113.157C165.368 110.578 162.961 108.463 161.372 106.209C160.367 104.791 159.993 103.187 159.993 102.327C159.993 101.77 160.718 100.515 161.793 100.259C162.774 100.003 162.961 100.027 164.06 100.561C164.714 100.863 166.42 101.653 167.822 102.327C169.247 102.978 170.626 103.629 170.906 103.768C171.733 103.997 172.083 105.606 172.272 106.478C172.314 106.673 172.349 106.831 172.378 106.929C172.706 108.138 174.254 109.698 175.253 110.229C177.007 111.162 181.329 111.287 182.521 110.009C182.824 109.683 183.832 109.283 184.039 109.404C184.247 109.526 184.997 110.531 184.997 111.345C185.021 112.739 185.745 114.017 187.287 115.296C190.208 117.713 192.475 118.294 194.765 117.225C195.957 116.667 196.933 116.449 196.933 116.449C196.933 116.449 197.908 117.685 197.966 118.108C198.425 121.41 203.341 122.794 204.649 122.933C204.949 122.963 205.533 122.836 206.126 122.706C206.918 122.533 207.728 122.356 207.898 122.547C208.232 122.921 202.313 132.656 201.495 133.888C193.713 145.508 178.571 152.62 160.04 153.363C148.006 153.851 133.214 150.505 120.385 144.416C112.183 140.488 104.915 135.677 97.1339 128.938C95.7785 127.776 94.2129 126.451 93.6521 125.986C93.0912 125.545 91.7593 124.034 90.7311 122.64C89.0018 120.315 88.0204 119.479 88.0204 120.269C88.0204 120.618 89.1421 122.756 90.4273 124.871C90.9414 125.707 91.2685 126.288 91.1517 126.195C91.0349 126.102 90.661 127.776 90.3104 129.914C89.1654 136.77 87.2726 143.533 85.3565 147.739C84.3049 150.017 82.2886 151.718 81.681 152.182C79.4377 153.879 76.0794 154.641 71.4292 155.106C65.5405 155.687 56.871 154.386 50.2579 151.922C48.5053 151.272 43.9953 149.389 43.6915 149.18C43.6733 149.162 43.5697 148.493 43.4252 147.56L43.4245 147.555C43.3839 147.293 43.3402 147.011 43.2943 146.717C42.453 140.976 41.2846 118.875 41.2846 108.649C41.2846 104.419 41.2379 103.489 40.9575 103.489C40.3733 103.489 40.1396 104.047 39.8825 106.046C39.2983 110.601 39.4152 134.376 40.0461 139.373L40.1863 140.511L39.3918 140.07C38.1767 139.373 33.5498 134.701 31.9375 132.54C30.5724 130.692 29.7611 128.326 29.1542 126.555C29.013 126.143 28.8829 125.764 28.7594 125.431C25.3711 116.088 26.5628 105.604 31.2364 96.1687C35.209 88.1276 40.0928 83.6654 47.2434 81.5041C48.4118 81.1555 49.44 80.7836 49.5568 80.6907C50.0008 80.2723 47.15 80.4815 45.5843 80.9696C40.4901 82.5267 35.1622 86.7796 31.5402 92.2179C26.446 99.8407 24.1559 111.089 25.7683 120.687C26.1422 122.965 27.6611 127.892 28.0818 128.24C28.119 128.277 28.3112 128.678 28.6018 129.285C29.4056 130.962 30.9622 134.21 32.0777 135.677C33.433 137.513 37.5224 141.511 39.2282 142.742L40.3032 143.509L40.4667 145.392C40.7705 148.994 40.8874 149.319 42.5231 150.528C46.6125 153.619 54.6744 156.501 61.9652 157.523C65.3535 157.988 72.7144 157.825 75.5186 157.221C77.3211 156.829 80.1191 155.655 81.9008 154.907ZM154.501 135.398C140.924 134.213 124.52 127.775 112.649 117.828C107.648 113.622 101.152 105.442 98.5812 100.91C98.0437 99.9802 97.6465 99.5386 97.1791 99.4224C96.6884 99.283 97.109 99.1435 99.1187 98.8182C107.601 97.3773 115.85 93.868 122.51 88.8713L123.491 88.1508L123.772 88.8248C124.403 90.3354 126.833 91.8693 128.632 91.8693C129.357 91.8693 131.787 90.777 133.259 89.7777L134.264 89.1037L135.082 89.9171C135.83 90.6608 135.97 90.7073 137.372 90.7073C138.984 90.7073 140.924 89.9868 141.999 88.9642L142.583 88.4297L144.242 89.522C145.13 90.1495 147.607 91.5207 149.734 92.613C152.912 94.2398 156.277 96.1223 159.478 98.0745L159.992 98.3998L159.501 99.0506C158.987 99.7478 158.03 101.072 158.03 103.094C158.03 105.372 160.411 109.464 164.969 112.274C168.551 114.482 174.714 118.825 174.48 125.173C174.452 125.939 173.592 127.845 172.447 129.565C171.699 130.657 169.62 132.284 167.727 133.237C164.502 134.841 158.824 135.77 154.501 135.398ZM29.9057 31.0725C30.5366 31.2119 30.9572 31.4211 30.8637 31.5141C30.56 31.8162 28.9476 31.6767 28.5737 31.3049C27.9895 30.7471 28.1297 30.352 28.9476 30.1894C29.3682 30.1196 29.9991 29.771 30.3496 29.4224C30.7002 29.0738 31.0039 28.9111 31.0039 29.0273C31.0039 29.3295 29.8355 30.3985 29.2514 30.6309C28.8775 30.7936 28.9943 30.8633 29.9057 31.0725ZM39.2074 31.4443C39.885 31.0725 39.7448 30.8169 38.9503 30.9331C38.1558 31.0493 38.1091 30.9563 38.6232 30.1661C38.8335 29.864 38.9503 29.4224 38.9036 29.19C38.8335 28.8879 38.6699 29.0273 38.296 29.771C38.0156 30.3056 37.6183 30.7471 37.4314 30.7471C36.8472 30.7471 36.8005 31.2119 37.3613 31.4211C38.0857 31.7232 38.6465 31.7232 39.2074 31.4443ZM31.12 18.7551C30.5592 18.8481 28.8066 19.5453 27.2643 20.3122C25.6987 21.0559 24.3667 21.6834 24.2732 21.6601C21.8897 21.4045 25.2079 17.4536 31.2369 13.4098C37.0087 9.52867 40.9112 7.48352 44.5332 6.4377C46.7999 5.78697 49.347 5.69401 50.0714 6.22854C50.4686 6.53066 50.3284 6.5539 48.5992 6.57714C44.8603 6.57714 40.5373 8.48285 33.5035 13.1542C29.8582 15.5712 25.6286 19.034 25.6286 19.5917C25.6286 19.708 26.3062 19.4755 27.1475 19.1037C28.9468 18.2903 30.7929 17.872 31.6107 18.0579C32.4754 18.2903 32.2884 18.5924 31.12 18.7551ZM40.1633 20.7538C42.3599 20.3122 42.4534 20.289 42.4534 20.0565C42.4534 19.9403 41.6121 19.8241 40.5606 19.7777L38.6677 19.7079L40.4203 17.7325C41.3784 16.6402 42.5001 15.5479 42.8973 15.2923C43.762 14.7345 43.8087 14.3394 43.1077 14.107L42.5702 13.9443L43.1544 13.7352C43.4815 13.619 44.0891 13.5725 44.5097 13.6422C45.1407 13.7352 45.2809 13.6887 45.2108 13.3633C45.1407 13.038 44.8836 12.9682 43.7386 12.9915C40.397 13.038 38.9715 13.9211 41.5887 14.3394C42.3131 14.4556 42.9207 14.6415 42.9207 14.7577C42.9207 14.8507 42.8039 14.9437 42.6637 14.9437C42.2197 14.9437 38.4574 18.7318 37.9901 19.6615C37.2657 21.0326 37.6629 21.2418 40.1633 20.7538ZM55.5843 11.7365C54.9066 11.783 54.743 11.8992 54.7897 12.2245L54.7969 12.2719V12.2719C54.8231 12.4436 54.8382 12.5423 54.7997 12.5724C54.7475 12.6132 54.5972 12.5284 54.2435 12.3288L54.1822 12.2943C53.7382 12.0619 53.6915 11.9457 53.9485 11.7597C54.1121 11.6203 54.5561 11.4111 54.9066 11.3414L55.5609 11.1787L55.0702 10.6674C54.8131 10.3653 54.6729 10.0864 54.743 9.99347C54.93 9.80754 57.22 10.0632 57.5472 10.3188C57.6874 10.435 57.8977 10.4118 58.0379 10.2724C58.365 9.94699 58.809 10.2026 58.809 10.7139C58.809 10.9928 58.7389 11.016 58.5286 10.8069C58.3417 10.621 58.1781 10.621 57.9678 10.7836C57.7808 10.9463 57.6406 10.9463 57.5238 10.7604C57.4537 10.6442 57.0097 10.528 56.5423 10.528C56.1107 10.528 55.9069 10.528 55.8656 10.61C55.8286 10.6833 55.9218 10.8223 56.0983 11.0858C56.4711 11.665 56.449 11.6668 55.5922 11.7359L55.5843 11.7365ZM52.0313 5.55456C52.0313 5.25244 51.7509 4.71791 51.4003 4.36931L50.746 3.71858L54.2512 3.85802C56.1908 3.95098 58.3873 4.16014 59.1585 4.36931C59.9296 4.55523 60.8176 4.69467 61.1448 4.69467C61.6355 4.69467 61.542 4.60171 60.6307 4.11366C59.0416 3.30025 57.0086 2.90516 53.1062 2.62628C48.4326 2.30091 46.0725 2.74248 46.5165 3.9045C46.5866 4.1369 46.9604 4.2531 47.5213 4.2531C48.6663 4.2531 50.5357 4.92707 51.1667 5.55456C51.8443 6.22854 52.0313 6.22854 52.0313 5.55456ZM40.6297 67.0951C42.5225 69.5121 45.0228 72.2544 46.1912 73.184C46.8923 73.7418 47.4998 74.2066 47.5466 74.2066C47.5699 74.2066 47.0558 73.1376 46.4015 71.8361C43.761 66.607 42.2187 61.4012 41.4943 55.4051C41.3307 54.0804 41.0737 52.9649 40.7932 52.5001C40.2324 51.5705 40.2324 50.362 40.8166 49.2232C41.1204 48.619 41.284 47.852 41.284 47.0154V45.7372L40.1623 46.8992C39.064 48.038 38.0125 48.5028 38.0125 47.8055C38.0125 47.2943 39.7417 44.8308 40.653 44.0639C41.3774 43.4596 41.4709 43.2504 41.7046 41.4377C41.8682 40.3454 42.242 38.4164 42.5458 37.1382C42.873 35.86 43.0599 34.7677 43.0132 34.7212C42.8496 34.5585 37.3582 40.831 36.6104 42.8321C36.4462 43.2715 36.0028 44.0406 35.6523 44.5054L35.0447 45.2812C35.0447 45.2812 35.2335 46.3676 35.442 47.733C35.6527 49.1124 35.7515 50.0606 35.8396 50.9052C35.9573 52.035 36.0558 52.9793 36.3767 54.522C36.7506 56.4277 37.1245 58.0778 37.218 58.194C37.2881 58.3334 37.5918 59.4025 37.8956 60.5877C38.5499 63.2139 39.6482 65.8168 40.6297 67.0951ZM135.455 89.0804L134.964 88.5924C134.964 88.5924 143.109 78.3008 144.568 74.5087C145.682 71.6148 146.337 70.7942 147.222 70.7942C147.716 70.7942 148.12 70.9065 148.307 71.1854C148.634 71.6734 148.949 72.2777 148.529 74.3461C147.828 77.6927 146.753 79.9005 143.528 84.6648C142.78 85.7571 141.822 86.9656 141.402 87.3839C140.42 88.2903 138.212 89.2199 136.927 89.4291C136.109 89.5452 135.875 89.4988 135.455 89.0804Z" fill="#00160A"/>
<path id="Whites_4" d="M200.153 111.815C203.06 103.938 202.62 102.259 202.116 102.095C202.116 102.095 201.006 102.723 200.515 104.047C199.604 106.534 196.484 113.041 195.316 114.203C193.937 115.574 193.937 115.574 192.535 115.574C191.133 115.574 187.089 113.474 186.539 111.404C185.658 108.093 189.45 96.5871 189.544 95.9363L188.913 95.4948C188.492 95.8898 183.021 112.391 175.827 108.091C175.003 107.599 173.256 105.279 173.116 104.047C172.338 100.468 175.91 87.9533 176.518 85.3827C177.062 83.0818 179.893 80.9463 183.375 80.9463C188.726 80.9463 188.007 85.5984 190.404 87.2377C191.466 87.9642 193.212 86.6471 193.75 86.5472C196.765 85.9894 197.92 86.6389 200.13 88.3832C201.835 89.7296 203.098 92.3945 204.487 93.3334C205.258 93.855 206.077 93.1419 206.345 93.008C207.445 92.4591 209.804 92.8686 210.458 93.3334C211.417 93.7494 213.768 95.9965 214.139 97.3035C215.822 103.227 210.508 116.359 208.502 118.823C205.181 122.901 197.246 119.693 200.153 111.815Z" fill="white"/>
<path id="Shape" fill-rule="evenodd" clip-rule="evenodd" d="M65.8131 90.2299C72.2159 94.2505 78.818 96.8766 86.3424 97.5971C92.2779 98.1549 100.281 97.3879 106.029 95.5287C110.866 93.9716 117.409 89.6581 121.779 86.0094C130.262 78.9443 135.613 67.9086 137.95 56.1955C138.277 54.5454 138.776 50.3977 138.752 46.2841C138.752 41.4966 136.634 28.4137 130.215 20.8701C116.976 5.31156 95.2136 -1.69714 76.924 4.29133C70.3263 6.45157 63.3017 10.3655 57.9972 15.4784C51.314 21.9624 46.3833 30.7938 44.4204 39.811C42.3641 49.3396 45.039 60.7273 49.6892 70.07C53.4047 77.5069 59.5271 86.2558 65.8131 90.2299ZM128.205 62.145C123.811 75.2758 112.361 85.0832 97.9666 88.058C95.77 88.4996 94.2511 88.6623 91.1665 88.7087C88.9933 88.7785 86.8201 88.7552 86.3761 88.7087C76.3046 87.5002 68.6399 83.805 61.5828 76.7864C58.4982 73.6955 57.1896 72.0222 55.2735 68.722C52.259 63.493 50.6466 58.1477 50.1559 51.7101C48.4734 29.655 64.3402 11.2719 86.6799 9.36615C95.4429 8.62245 105.164 11.2951 112.548 16.5009C115.282 18.4299 120.236 23.3104 121.778 25.5879C122.409 26.4943 128.532 35.3954 129.607 40.5082C130.985 47.155 130.448 55.475 128.205 62.145Z" fill="white"/>
<path id="Shadow_3" fill-rule="evenodd" clip-rule="evenodd" d="M138.76 46.2841C138.76 61.8833 131.341 78.9374 121.766 86.2207C117.197 89.6955 111.227 93.9032 106.029 95.5287C98.4097 97.911 86.3418 97.5971 86.3418 97.5971C86.3418 97.5971 98.6535 95.9603 103.216 94.1342C116.299 88.8976 123.441 80.8593 127.851 73.1466C136.557 57.9222 138.76 45.9052 138.76 46.2841Z" fill="#E7EAEE"/>
<path id="Shape_2" fill-rule="evenodd" clip-rule="evenodd" d="M86.6105 85.9195C80.3713 85.1293 74.1788 82.9215 69.1781 79.6446C66.2103 77.7156 61.7237 73.1838 59.5505 69.9534C56.4426 65.3053 54.3862 60.3318 53.3814 54.9865C52.657 51.1054 52.6803 45.1326 53.4047 41.6698C54.1525 38.1373 55.1106 35.4414 56.8165 32.0251C58.8027 28.0742 60.9058 25.1692 64.0605 22.0317C69.4351 16.6864 75.6743 13.2933 83.1053 11.6665C85.5122 11.1552 94.2284 10.7369 94.5322 11.132C94.6023 11.2482 95.0697 11.5503 95.5604 11.8059C96.0511 12.0848 97.3597 13.0609 98.4347 14.0138C100.047 15.4082 100.771 16.2913 102.174 18.4759C103.132 19.9633 103.903 21.3113 103.903 21.4275C103.903 21.6831 104.651 22.1479 105.071 22.1479C105.655 22.1479 106.053 20.4049 106.169 17.3372C106.24 15.6406 106.38 14.2462 106.473 14.2462C106.8 14.2462 110.399 16.2216 112.082 17.3372C115.376 19.5218 118.671 22.5895 121.102 25.7966C122.2 27.2376 122.363 27.6094 122.363 28.4925C122.363 29.3059 122.597 29.9334 123.321 31.1884C125.144 34.3491 126.57 38.3232 127.434 42.7156C127.995 45.6672 127.995 51.2449 127.411 54.3358C125.822 62.8418 121.102 71.3013 114.956 76.6698C109.745 81.2017 104.207 83.9905 97.6635 85.3617C95.4202 85.8498 88.6903 86.1751 86.6105 85.9195ZM69.9059 70.023C70.1162 69.7906 70.2564 69.442 70.1863 69.2794C70.1652 69.2305 69.8728 69.0938 69.4448 68.8937L69.4446 68.8936L69.4444 68.8935L69.4443 68.8935C68.446 68.4267 66.7102 67.6151 65.958 66.7694C62.9669 63.3763 61.8686 60.8431 61.1909 55.614C60.5366 50.5244 61.0863 47.0836 62.2659 41.5536C62.8413 38.856 64.3706 36.6277 65.3221 35.2414C65.9691 34.2988 66.3489 33.7454 65.9801 33.6984C65.0687 33.5589 64.9285 33.6286 63.9704 34.535C61.914 36.4872 60.9793 38.0443 59.9979 41.0423C58.479 45.7369 58.1854 58.4238 61.1909 64.1432C64.1964 69.8626 69.3684 70.6273 69.9059 70.023ZM103.131 50.5011C102.734 54.1115 101.051 59.3325 99.0885 61.61C98.1771 62.6791 94.8318 64.5151 92.008 64.1432C89.2805 63.7841 87.1475 62.5164 85.3248 59.7973C83.7591 57.45 82.9505 54.6008 82.4038 51.0124C81.4597 44.816 85.5818 37.6027 87.3578 35.8132C89.1571 33.9772 90.4424 33.3265 92.0781 33.3033C93.6671 33.3033 94.6953 33.6519 96.3077 34.7907C99.2521 36.8358 103.902 43.4856 103.131 50.5011ZM71.6336 31.2814C72.1009 30.7468 72.171 30.4912 72.0308 29.4919C71.9373 28.5622 71.7504 28.1904 71.2597 27.7953C70.3951 27.0981 69.3201 27.0981 68.5256 27.8418C67.9648 28.3763 67.8947 28.5622 67.9648 29.8405C68.0349 31.2117 68.0816 31.3046 68.8528 31.7229C69.881 32.2807 70.8858 32.118 71.6336 31.2814ZM86.2138 16.9421C82.0075 19.9401 80.1848 21.1718 78.292 22.3338C76.7965 23.2635 76.3291 23.2867 76.3291 22.45C76.3291 22.0085 76.6563 21.5204 77.4975 20.7535L78.6659 19.6844L76.3992 19.3823C73.8521 19.057 71.3751 18.3597 70.8377 17.8252C69.9497 16.9188 70.7208 16.7097 73.2446 17.1745C74.3662 17.3604 76.5395 17.5928 78.0817 17.6393L80.8859 17.7555L82.9189 16.2914C87.3822 13.0842 92.009 11.2714 94.2289 11.8292C95.6076 12.1546 95.4441 12.5264 93.8784 12.7123C92.0791 12.9215 90.9808 13.5257 86.2138 16.9421Z" fill="white"/>
<path id="Whites_5" d="M92.2188 60.9599C92.2188 60.8437 92.359 60.7275 92.5459 60.7275C92.7328 60.7275 92.9665 60.8437 93.0366 60.9599C93.1067 61.0994 92.9665 61.1923 92.7095 61.1923C92.4291 61.1923 92.2188 61.0994 92.2188 60.9599Z" fill="white"/>
<path id="Whites_6" d="M93.623 60.7507C93.623 60.4951 94.2072 60.2627 94.8615 60.2627C95.3756 60.2859 95.3756 60.2859 94.9316 60.6113C94.4176 61.0064 93.623 61.0761 93.623 60.7507Z" fill="white"/>
<path id="Whites_7" d="M89.9995 60.1464C89.9294 59.9605 89.8359 59.6351 89.7658 59.4492C89.6957 59.2168 89.8125 59.1006 90.1163 59.1006C90.3734 59.1006 90.5837 59.24 90.5837 59.426C90.5837 59.6119 90.6538 59.914 90.7239 60.1232C90.8174 60.3788 90.7473 60.495 90.4902 60.495C90.2799 60.495 90.0462 60.3323 89.9995 60.1464Z" fill="white"/>
<path id="Whites_8" d="M91.2356 59.5654C91.1188 58.8681 91.3758 58.6357 92.2171 58.6357C92.4741 58.6357 92.6844 58.8681 92.7779 59.2632C92.9648 59.9372 92.6611 60.2626 91.8432 60.2626C91.4693 60.2626 91.3057 60.0999 91.2356 59.5654Z" fill="white"/>
<path id="Whites_9" d="M88.8547 59.6816C88.4107 59.333 88.4107 59.333 88.9014 59.333C89.2052 59.333 89.4155 59.4725 89.4155 59.6816C89.4155 60.0999 89.4155 60.0999 88.8547 59.6816Z" fill="white"/>
<path id="Whites_10" d="M93.5503 59.658C93.2465 59.3559 93.3867 58.4495 93.7606 58.3101C94.4383 58.0544 94.7421 58.1706 94.8823 58.7749C94.9757 59.1235 95.0225 59.4256 94.9757 59.4488C94.7888 59.658 93.6905 59.7974 93.5503 59.658Z" fill="white"/>
<path id="Whites_11" d="M95.6285 59.17C95.5584 59.1003 95.4883 58.7982 95.4883 58.5193C95.4883 58.1242 95.6752 57.9615 96.2361 57.8453C96.7268 57.7523 97.0306 57.7988 97.1708 57.9848C97.4044 58.3566 97.4044 58.8214 97.1941 58.9376C96.7735 59.17 95.7921 59.3095 95.6285 59.17Z" fill="white"/>
<path id="Whites_12" d="M87.7773 58.4493C87.7773 58.1704 87.9877 57.938 88.2914 57.8682C88.899 57.7056 88.8756 57.6823 88.9925 58.2866C89.0392 58.6352 88.9224 58.7746 88.4316 58.8211C87.9176 58.8908 87.7773 58.7979 87.7773 58.4493Z" fill="white"/>
<path id="Whites_13" d="M89.5557 58.473C89.2286 58.1244 89.4389 57.4736 89.8829 57.4736C90.1867 57.4736 90.3503 57.6363 90.3503 57.9152C90.3503 58.3568 89.8128 58.7286 89.5557 58.473Z" fill="white"/>
<path id="Whites_14" d="M90.9559 57.7757C90.769 57.3342 91.1662 57.0088 91.9374 57.0088C92.2879 57.0088 92.4515 57.1482 92.4515 57.4504C92.4515 57.706 92.2412 57.9384 91.9374 58.0314C91.1662 58.2173 91.1195 58.2173 90.9559 57.7757Z" fill="white"/>
<path id="Whites_15" d="M97.7083 57.706C97.7784 57.5898 97.8952 57.4736 97.9653 57.4736C98.0354 57.4736 98.0121 57.5898 97.942 57.706C97.8718 57.8455 97.755 57.9384 97.6849 57.9384C97.6148 57.9384 97.6382 57.8455 97.7083 57.706Z" fill="white"/>
<path id="Whites_16" d="M93.0613 57.311C92.8744 56.8462 93.1081 56.6138 93.8558 56.4976C94.2765 56.4511 94.4634 56.544 94.5101 56.8694C94.6737 57.6363 93.3417 58.0547 93.0613 57.311Z" fill="white"/>
<path id="Whites_17" d="M87.4494 56.9158C87.2391 56.1488 87.2858 56.0791 87.8934 56.0791C88.2205 56.0791 88.4776 56.1721 88.4776 56.2883C88.4776 56.4045 88.5477 56.6601 88.6178 56.846C88.6879 57.0784 88.5477 57.2179 88.1504 57.2876C87.7064 57.3806 87.5428 57.2876 87.4494 56.9158Z" fill="white"/>
<path id="Whites_18" d="M95.2578 56.6599C95.2578 56.2416 95.4214 56.0556 95.8654 55.9394C96.5197 55.7768 96.8936 56.1021 96.8936 56.8458C96.8936 57.1479 96.7066 57.2409 96.0757 57.2409C95.3513 57.2409 95.2578 57.1712 95.2578 56.6599Z" fill="white"/>
<path id="Whites_19" d="M86.7517 56.6601C86.6816 56.4742 86.7283 56.3115 86.8452 56.3115C86.9854 56.3115 87.0788 56.4742 87.0788 56.6601C87.0788 56.8461 87.0321 57.0087 86.9854 57.0087C86.9386 57.0087 86.8452 56.8461 86.7517 56.6601Z" fill="white"/>
<path id="Whites_20" d="M89.1139 56.8465C88.7867 56.5444 88.9737 55.8937 89.3943 55.7774C89.6513 55.7077 89.9084 55.731 89.9785 55.8007C90.2589 56.0563 90.0953 56.7303 89.7448 56.8697C89.3008 57.0324 89.3008 57.0324 89.1139 56.8465Z" fill="white"/>
<path id="Whites_21" d="M97.4539 56.6836C97.1969 56.0096 97.4773 55.4983 98.1316 55.4286C98.6223 55.3589 98.7625 55.4518 98.7625 55.8237C98.7625 56.5906 98.5055 57.009 98.0381 57.009C97.7811 57.009 97.524 56.8695 97.4539 56.6836Z" fill="white"/>
<path id="Whites_22" d="M90.7495 56.3809C90.4691 56.1253 90.5626 55.6605 90.9598 55.521C91.4038 55.3584 92.3385 55.8232 92.0815 56.0788C91.7543 56.3577 90.9131 56.5669 90.7495 56.3809Z" fill="white"/>
<path id="Whites_23" d="M92.7823 55.8001C92.572 55.4748 93.3198 54.917 93.9274 54.917C94.2078 54.917 94.3246 55.0564 94.2779 55.3121C94.1844 55.7769 92.9926 56.1487 92.7823 55.8001Z" fill="white"/>
<path id="Whites_24" d="M86.3777 55.6374C86.3777 55.5212 86.3076 55.2656 86.2375 55.0564C86.1674 54.8473 86.1908 54.6846 86.331 54.6846C86.6348 54.6846 86.8684 55.5677 86.588 55.7536C86.4712 55.8233 86.3777 55.7769 86.3777 55.6374Z" fill="white"/>
<path id="Whites_25" d="M87.0066 55.1029C86.8663 54.5916 87.1468 54.2197 87.6842 54.2197C87.988 54.2197 88.2918 55.1261 88.1048 55.4282C87.8478 55.8233 87.1234 55.5909 87.0066 55.1029Z" fill="white"/>
<path id="Whites_26" d="M88.6457 55.2192C88.2952 54.8706 88.5055 54.0339 88.9729 53.9177C89.3234 53.8248 89.5103 53.941 89.6973 54.3593C89.8375 54.6614 89.9076 54.9635 89.8608 55.01C89.6272 55.2192 88.7859 55.3819 88.6457 55.2192Z" fill="white"/>
<path id="Whites_27" d="M94.9523 55.2193C94.6485 54.9172 94.7887 54.7313 95.4897 54.4756C96.0739 54.2897 96.2375 54.3129 96.3544 54.5918C96.5647 55.1496 95.3963 55.6841 94.9523 55.2193Z" fill="white"/>
<path id="Whites_28" d="M97.0094 54.6845C96.7757 54.3127 97.1028 53.9873 97.7104 53.9873C98.4348 53.9873 98.6451 54.5916 97.9908 54.7775C97.2898 54.9634 97.173 54.9402 97.0094 54.6845Z" fill="white"/>
<path id="Whites_29" d="M98.9941 54.1271C98.9941 53.7785 99.4148 53.4066 99.6017 53.5926C99.7653 53.7552 99.4381 54.4525 99.2045 54.4525C99.0876 54.4525 98.9941 54.313 98.9941 54.1271Z" fill="white"/>
<path id="Whites_30" d="M86.0744 53.8245C85.981 53.7547 85.9108 53.4526 85.9342 53.197C85.9342 52.7554 85.9576 52.7554 86.1679 53.2667C86.4016 53.8245 86.3548 54.1033 86.0744 53.8245Z" fill="white"/>
<path id="Whites_31" d="M86.5203 53.4759C86.31 52.6625 86.3334 52.5928 86.941 52.5928C87.6186 52.5928 88.0393 53.4527 87.5252 53.778C86.9877 54.1034 86.6839 54.0104 86.5203 53.4759Z" fill="white"/>
<path id="Whites_32" d="M94.5586 53.9414C94.5586 53.8716 94.6754 53.4998 94.8156 53.0815C95.1428 52.1519 95.8672 52.1054 96.0308 53.0117C96.1009 53.3604 96.1242 53.6625 96.1009 53.6857C95.984 53.8252 94.5586 54.0343 94.5586 53.9414Z" fill="white"/>
<path id="Whites_33" d="M88.1772 53.36C88.0838 53.2903 88.0137 53.0114 88.0137 52.7557C88.0137 52.3839 88.0838 52.3606 88.3642 52.593C88.5511 52.7557 88.7147 53.0346 88.7147 53.1973C88.7147 53.5459 88.4343 53.6389 88.1772 53.36Z" fill="white"/>
<path id="Whites_34" d="M96.5899 52.8951C96.4497 52.1747 96.7535 51.8493 97.4779 51.9423C97.8284 51.9888 97.9453 52.1979 97.9453 52.7092C97.9453 53.2902 97.8518 53.4297 97.3377 53.4761C96.8236 53.5459 96.7068 53.4297 96.5899 52.8951Z" fill="white"/>
<path id="Whites_35" d="M98.88 52.9877C98.5762 52.0581 98.6697 51.7792 99.3006 51.7095C99.8614 51.6397 99.9315 51.7095 99.9315 52.3137C99.9315 52.825 99.7913 53.0342 99.4408 53.1271C99.1838 53.1968 98.9267 53.1271 98.88 52.9877Z" fill="white"/>
<path id="Whites_36" d="M85.7246 51.6637C85.7246 51.2221 85.7712 51.0362 85.8411 51.2686C85.8877 51.4778 85.8877 51.8496 85.8411 52.082C85.7712 52.2912 85.7246 52.1053 85.7246 51.6637Z" fill="white"/>
<path id="Whites_37" d="M86.3081 51.9661C86.0043 51.6872 86.1445 50.7808 86.5184 50.6414C87.0559 50.4322 87.3129 50.6878 87.3129 51.4548C87.3129 51.9428 87.1961 52.1287 86.8923 52.1287C86.6586 52.1287 86.3782 52.059 86.3081 51.9661Z" fill="white"/>
<path id="Whites_38" d="M87.711 51.338C87.6175 50.9894 87.5708 50.6176 87.6642 50.5479C87.8979 50.3155 88.0381 50.6873 87.968 51.3613L87.8979 52.012L87.711 51.338Z" fill="white"/>
<path id="Whites_39" d="M95.2578 51.1753C95.2578 50.9196 95.3747 50.7802 95.4915 50.8499C95.6317 50.9196 95.7252 51.152 95.7252 51.338C95.7252 51.5239 95.6317 51.6633 95.4915 51.6633C95.3747 51.6633 95.2578 51.4542 95.2578 51.1753Z" fill="white"/>
<path id="Whites_40" d="M96.309 51.4775C95.9818 51.1289 96.2389 50.5014 96.7763 50.362C97.454 50.1993 97.4774 50.1993 97.6877 50.8733C97.8279 51.2916 97.7344 51.3846 97.1269 51.4775C96.753 51.5473 96.3791 51.524 96.309 51.4775Z" fill="white"/>
<path id="Whites_41" d="M98.4587 51.0355C98.2017 50.8031 98.2718 50.0362 98.5288 50.0362C98.669 50.0362 98.7625 49.9432 98.7625 49.8038C98.7625 49.6876 98.6223 49.5714 98.4354 49.5714C98.0381 49.5714 97.711 48.4326 98.0381 48.1072C98.4587 47.6889 98.9261 48.1304 99.2065 49.2692C99.3701 49.8735 99.5336 50.5707 99.6038 50.8031C99.6972 51.1052 99.6038 51.1982 99.1598 51.1982C98.856 51.1982 98.5288 51.1285 98.4587 51.0355Z" fill="white"/>
<path id="Whites_42" d="M99.7241 49.8043C99.5605 49.1071 99.1399 47.7126 98.8361 46.6901C98.3687 45.2027 98.322 44.8308 98.579 44.6681C98.7426 44.5519 98.9529 44.459 99.023 44.459C99.2801 44.459 100.215 49.2233 100.121 50.1529L100.051 51.0825L99.7241 49.8043Z" fill="white"/>
<path id="Whites_43" d="M85.4902 49.6884C85.4902 49.3166 85.5368 49.1771 85.6068 49.4095C85.6534 49.6187 85.6534 49.944 85.6068 50.1067C85.5368 50.2462 85.4902 50.0835 85.4902 49.6884Z" fill="white"/>
<path id="Whites_44" d="M85.9575 49.6413C86.051 48.8279 86.7286 48.642 86.9156 49.3857C87.0792 49.9899 87.1259 49.9202 86.4249 50.1526C85.9341 50.2921 85.8874 50.2456 85.9575 49.6413Z" fill="white"/>
<path id="Whites_45" d="M95.8193 49.4319C95.6324 48.758 96.0296 48.3629 96.7774 48.4558C97.3382 48.5256 97.5485 49.5249 97.0812 49.827C96.497 50.1989 95.9595 50.0362 95.8193 49.4319Z" fill="white"/>
<path id="Whites_46" d="M87.3145 49.2468C87.3145 48.8517 87.4313 48.6426 87.6883 48.6426C87.922 48.6426 88.0155 48.8053 87.9688 49.1539C87.8519 49.8976 87.3145 49.9673 87.3145 49.2468Z" fill="white"/>
<path id="Whites_47" d="M85.2292 48.2699C85.2292 48.0142 85.2991 47.9445 85.369 48.1304C85.4389 48.2931 85.4156 48.5023 85.3457 48.572C85.2758 48.665 85.2059 48.5255 85.2292 48.2699Z" fill="white"/>
<path id="Whites_48" d="M85.6758 48.2009C85.6758 47.8523 85.816 47.7129 86.1665 47.7129C86.4937 47.7129 86.6105 47.8291 86.5638 48.108C86.4469 48.7122 85.6758 48.7819 85.6758 48.2009Z" fill="white"/>
<path id="Whites_49" d="M86.9662 47.9919C86.8026 47.5736 86.8026 47.5736 87.5036 47.3876C87.9242 47.2482 88.0177 47.3179 88.0177 47.6665C88.0177 48.2243 87.1765 48.5032 86.9662 47.9919Z" fill="white"/>
<path id="Whites_50" d="M95.4216 47.6663C95.258 47.0853 95.5618 46.7832 96.3797 46.7832C96.7769 46.7832 96.8938 46.9226 96.8938 47.3642C96.8938 47.7128 96.7536 47.9452 96.5666 47.9452C96.3797 47.9452 96.0759 48.0149 95.889 48.0847C95.6786 48.1544 95.5151 48.0149 95.4216 47.6663Z" fill="white"/>
<path id="Whites_51" d="M97.4563 47.1318C97.2694 46.667 97.5498 46.3184 98.0873 46.3184C98.4144 46.3184 98.5313 46.481 98.5313 46.8994C98.5313 47.3177 98.4144 47.4804 98.0639 47.4804C97.8068 47.4804 97.5264 47.3177 97.4563 47.1318Z" fill="white"/>
<path id="Whites_52" d="M85.4434 46.8065C85.4434 46.3185 85.9808 45.7607 86.2145 46.0164C86.308 46.0861 86.3781 46.4115 86.3781 46.7136C86.3781 47.0854 86.2379 47.2481 85.9107 47.2481C85.6069 47.2481 85.4434 47.0854 85.4434 46.8065Z" fill="white"/>
<path id="Whites_53" d="M86.7297 46.527C86.5428 45.946 86.7531 45.6903 87.5476 45.5741C88.272 45.4812 88.5057 46.2481 87.8748 46.7129C87.2672 47.1545 86.8933 47.0848 86.7297 46.527Z" fill="white"/>
<path id="Whites_54" d="M95.1882 46.3883C95.0246 46.2489 94.9545 45.389 95.0947 45.389C95.1181 45.389 95.4686 45.296 95.8892 45.1798C96.5903 44.9706 96.637 44.9939 96.6136 45.6214C96.5903 46.0862 96.45 46.3186 96.0995 46.4115C95.4686 46.5742 95.3751 46.5742 95.1882 46.3883Z" fill="white"/>
<path id="Whites_55" d="M94.3223 45.8537C94.3223 45.691 94.3922 45.6213 94.4854 45.691C94.5553 45.7839 94.5553 45.9234 94.4854 46.0163C94.3922 46.0861 94.3223 46.0163 94.3223 45.8537Z" fill="white"/>
<path id="Whites_56" d="M96.9391 45.4812C97.0092 45.0861 97.7336 44.5051 97.8972 44.691C97.9673 44.7607 98.0841 45.0396 98.1542 45.3417C98.3178 45.8065 98.2477 45.853 97.5934 45.853C97.0326 45.853 96.869 45.7601 96.9391 45.4812Z" fill="white"/>
<path id="Whites_57" d="M85.6758 45.4587C85.6758 45.3425 85.7926 45.1101 85.9095 44.9242C86.0964 44.6453 86.1431 44.6685 86.1431 45.1101C86.1431 45.389 86.0497 45.6214 85.9095 45.6214C85.7926 45.6214 85.6758 45.5516 85.6758 45.4587Z" fill="white"/>
<path id="Whites_58" d="M86.3809 44.9469C86.3809 44.2962 86.8716 44.087 87.2455 44.575C87.4792 44.9236 87.4792 45.0398 87.2455 45.2025C86.7547 45.5047 86.3809 45.4117 86.3809 44.9469Z" fill="white"/>
<path id="Whites_59" d="M93.4806 44.6452C93.0599 44.1804 93.0599 44.1571 93.4572 44.2966C93.6909 44.3895 93.9947 44.4592 94.1115 44.4592C94.2283 44.4592 94.3218 44.6219 94.3218 44.8079C94.3218 45.2959 93.9947 45.2494 93.4806 44.6452Z" fill="white"/>
<path id="Whites_60" d="M88.4575 44.6215C87.4527 43.8546 87.3125 42.1348 88.2472 42.1348C88.8782 42.1348 89.4624 43.1109 89.3689 44.0172C89.2988 44.8539 89.0184 45.0398 88.4575 44.6215Z" fill="white"/>
<path id="Whites_61" d="M94.8611 44.7614C94.9545 44.6915 95.0947 44.6915 95.1882 44.7614C95.2583 44.8546 95.1882 44.9246 95.0246 44.9246C94.8611 44.9246 94.7909 44.8546 94.8611 44.7614Z" fill="white"/>
<path id="Whites_62" d="M98.3891 43.8546C98.4592 43.6455 98.5293 43.4363 98.5293 43.3898C98.5293 43.3434 98.6462 43.2969 98.763 43.2969C98.9032 43.2969 98.9967 43.506 98.9967 43.7617C98.9967 44.0406 98.8331 44.2265 98.6228 44.2265C98.3658 44.2265 98.2957 44.1103 98.3891 43.8546Z" fill="white"/>
<path id="Whites_63" d="M86.1445 43.7849C86.1445 43.2503 86.6353 42.3672 86.9157 42.3672C87.4064 42.3672 87.0559 43.8546 86.5418 43.9475C86.3315 43.994 86.1445 43.9243 86.1445 43.7849Z" fill="white"/>
<path id="Whites_64" d="M91.4042 43.5298L90.7031 43.3671L91.3341 43.2044C91.9884 43.0185 92.4557 43.158 92.4557 43.553C92.4557 43.7854 92.4323 43.7854 91.4042 43.5298Z" fill="white"/>
<path id="Whites_65" d="M90.584 42.4135C90.584 41.4606 91.1214 41.3212 91.6122 42.1578C91.9393 42.7156 91.9627 42.8318 91.6589 42.8318C91.472 42.8318 91.1682 42.9015 90.9579 42.9713C90.6775 43.0875 90.584 42.948 90.584 42.4135Z" fill="white"/>
<path id="Whites_66" d="M94.6491 42.7396C93.5976 42.2748 92.9199 41.043 92.9199 39.5789C92.9199 38.5331 93.0134 38.2774 93.6443 37.6964C94.0416 37.3246 94.4388 37.0225 94.5557 37.0225C95.0698 37.0225 96.9626 38.812 97.5935 39.9275L98.3179 41.2057L97.5468 42.0191C96.6588 42.9488 95.6773 43.2044 94.6491 42.7396Z" fill="white"/>
<path id="Whites_67" d="M89.7673 42.1347C89.6972 42.0185 89.7439 41.9023 89.8608 41.9023C90.001 41.9023 90.1178 42.0185 90.1178 42.1347C90.1178 42.2742 90.0711 42.3672 90.0244 42.3672C89.9543 42.3672 89.8374 42.2742 89.7673 42.1347Z" fill="white"/>
<path id="Whites_68" d="M86.7038 41.7628C86.7739 41.5537 86.844 41.3445 86.844 41.298C86.844 41.2516 87.0544 41.2051 87.3114 41.2051C87.8956 41.2051 87.919 41.5769 87.3348 41.9023C86.7038 42.2277 86.5403 42.2044 86.7038 41.7628Z" fill="white"/>
<path id="Whites_69" d="M88.5494 41.4841C88.012 41.4144 87.8484 41.1122 88.1989 40.9031C88.2924 40.8334 88.713 40.7172 89.1336 40.6242C89.7645 40.4848 89.8814 40.5312 89.8814 40.9263C89.8814 41.4144 89.3907 41.6235 88.5494 41.4841Z" fill="white"/>
<path id="Whites_70" d="M90.3477 40.694C90.3477 40.4151 90.371 40.2524 90.4178 40.2989C90.4411 40.3454 90.6281 40.5778 90.7916 40.8102C91.0721 41.1355 91.0487 41.2053 90.7215 41.2053C90.4879 41.2053 90.3477 41.0193 90.3477 40.694Z" fill="white"/>
<path id="Whites_71" d="M87.0801 40.5317C87.0801 40.3923 87.1969 40.2296 87.3138 40.1599C87.454 40.0901 87.5474 40.1831 87.5474 40.369C87.5474 40.5782 87.454 40.7409 87.3138 40.7409C87.1969 40.7409 87.0801 40.6479 87.0801 40.5317Z" fill="white"/>
<path id="Whites_72" d="M87.9424 40.183C87.7554 39.7182 89.4146 39.2069 89.695 39.6484C89.9053 40.0203 89.695 40.183 88.807 40.3689C88.2695 40.4851 88.0359 40.4386 87.9424 40.183Z" fill="white"/>
<path id="Whites_73" d="M90.1413 39.4388C90.1413 39.1832 90.2112 39.1135 90.2811 39.2994C90.351 39.4621 90.3277 39.6712 90.2578 39.7409C90.1879 39.8339 90.118 39.6945 90.1413 39.4388Z" fill="white"/>
<path id="Whites_74" d="M88.1564 39.0667C88.4368 38.5554 89.2546 37.7188 89.465 37.7188C89.6986 37.7188 89.722 38.811 89.4883 38.9505C89.3715 38.997 88.9976 39.1132 88.6471 39.2061C88.133 39.3223 88.0161 39.2991 88.1564 39.0667Z" fill="white"/>
<path id="Whites_75" d="M90.0224 38.5322C89.7654 37.8349 89.8822 37.5328 90.443 37.4399C91.0272 37.3237 91.0272 37.3237 90.6533 38.0441C90.186 38.9737 90.2093 38.9737 90.0224 38.5322Z" fill="white"/>
<path id="Whites_76" d="M89.8828 37.1378C89.8828 37.0913 90.3502 36.7659 90.9344 36.4406C91.6354 36.0223 92.1261 35.8828 92.4766 35.9758C92.8973 36.1152 92.7804 36.2082 91.7522 36.6962C90.6072 37.2075 89.8828 37.3934 89.8828 37.1378Z" fill="white"/>
<path id="Whites_77" d="M102.85 16.5477C102.219 15.6413 100.887 14.1771 99.929 13.294C98.971 12.4109 98.34 11.6904 98.527 11.6904C99.0411 11.6904 102.967 12.7595 103.948 13.1778C104.766 13.5264 104.79 13.5729 104.579 14.2934C104.462 14.7117 104.369 15.7575 104.369 16.6174C104.369 17.5005 104.299 18.1977 104.205 18.1977C104.089 18.1977 103.504 17.454 102.85 16.5477Z" fill="white"/>
<path id="Whites_78" d="M55.2984 86.9426C54.3404 86.4546 54.13 86.1757 52.9149 83.782C51.1623 80.3889 51.1156 79.5987 52.7747 81.5276C53.429 82.2946 54.9479 83.8749 56.1397 85.0369C58.1727 86.9891 58.2662 87.1286 57.5885 87.0356C57.0978 86.9659 56.9108 87.0124 57.0277 87.1983C57.3081 87.6166 56.4201 87.5004 55.2984 86.9426Z" fill="white"/>
</g>
<path id="Stroke_2" fill-rule="evenodd" clip-rule="evenodd" d="M94.4644 129.285C94.2704 128.826 94.4866 128.299 94.9473 128.106L95.4507 127.893C100.346 125.81 103.155 124.559 105.064 122.572C106.973 120.585 107.202 117.667 107.56 115.891C107.659 115.404 108.768 116.26 109.258 116.358C109.748 116.456 110.066 116.93 109.967 117.417C109.536 119.552 108.375 121.588 106.505 123.52C104.642 125.446 101.035 127.51 95.6496 129.765C95.1889 129.958 94.6583 129.743 94.4644 129.285Z" fill="#00160A"/>
<path id="Stroke_3" fill-rule="evenodd" clip-rule="evenodd" d="M116.598 36.5555C117.028 36.3012 117.583 36.4414 117.839 36.8685C120.399 41.1451 121.77 46.0338 121.77 51.1201C121.77 66.5292 109.21 79.0207 93.7162 79.0207C89.5992 79.0207 85.606 78.1375 81.9494 76.455C81.4958 76.2463 79.7823 74.5843 81.5081 75.2602C83.2339 75.9362 89.9111 77.4533 93.7643 77.4533C108.258 77.4533 118.512 65.535 118.512 51.1201C118.512 46.3602 116.598 42.1352 116.284 37.7892C116.247 37.2855 116.169 36.8098 116.598 36.5555Z" fill="#00160A"/>
<path id="Stroke_4" fill-rule="evenodd" clip-rule="evenodd" d="M26.9714 104.673C27.2912 104.291 27.8619 103.52 28.2459 103.838C29.8213 105.143 31.5024 106.655 33.3007 106.947C35.1721 107.25 37.3921 107.25 39.9579 106.942C40.4541 106.882 40.905 107.233 40.9651 107.727C41.0251 108.22 40.6716 108.669 40.1754 108.729C37.4507 109.057 35.0629 109.057 33.0093 108.723C30.8826 108.378 28.9049 107.446 27.0875 105.941C26.7035 105.623 26.6515 105.055 26.9714 104.673Z" fill="#00160A"/>
<path id="Whites_79" d="M46.1816 73.1837C45.0132 72.2541 42.5129 69.5117 40.6201 67.0947C39.6386 65.8165 38.5403 63.2136 37.886 60.5874C37.5823 59.4021 37.2785 58.3331 37.2084 58.1936C37.1149 58.0774 36.741 56.4274 36.3671 54.5217C35.8063 51.8258 35.9249 50.9573 35.4324 47.7326C35.2239 46.3673 35.0352 45.2809 35.0352 45.2809L35.6427 44.5051C35.9932 44.0403 36.4366 43.2711 36.6008 42.8318C37.3486 40.8307 42.84 34.5582 43.0036 34.7209C43.0503 34.7674 42.8634 35.8597 42.5362 37.1379C42.2325 38.4161 41.8586 40.345 41.695 41.4373C41.4613 43.2501 41.3679 43.4593 40.6434 44.0635C39.7321 44.8304 38.0029 47.2939 38.0029 47.8052C38.0029 48.5024 39.0544 48.0376 40.1527 46.8988L41.2744 45.7368V47.015C41.2744 47.8517 41.1108 48.6186 40.807 49.2229C40.2228 50.3616 40.2228 51.5701 40.7837 52.4998C41.0641 52.9646 41.3211 54.0801 41.4847 55.4048C42.2091 61.4008 43.7514 66.6067 46.392 71.8357C47.0463 73.1372 47.5603 74.2063 47.537 74.2063C47.4902 74.2063 46.8827 73.7415 46.1816 73.1837Z" fill="white"/>
</g>
<path id="Shape_3" fill-rule="evenodd" clip-rule="evenodd" d="M143.42 87.5238L145.102 88.2675C145.451 88.4276 149.3 90.2668 153.923 92.476C161.377 96.0379 170.843 100.562 170.901 100.562C170.994 100.562 171.433 99.5532 171.531 98.377C171.765 95.8438 172.63 92.4042 173.635 90.0105C174.102 88.9414 174.476 87.6053 174.476 87.4891C174.476 87.4361 174.096 87.2837 173.474 87.0342C172.734 86.7372 171.65 86.3026 170.457 85.7343C164.568 82.9222 153.047 77.1818 151.622 76.3219C150.22 75.5085 149.94 75.4388 149.94 75.9733C149.94 76.6705 148.514 79.9009 147.416 81.6439C146.832 82.5968 145.687 84.3166 144.869 85.4554L143.42 87.5238ZM170.502 96.3783C171.173 96.7646 170.012 97.3312 169.731 97.4242C168.08 97.5636 166.136 97.2548 164.544 96.3319C163.711 95.7446 157.154 92.1215 152.804 89.7182C150.816 88.6196 149.289 87.7758 148.981 87.5935C147.999 87.0125 147.064 86.385 146.901 86.1991C146.41 85.5716 146.878 85.2927 148.256 85.4089C149.085 85.4787 169.055 95.5441 170.502 96.3783Z" fill="white"/>
<path id="Whites_80" d="M126.641 89.6146C126.034 89.4055 125.379 88.9407 124.959 88.4061L124.258 87.5462L126.735 85.106C130.544 81.3875 133.348 77.3237 135.872 72.7918C136.713 71.2812 139.213 65.189 139.517 64.515C139.984 63.5389 140.335 63.1671 141.34 62.6093C142.531 61.9121 143.887 61.6797 144.471 62.0748C145.593 62.8185 145.593 65.1658 144.471 69.2096C143.233 73.6485 141.573 76.8324 138.138 81.4108C137.601 82.108 136.596 83.4792 135.872 84.432C133.932 86.9885 132.67 88.2202 130.964 89.1731C129.282 90.1027 128.3 90.2189 126.641 89.6146Z" fill="white"/>
<path id="Whites_81" d="M135.45 89.0802L134.959 88.5921C134.959 88.5921 143.104 78.3006 144.563 74.5085C145.677 71.6146 146.332 70.7939 147.217 70.7939C147.711 70.7939 148.115 70.9062 148.302 71.1851C148.629 71.6732 148.944 72.2774 148.524 74.3458C147.823 77.6924 146.748 79.9002 143.523 84.6645C142.775 85.7568 141.817 86.9653 141.397 87.3836C140.415 88.29 138.207 89.2196 136.922 89.4288C136.104 89.545 135.87 89.4985 135.45 89.0802Z" fill="white"/>
<path id="Shadow_4" fill-rule="evenodd" clip-rule="evenodd" d="M149.132 78.3193C149.603 77.247 149.939 76.3117 149.939 75.9733C149.939 75.4388 150.22 75.5085 151.622 76.3219C153.047 77.1818 164.568 82.9222 170.456 85.7342C172.653 86.7801 174.476 87.3729 174.476 87.4891C174.476 87.6053 148.633 79.4561 149.132 78.3193Z" fill="#E7EAEE"/>
<path id="Shadow_5" fill-rule="evenodd" clip-rule="evenodd" d="M69.18 79.6448C66.2123 77.7159 61.7257 73.184 59.5524 69.9536C56.4445 65.3055 54.3881 60.3321 53.3833 54.9868C52.6589 51.1056 52.6823 45.1329 53.4067 41.6701C54.1545 38.1375 55.1125 35.4416 56.8184 32.0253C58.8047 28.0744 60.9078 25.1694 64.0624 22.0319C67.156 18.9553 53.4067 31.6786 56.8184 54.4435C59.5524 73.5204 71.3024 81.0356 69.18 79.6448Z" fill="#E7EAEE"/>
</g>
</svg>
