<svg width="603" height="554" viewBox="0 0 603 554" fill="none" xmlns="http://www.w3.org/2000/svg">
<path d="M477.33 145.047C477.33 145.047 298.033 6.30655 132.226 70.8693C-33.5807 135.432 -27.3594 360.075 62.5697 437.071C223.449 574.813 335.811 468.473 369.955 452.671C404.099 436.869 454.055 503.313 546.019 483.999C637.982 464.686 619.818 245.491 477.33 145.047Z" fill="#DAF9C7"/>
<path d="M240.415 497.556C114.264 497.556 11.6349 394.925 11.6349 268.774C11.6349 142.624 114.265 39.994 240.415 39.994C366.566 39.994 469.194 142.624 469.194 268.774C469.194 394.925 366.564 497.556 240.415 497.556ZM240.415 42.3084C115.541 42.3084 13.9493 143.9 13.9493 268.774C13.9493 393.649 115.541 495.24 240.415 495.24C365.288 495.24 466.88 393.649 466.88 268.774C466.88 143.9 365.288 42.3084 240.415 42.3084Z" fill="#A4E0D5"/>
<path d="M240.415 497.556C148.194 497.556 73.1695 394.925 73.1695 268.774C73.1695 142.624 148.194 39.994 240.415 39.994C332.635 39.994 407.66 142.624 407.66 268.774C407.66 394.925 332.633 497.556 240.415 497.556ZM240.415 42.3084C149.472 42.3084 75.4839 143.9 75.4839 268.774C75.4839 393.649 149.472 495.24 240.415 495.24C331.357 495.24 405.345 393.649 405.345 268.774C405.345 143.9 331.357 42.3084 240.415 42.3084Z" fill="#A4E0D5"/>
<path d="M240.415 497.556C199.571 497.556 166.341 394.925 166.341 268.774C166.341 142.624 199.571 39.994 240.415 39.994C281.258 39.994 314.489 142.624 314.489 268.774C314.488 394.925 281.258 497.556 240.415 497.556ZM240.415 42.3084C200.845 42.3084 168.656 143.9 168.656 268.774C168.656 393.649 200.845 495.24 240.415 495.24C279.984 495.24 312.174 393.649 312.174 268.774C312.174 143.9 279.984 42.3084 240.415 42.3084Z" fill="#A4E0D5"/>
<path d="M468.036 258.357H12.7914V260.671H468.036V258.357Z" fill="#A4E0D5"/>
<path d="M416.937 125.257C416.88 125.19 416.86 125.118 416.82 125.048C390.041 144.025 321.08 157.571 240.415 157.571C159.973 157.571 91.1814 144.098 64.2432 125.205C63.7867 125.773 63.3631 126.381 62.9135 126.962C90.4704 146.425 158.642 159.887 240.416 159.887C322.486 159.887 390.857 146.327 418.217 126.751C417.788 126.253 417.361 125.756 416.937 125.257Z" fill="#A4E0D5"/>
<path d="M240.415 79.7309C193.494 79.7309 157.17 73.2167 139.065 64.9657C138.974 65.1197 138.85 65.2627 138.656 65.3728C138.037 65.7248 137.438 66.1057 136.83 66.4756C155.941 75.7965 194.692 82.0453 240.415 82.0453C286.63 82.0453 325.726 75.6631 344.612 66.1745C343.845 65.6258 343.053 65.1046 342.191 64.7608C324.239 73.1081 287.72 79.7309 240.415 79.7309Z" fill="#A4E0D5"/>
<path d="M63.7454 412.678C90.3426 393.607 159.496 379.978 240.415 379.978C321.43 379.978 390.657 393.639 417.184 412.745C417.586 412.135 417.943 411.498 418.308 410.864C391.008 391.252 322.575 377.664 240.416 377.664C158.303 377.664 89.9039 391.237 62.571 410.831C62.9781 411.435 63.381 412.044 63.7454 412.678Z" fill="#A4E0D5"/>
<path d="M240.415 457.817C287.594 457.817 324.048 464.404 342.05 472.719C342.513 472.197 342.961 471.663 343.531 471.252C343.655 471.163 343.797 471.11 343.929 471.036C324.793 461.734 286.081 455.502 240.416 455.502C194.36 455.502 155.377 461.842 136.418 471.275C137.135 471.781 137.839 472.298 138.509 472.85C156.41 464.474 192.989 457.817 240.415 457.817Z" fill="#A4E0D5"/>
<path d="M301.311 553.487C428.436 553.487 531.491 543.931 531.491 532.143C531.491 520.355 428.436 510.799 301.311 510.799C174.186 510.799 71.1314 520.355 71.1314 532.143C71.1314 543.931 174.186 553.487 301.311 553.487Z" fill="#EDEFEF"/>
<path d="M525.067 154.657C519.941 173.748 487.786 190.949 485.618 184.355C483.449 177.761 494.401 170.239 502.744 167.701C511.087 165.166 518.961 155.417 514.99 148.941C511.018 142.466 498.379 125.801 498.379 125.801C498.379 125.801 469.098 129.343 463.175 133.46C457.252 137.576 457.761 148.697 460.693 156.435C463.625 164.173 468.926 168.282 467.884 174.506C466.841 180.73 461.262 179.03 455.53 166.658C449.797 154.285 452.161 134.469 452.161 134.469C452.161 134.469 442.355 141.229 434.391 146.818C426.428 152.408 398.343 160.398 398.075 174.03C397.806 187.663 411.462 195.498 419.487 201.383C427.513 207.269 432.126 218.048 429.402 221.231C426.677 224.415 419.573 220.425 409.418 206.894C399.264 193.362 394.087 176.174 394.087 176.174C394.087 176.174 373.511 193.813 375.941 206.617C378.371 219.421 400.682 236.144 418.18 247.348C406.942 246.054 377.381 225.896 370.768 210.576C367.872 211.707 361.931 229.404 363.136 245.077C365.436 249.815 387.869 258.417 398.185 262.776C408.5 267.136 410.498 271.676 404.22 275.345C397.941 279.014 378.234 267.229 366.212 252.262C361.351 267.643 372.402 291.037 387.643 299.584C402.885 308.131 422.147 297.294 424.849 286.545C427.551 275.795 438.466 277.418 438.466 277.418C438.466 277.418 442.656 281.824 438.242 287.843C433.828 293.862 435.087 303.583 439.189 311.925C443.291 320.267 452.417 331.077 482.524 319.659C512.63 308.242 527.545 276.715 529.959 262.108C523.955 270.81 499.943 271.157 495.115 273.346C490.288 275.535 483.607 272.631 487.359 268.122C491.112 263.612 501.581 265.916 523.207 263.526C531.657 259.008 537.041 244.562 537.215 227.685C526.462 242.673 489.449 247.317 486.993 245.874C484.535 244.432 484.331 238.796 493.411 237.281C502.491 235.764 522.281 230.236 534.216 224.595C536.044 219.316 539.262 202.321 534.069 188.792C527.457 204.541 505.083 212.375 499.305 215.94C493.526 219.504 486.342 217.619 486.45 213.158C486.557 208.697 491.755 207.343 504.786 202.265C517.817 197.186 534.347 186.384 534.4 181.673C534.454 176.965 535.195 165.582 525.067 154.657ZM425.982 159.614C430 155.44 434.639 157.012 435.641 167.376C436.644 177.739 443.184 185.568 449.37 191.709C455.555 197.851 458.462 210.718 453.271 210.275C453.271 210.275 443.371 212.551 431.642 196.805C419.915 181.058 421.964 163.788 425.982 159.614ZM498.98 285.85C494.796 301.35 471.293 303.809 461.808 294.705C452.324 285.601 452.905 278.43 456.486 275.589C460.067 272.748 467.533 275.356 477.854 282.848C488.176 290.34 498.98 285.85 498.98 285.85Z" fill="#005B4A"/>
<path d="M463.174 133.459C457.251 137.575 457.76 148.695 460.692 156.434C463.623 164.172 468.925 168.281 467.882 174.505C466.84 180.729 461.261 179.029 455.529 166.657C449.796 154.284 452.16 134.468 452.16 134.468C452.16 134.468 442.354 141.228 434.39 146.817C426.427 152.407 398.342 160.397 398.073 174.029C397.805 187.662 411.461 195.497 419.486 201.382C427.512 207.268 432.125 218.047 429.401 221.23C426.675 224.414 419.571 220.424 409.417 206.893C399.263 193.361 394.085 176.173 394.085 176.173C394.085 176.173 373.51 193.812 375.94 206.616C378.37 219.42 400.681 236.142 418.178 247.347C406.94 246.053 377.38 225.895 370.767 210.575C367.871 211.706 361.93 229.403 363.134 245.075C365.435 249.814 387.868 258.416 398.183 262.775C408.498 267.135 410.497 271.675 404.219 275.344C397.94 279.013 378.232 267.228 366.211 252.261C361.349 267.642 372.4 291.036 387.641 299.583C402.884 308.13 422.146 297.293 424.848 286.544C426.922 278.295 433.814 277.334 436.918 277.333C455.731 198.372 498.378 125.799 498.378 125.799C498.378 125.799 469.098 129.343 463.174 133.459ZM453.273 210.275C453.273 210.275 443.373 212.551 431.644 196.806C419.915 181.059 421.964 163.789 425.984 159.616C430.002 155.442 434.64 157.014 435.643 167.377C436.645 177.74 443.186 185.569 449.371 191.711C455.557 197.851 458.462 210.718 453.273 210.275Z" fill="#004437"/>
<path d="M400.938 353.623C407.668 345.391 413.365 336.685 418.58 327.595C423.756 318.512 428.282 309.047 431.901 299.227C432.795 296.769 433.588 294.273 434.437 291.799C435.225 289.305 435.873 286.765 436.596 284.253C437.851 279.164 438.883 274.014 439.984 269.042C442.317 259.033 445.215 249.109 448.542 239.327C455.08 219.72 462.794 200.491 470.935 181.466C475.083 171.984 479.303 162.53 483.8 153.206C488.334 143.906 492.912 134.6 498.379 125.802C492.748 134.5 487.993 143.73 483.284 152.953C478.61 162.201 474.212 171.585 469.883 181.001C461.381 199.9 453.297 219.009 446.368 238.58C442.845 248.344 439.741 258.273 437.186 268.386C435.955 273.503 434.858 278.493 433.542 283.433C432.787 285.881 432.109 288.352 431.293 290.779C430.417 293.187 429.596 295.616 428.676 298.006C424.954 307.558 420.344 316.759 415.103 325.572C409.861 334.347 403.996 342.919 397.467 350.607L400.938 353.623Z" fill="#00896F"/>
<path d="M439.074 149.228C439.657 153.83 440.68 158.368 441.863 162.861C443.085 167.343 444.555 171.772 446.42 176.046C448.299 180.306 450.4 184.516 453.191 188.303C455.968 192.083 459.249 195.547 463.201 198.214L463.313 198.29L463.458 198.317C469.362 199.442 475.41 198.831 481.125 197.438C486.868 196.056 492.381 193.937 497.701 191.47C502.999 188.941 508.11 186.066 513.057 182.941C517.978 179.78 522.779 176.427 527.298 172.724C522.558 176.133 517.659 179.305 512.636 182.254C507.63 185.23 502.475 187.95 497.169 190.311C491.875 192.683 486.424 194.737 480.795 196.034C477.988 196.703 475.131 197.14 472.271 197.304C469.413 197.469 466.539 197.394 463.739 196.877L463.995 196.98C460.217 194.476 457.016 191.17 454.281 187.514L452.329 184.689C451.716 183.722 451.169 182.712 450.569 181.734C449.954 180.763 449.447 179.732 448.924 178.707C448.409 177.68 447.848 176.673 447.405 175.609C445.434 171.442 443.91 167.073 442.504 162.674C441.119 158.265 439.955 153.778 439.074 149.228Z" fill="#00896F"/>
<path d="M448.129 237.262C455.594 238.508 463 237.13 470.096 235.409C477.218 233.623 484.134 231.17 490.918 228.447C497.707 225.725 504.356 222.679 510.914 219.463C517.464 216.227 523.931 212.825 530.256 209.177C523.868 212.714 517.346 216 510.748 219.118C504.141 222.216 497.451 225.141 490.637 227.733C483.829 230.328 476.902 232.648 469.825 234.291C462.79 235.88 455.434 237.065 448.42 235.756L448.129 237.262Z" fill="#00896F"/>
<path d="M444.623 248.649C438.261 247.072 432.022 244.547 426.147 241.485C420.269 238.391 414.75 234.602 409.755 230.217C407.171 228.109 404.97 225.603 402.64 223.224C400.606 220.593 398.329 218.13 396.627 215.255C392.767 209.79 390.173 203.578 387.828 197.332C390.051 203.618 392.533 209.9 396.306 215.465C397.966 218.39 400.205 220.908 402.207 223.601C404.505 226.04 406.682 228.612 409.248 230.789C414.205 235.313 419.713 239.252 425.606 242.498C431.52 245.719 437.711 248.381 444.295 250.148L444.623 248.649Z" fill="#00896F"/>
<path d="M440.907 259.905C448.56 260.992 456.221 261.407 463.901 261.437C471.577 261.443 479.249 260.95 486.854 259.946C494.46 258.918 501.953 257.166 509.253 254.839C516.537 252.422 523.462 249.058 529.955 245.009C523.392 248.952 516.431 252.188 509.135 254.475C501.821 256.671 494.339 258.289 486.757 259.186C479.175 260.058 471.539 260.42 463.914 260.288C456.299 260.132 448.648 259.583 441.166 258.394L440.907 259.905Z" fill="#00896F"/>
<path d="M408.031 385.495C408.031 385.495 374.664 335.002 415.453 294.665C412.279 304.43 407.033 311.646 410.347 325.244C413.661 338.84 421.293 336.263 420.83 316.361C420.366 296.459 421.743 283.165 436.967 266.518C434.851 283.302 435.104 293.396 440.946 292.938C446.787 292.482 441.518 282.719 441.039 273.926C440.559 265.134 460.099 249.105 472.585 245.114C467.379 256.471 470.191 269.168 475.82 267.334C482.762 265.07 470.864 245.723 491.574 238.033C506.296 232.567 521.998 241.052 540.759 233.161C524.92 256.232 524.829 259.834 520.342 263.676C507.566 264.333 494.76 269.005 496.174 268.581C497.587 268.158 515.247 269.087 518.097 271.191C513.028 287.997 512.255 290.224 498.346 297.384C484.438 304.545 471.318 299.765 465.593 308.014C460.741 315.747 485.347 308.839 497.996 298.915C483.105 324.798 470.607 342.722 464.315 350.002C457.023 357.644 437.443 356.581 429.743 357.318C422.044 358.055 427.153 363.948 433.507 364.093C439.862 364.238 451.232 362.645 453.941 361.017C445.209 373.142 426.032 382.998 408.031 385.495Z" fill="#004437"/>
<path d="M540.757 233.162C521.995 241.053 506.294 232.568 491.571 238.035C470.862 245.725 482.76 265.072 475.817 267.335C470.189 269.17 467.376 256.473 472.583 245.115C460.096 249.106 440.556 265.135 441.036 273.928C441.516 282.721 446.785 292.482 440.943 292.939C435.101 293.397 434.848 283.302 436.964 266.52C421.74 283.166 420.363 296.46 420.827 316.363C421.29 336.266 413.657 338.843 410.344 325.245C407.03 311.647 412.276 304.432 415.45 294.667C376.992 332.698 404.454 379.754 407.717 385.006C412.529 363.268 436.306 287.554 540.735 233.191C540.743 233.18 540.75 233.172 540.757 233.162Z" fill="#006B56"/>
<path d="M402.422 403.276C403.141 398.508 404.152 393.892 405.276 389.267L406.154 385.814C406.449 384.665 406.792 383.527 407.108 382.383C407.438 381.243 407.738 380.093 408.093 378.962L409.161 375.565C412.046 366.522 415.526 357.671 419.582 349.093L421.128 345.888C421.641 344.818 422.148 343.746 422.73 342.711L426.105 336.446C427.297 334.395 428.547 332.377 429.764 330.341C430.944 328.281 432.322 326.346 433.646 324.38C436.212 320.384 439.207 316.696 442.073 312.917C443.573 311.083 445.125 309.294 446.647 307.482C447.417 306.584 448.162 305.664 448.955 304.784L451.342 302.156L453.729 299.529L454.923 298.216C455.326 297.783 455.745 297.365 456.155 296.938L461.103 291.849C462.774 290.175 464.498 288.554 466.194 286.905C467.875 285.241 469.636 283.66 471.388 282.073C478.38 275.703 485.648 269.636 493.192 263.937C508.246 252.489 524.241 242.336 540.752 233.162C524.344 242.518 508.473 252.841 493.575 264.434C486.107 270.205 478.924 276.337 472.023 282.765C470.293 284.367 468.556 285.962 466.899 287.638C465.228 289.301 463.527 290.935 461.881 292.62L457.009 297.744C456.605 298.173 456.192 298.594 455.796 299.029L454.622 300.35L452.274 302.992L449.927 305.634C449.148 306.518 448.417 307.442 447.66 308.344C446.166 310.163 444.642 311.962 443.171 313.799C440.371 317.578 437.444 321.262 434.946 325.252C433.654 327.216 432.311 329.145 431.164 331.201C429.98 333.232 428.763 335.244 427.605 337.287L424.329 343.532C423.764 344.563 423.273 345.63 422.777 346.696L421.281 349.889C417.357 358.43 414.007 367.237 411.25 376.221L410.23 379.594C409.89 380.719 409.607 381.859 409.292 382.991C408.991 384.125 408.663 385.254 408.384 386.394L407.555 389.817C406.496 394.38 405.541 399.013 404.901 403.594L402.422 403.276Z" fill="#00896F"/>
<path d="M400.28 450.615C400.28 450.615 373.4 396.389 418.855 361.395C414.5 370.694 408.403 377.207 410.014 391.11C411.624 405.012 419.516 403.397 421.513 383.589C423.51 363.781 426.516 350.758 443.678 336.12C439.506 352.513 438.511 362.561 444.364 362.828C450.217 363.095 446.193 352.759 446.802 343.973C447.411 335.187 468.78 321.693 481.664 319.274C475.096 329.901 476.319 342.848 482.132 341.722C489.3 340.333 479.881 319.664 501.381 314.59C516.666 310.983 531.2 321.341 550.792 315.826C532.228 336.766 531.693 340.329 526.766 343.588C514.005 342.663 500.721 345.72 502.176 345.474C503.631 345.227 521.041 348.33 523.61 350.769C516.505 366.82 515.463 368.935 500.778 374.325C486.091 379.714 473.661 373.351 466.962 380.832C461.193 387.907 486.465 384.09 500.241 375.8C482.271 399.647 467.655 415.892 460.513 422.34C452.333 429.023 433.034 425.552 425.303 425.332C417.572 425.114 421.915 431.592 428.202 432.52C434.49 433.449 445.969 433.271 448.86 431.99C438.698 442.944 418.452 450.358 400.28 450.615Z" fill="#00352C"/>
<path d="M550.791 315.826C531.199 321.341 516.665 310.983 501.38 314.59C479.881 319.664 489.299 340.333 482.13 341.722C476.319 342.848 475.095 329.901 481.663 319.273C468.779 321.691 447.412 335.186 446.802 343.972C446.193 352.758 450.217 363.094 444.364 362.827C438.512 362.56 439.506 352.512 443.678 336.118C426.515 350.758 423.508 363.781 421.513 383.588C419.516 403.396 411.624 405.01 410.014 391.109C408.404 377.207 414.5 370.693 418.855 361.394C375.996 394.39 397.442 444.473 400.032 450.088C407.489 429.111 440.43 356.911 550.768 315.851C550.777 315.843 550.784 315.836 550.791 315.826Z" fill="#006B56"/>
<path d="M392.52 467.568C393.823 462.925 395.395 458.47 397.083 454.018L398.38 450.7C398.815 449.596 399.296 448.51 399.751 447.413C400.22 446.323 400.659 445.22 401.151 444.139L402.631 440.901C406.609 432.283 411.155 423.928 416.238 415.917L418.167 412.927C418.808 411.929 419.443 410.928 420.149 409.972L424.272 404.17C425.707 402.282 427.197 400.434 428.657 398.565C430.082 396.667 431.688 394.917 433.246 393.127C436.285 389.479 439.713 386.187 443.023 382.792C444.738 381.158 446.498 379.574 448.233 377.963C449.109 377.167 449.961 376.346 450.855 375.571L453.549 373.258L456.243 370.945L457.589 369.788C458.043 369.409 458.511 369.045 458.97 368.673L464.508 364.232C466.372 362.777 468.284 361.382 470.171 359.954C472.045 358.51 473.987 357.159 475.922 355.8C483.646 350.342 491.608 345.218 499.799 340.494C516.151 330.992 533.276 322.889 550.793 315.824C533.354 323.083 516.331 331.369 500.116 341.033C491.995 345.838 484.108 351.038 476.468 356.563C474.553 357.94 472.634 359.308 470.781 360.767C468.918 362.211 467.028 363.622 465.187 365.092L459.721 369.575C459.267 369.95 458.806 370.317 458.358 370.7L457.03 371.866L454.374 374.198L451.719 376.529C450.837 377.31 449.997 378.138 449.135 378.94C447.427 380.561 445.693 382.158 444.007 383.8C440.763 387.203 437.403 390.498 434.431 394.149C432.908 395.938 431.336 397.687 429.944 399.587C428.518 401.455 427.063 403.302 425.662 405.188L421.641 410.981C420.953 411.934 420.335 412.934 419.71 413.93L417.832 416.914C412.884 424.906 408.472 433.23 404.627 441.806L403.199 445.028C402.723 446.102 402.301 447.199 401.85 448.283C401.411 449.372 400.947 450.451 400.529 451.549L399.283 454.844C397.669 459.24 396.149 463.72 394.95 468.187L392.52 467.568Z" fill="#00896F"/>
<path d="M293.888 161.579C296.233 174.879 293.063 190.37 293.827 203.702C299.532 193.227 302.528 181.589 305.849 170.386C322.581 183.427 337.155 197.867 349.663 212.863C346.279 225.746 341.854 238.564 336.238 250.488C344.527 241.189 350.284 229.961 353.646 217.736C366.018 233.231 376.208 249.217 384.326 264.794C376.757 283.51 361.838 300.364 372.022 321.137C378.468 306.609 385.28 292.365 390.669 277.789C399.385 296.933 404.856 315.023 407.269 330.3C400.319 341.212 396.423 353.615 388.476 364.04C395.238 357.869 403.157 351.119 408.611 343.11C408.651 343.991 408.69 344.871 408.703 345.724C409.733 410.124 392.97 456.142 392.97 456.142C380.539 447.68 367.909 436.831 355.535 424.367C363.51 421.731 372.34 421.185 380.449 420.091C369.493 415.377 357.557 411.971 345.69 414.043C332.745 399.958 320.221 384.288 308.671 367.886C326.187 356.625 351.008 358.496 371.011 362.295C348.563 351.564 321.637 340.813 297.653 351.579C282.337 327.921 269.325 303.44 260.106 280.629C282.075 276.697 304.935 276.93 326.346 280.535C306.042 267.309 279.667 264.35 255.807 269.332C254.088 264.508 252.539 259.772 251.222 255.172C245.771 236.149 239.101 220.557 231.567 206.833C246.516 206.115 262.075 207.233 276.756 210.927C262.511 201.983 245.78 201.291 229.02 202.321C221.799 189.861 213.85 178.886 205.47 168.122C217.055 164.408 229.703 164.031 240.529 167.41C228.523 159.27 213.872 158.321 200.067 161.273C188.342 146.56 175.921 131.74 163.523 113.532C215.776 119.146 259.021 137.291 293.888 161.579Z" fill="#004437"/>
<path d="M293.888 161.579C296.232 174.879 293.063 190.37 293.827 203.702C299.532 193.228 302.528 181.59 305.849 170.386C322.581 183.427 337.155 197.867 349.663 212.864C346.279 225.746 341.854 238.564 336.238 250.488C344.527 241.189 350.283 229.961 353.646 217.736C366.018 233.231 376.208 249.217 384.326 264.794C376.757 283.51 361.838 300.364 372.022 321.137C378.468 306.609 385.28 292.365 390.669 277.789C399.385 296.933 404.856 315.023 407.269 330.3C400.319 341.212 396.423 353.615 388.476 364.04C395.238 357.869 403.157 351.119 408.611 343.11C408.651 343.991 408.69 344.871 408.703 345.724C409.733 410.124 392.97 456.142 392.97 456.142C392.26 455.659 391.549 455.161 390.839 454.663C389.576 380.777 364.783 206.739 169.795 115.419C169.795 115.419 167.071 114.59 163.646 113.706C163.604 113.647 163.565 113.589 163.525 113.53C215.776 119.146 259.02 137.291 293.888 161.579Z" fill="#006B56"/>
<path d="M391.858 489.506C392.853 479.701 393.082 470.061 393.044 460.345C392.977 450.649 392.525 440.965 391.75 431.31C390.157 412.004 387.262 392.81 382.975 373.93C378.704 355.049 373.091 336.468 366.053 318.441C359.034 300.409 350.652 282.905 340.851 266.231C321.335 232.827 296.205 202.792 267.031 177.501C237.866 152.151 204.74 131.65 169.793 115.422C204.578 131.997 237.452 152.807 266.273 178.365C295.105 203.866 319.802 234.004 338.861 267.382C348.434 284.044 356.582 301.505 363.37 319.468C370.175 337.426 375.559 355.911 379.608 374.673C383.671 393.433 386.35 412.484 387.738 431.615C388.41 441.182 388.762 450.77 388.733 460.352C388.68 469.907 388.34 479.568 387.295 488.935L391.858 489.506Z" fill="#00896F"/>
<path d="M159.288 263.98C168.001 272.674 174.47 286.59 182.217 296.325C180.061 284.627 175.585 273.775 171.546 263.049C189.086 262.301 206.044 264.01 222.017 267.474C226.932 279.529 231.162 292.204 234.163 304.957C234.261 292.498 231.726 280.189 227.158 268.653C243.319 272.587 258.387 278.299 271.939 285.031C277.424 304.249 277.314 326.762 294.989 336.15C291.087 320.865 287.566 305.564 282.979 290.922C298.849 300.005 312.123 310.363 321.956 320.529C323.574 333.364 327.907 345.38 328.638 358.483C329.49 349.405 330.745 339.14 329.778 329.491C330.283 330.142 330.788 330.792 331.261 331.437C367.016 380.168 381.657 426.232 381.657 426.232C369.294 427.731 355.506 427.524 340.998 425.915C344.532 418.77 349.739 412.677 354.197 406.627C344.797 410.051 335.5 415.109 329.234 424.323C313.485 421.838 297.133 417.867 280.992 412.71C285.77 392.818 302.263 378.304 316.802 368.365C296.959 374.558 274.312 383.615 265.233 407.283C242.787 398.98 221.329 388.564 203.145 376.994C214.696 359.862 229.072 345.353 244.383 334.36C224.516 337.263 206.462 351.94 194.305 371.093C190.603 368.498 187.055 365.86 183.726 363.179C169.956 352.091 157.298 344.42 145.118 338.735C154.046 328.58 164.354 319.439 175.519 312.838C161.763 315.132 150.957 325.351 141.071 336.91C129.775 331.993 118.837 328.684 107.745 325.813C112.941 315.52 120.619 307.104 129.21 302.739C117.289 304.21 107.639 312.897 100.642 324.029C85.3121 320.279 69.488 316.895 51.835 310.895C87.4615 281.627 124.312 267.756 159.288 263.98Z" fill="#00352C"/>
<path d="M159.288 263.98C168.001 272.674 174.47 286.59 182.217 296.325C180.061 284.627 175.585 273.775 171.546 263.049C189.086 262.301 206.044 264.01 222.018 267.474C226.932 279.529 231.162 292.204 234.163 304.957C234.261 292.498 231.726 280.189 227.158 268.653C243.319 272.587 258.387 278.299 271.939 285.031C277.424 304.249 277.314 326.762 294.989 336.15C291.087 320.865 287.566 305.564 282.979 290.922C298.85 300.005 312.123 310.363 321.956 320.529C323.574 333.364 327.907 345.38 328.638 358.483C329.49 349.405 330.745 339.14 329.778 329.491C330.283 330.142 330.788 330.792 331.261 331.437C367.017 380.168 381.657 426.232 381.657 426.232C380.951 426.317 380.236 426.393 379.522 426.467C338.45 370.61 228.105 253.062 56.7719 308.315C56.7719 308.315 54.6226 309.431 52.0042 310.953C51.9465 310.934 51.8901 310.916 51.8323 310.896C87.4615 281.627 124.312 267.756 159.288 263.98Z" fill="#006B56"/>
<path d="M399.151 452.533C394.426 444.373 389.312 436.834 383.992 429.406C378.663 422.013 373.102 414.876 367.353 407.968C355.834 394.185 343.564 381.324 330.598 369.598C317.641 357.861 304.012 347.217 289.795 337.914C275.59 328.595 260.821 320.556 245.621 314.065C215.242 300.986 183.202 294.096 151.228 293.447C119.227 292.746 87.3996 298.307 56.7678 308.317C87.4877 298.677 119.326 293.514 151.227 294.598C183.103 295.629 214.93 302.876 245.009 316.229C260.06 322.858 274.66 331.014 288.684 340.43C302.718 349.829 316.153 360.547 328.905 372.335C341.667 384.113 353.724 397.003 365.02 410.783C370.655 417.689 376.102 424.817 381.309 432.183C386.485 439.546 391.54 447.173 395.995 455.029L399.151 452.533Z" fill="#00896F"/>
<path d="M440.251 517.58C434.246 514.42 427.877 510.609 427.399 508.448C426.479 504.292 454.506 481.057 438.447 451.231C425.036 446.191 407.048 449.461 401.144 450.763C395.24 449.461 377.252 446.191 363.841 451.231C347.782 481.057 375.809 504.292 374.888 508.448C374.409 510.608 368.04 514.419 362.036 517.58C359.046 519.153 360.45 522.861 364.034 522.861H399.167H403.12H438.253C441.837 522.861 443.241 519.153 440.251 517.58Z" fill="#CC7B44"/>
<path d="M438.445 451.231C425.035 446.191 407.046 449.461 401.143 450.763C395.239 449.461 377.251 446.191 363.84 451.231C348.068 480.522 374.799 503.445 374.889 508.193H422.511C424.65 507.244 426.739 506.253 428.773 505.228C434.038 497.017 452.051 476.501 438.445 451.231Z" fill="#CC7B44"/>
<path d="M422.511 508.193H374.889C374.891 508.28 374.903 508.373 374.887 508.447C374.408 510.608 368.038 514.418 362.034 517.58C361.31 517.961 360.849 518.468 360.608 519.017C381.666 521.58 403.918 516.445 422.511 508.193Z" fill="#C46C31"/>
<path d="M441.47 458.27C440.71 455.968 439.734 453.624 438.446 451.231C425.035 446.191 407.046 449.461 401.143 450.763C395.239 449.461 377.251 446.191 363.84 451.231C351.861 473.477 364.407 492.051 371.176 501.782C372.021 472.767 408.582 457.533 441.47 458.27Z" fill="#C46C31"/>
<path d="M441.503 455.568H361.127C357.901 455.568 355.285 452.953 355.285 449.725V442.912C355.285 439.686 357.901 437.069 361.127 437.069H441.503C444.729 437.069 447.344 439.685 447.344 442.912V449.725C447.344 452.953 444.729 455.568 441.503 455.568Z" fill="#CC7B44"/>
<path d="M440.798 437.071H361.829C361.352 437.071 360.889 437.116 360.439 437.194V439.433C360.439 442.313 363.37 444.648 366.985 444.648H445.954C446.432 444.648 446.895 444.602 447.344 444.524V442.285C447.344 439.406 444.414 437.071 440.798 437.071Z" fill="#E28F56"/>
<path d="M362.7 251.302C362.7 251.302 359.314 222.59 348.382 208.302C337.449 194.014 319.014 157.48 315.77 137.928C316.327 168.153 319.286 186.573 329.475 202.805C339.66 219.041 359.776 239.909 362.7 251.302Z" fill="#00352C"/>
<path d="M362.7 251.302C362.7 251.302 359.314 222.59 348.382 208.302C337.449 194.014 319.014 157.48 315.77 137.928C316.327 168.153 325.921 184.323 336.108 200.556C346.294 216.791 359.776 239.909 362.7 251.302Z" fill="#00352C"/>
<path d="M360.071 224.005C360.071 224.005 360.049 204.754 352.405 184.271C344.761 163.788 333.229 152.891 328.077 141.224C322.925 129.557 320.533 113.402 320.533 113.402C320.533 113.402 318.011 136.901 329.147 163.173C340.281 189.446 357.137 210.854 360.071 224.005Z" fill="#00352C"/>
<path d="M360.071 224.005C360.071 224.005 360.049 204.754 352.405 184.271C344.761 163.788 333.229 152.891 328.077 141.224C322.925 129.557 320.533 113.402 320.533 113.402C320.533 113.402 319.256 138.211 333.771 162.779C352.896 195.151 357.137 210.854 360.071 224.005Z" fill="#00352C"/>
<path d="M363.371 196.113C363.371 196.113 368.848 179.956 362.942 155.951C357.036 131.946 334.003 91.9685 334.315 79.5768C330.957 95.3253 335.584 124.435 345.888 147.767C356.193 171.1 363.371 196.113 363.371 196.113Z" fill="#00352C"/>
<path d="M363.371 196.113C363.371 196.113 368.848 179.956 362.942 155.951C357.036 131.946 334.003 91.9685 334.315 79.5768C330.957 95.3253 343.305 122.027 353.609 145.359C363.914 168.692 363.371 196.113 363.371 196.113Z" fill="#00352C"/>
<path d="M369.778 167.688C369.778 167.688 376.042 141.026 369.2 118.212C362.359 95.3981 356.795 65.876 357.549 57.8176C352.077 72.5222 349.065 104.755 356.051 121.145C363.037 137.535 371.006 155.252 369.778 167.688Z" fill="#00352C"/>
<path d="M369.778 167.688C369.778 167.688 376.042 141.026 369.2 118.212C362.359 95.3981 356.795 65.876 357.549 57.8176C352.077 72.5222 357.192 102.589 364.18 118.979C371.165 135.369 371.006 155.252 369.778 167.688Z" fill="#00352C"/>
<path d="M376.197 144.227C376.197 144.227 387.509 121.638 384.443 101.409C381.376 81.1802 382.744 38.7137 386.134 33.048C376.641 54.5955 369.704 81.5185 372.006 95.845C374.309 110.171 380.833 131.771 376.197 144.227Z" fill="#00352C"/>
<path d="M376.197 144.227C376.197 144.227 387.509 121.638 384.443 101.409C381.376 81.1802 382.744 38.7137 386.134 33.048C376.641 54.5955 376.254 80.2946 378.556 94.6211C380.859 108.948 380.833 131.771 376.197 144.227Z" fill="#00352C"/>
<path d="M388.959 117.632C388.959 117.632 407.251 79.1546 405.245 56.793C403.238 34.4314 402.213 13.3955 404.846 10.9766C398.527 27.0976 394.048 52.7555 393.026 74.1187C392.003 95.482 388.959 117.632 388.959 117.632Z" fill="#00352C"/>
<path d="M388.959 117.632C388.959 117.632 407.251 79.1546 405.245 56.793C403.238 34.4314 402.213 13.3955 404.846 10.9766C398.527 27.0976 402.255 48.2601 401.233 69.6233C400.21 90.9866 388.959 117.632 388.959 117.632Z" fill="#00352C"/>
<path d="M405.476 88.1785C405.476 88.1785 411.133 31.8296 443.501 0C431.186 23.2128 426.352 36.8944 424.013 48.4664C421.674 60.0398 413.005 77.7272 405.476 88.1785Z" fill="#00352C"/>
<path d="M405.476 88.1785C405.476 88.1785 421.889 31.2342 443.501 0C431.186 23.2128 426.352 36.8944 424.013 48.4664C421.674 60.0398 413.005 77.7272 405.476 88.1785Z" fill="#00352C"/>
<path d="M413.626 76.341C413.626 76.341 439.162 16.3879 487.433 3.64557C467.866 19.1148 424.639 61.1056 413.626 76.341Z" fill="#00352C"/>
<path d="M413.626 76.341C413.626 76.341 446.764 24.3006 487.433 3.64557C467.866 19.1148 424.639 61.1056 413.626 76.341Z" fill="#00352C"/>
<path d="M402.028 94.5578C402.028 94.5578 412.573 72.6542 432.355 67.87C452.137 63.0858 470.838 64.3138 481.117 52.6592C464.967 72.3915 447.303 76.7673 433.414 80.1942C419.523 83.6211 408.316 89.6595 402.028 94.5578Z" fill="#00352C"/>
<path d="M402.028 94.5578C402.028 94.5578 415.136 78.0022 434.918 73.218C454.7 68.4338 470.838 64.3138 481.117 52.6592C464.967 72.3915 447.303 76.7673 433.414 80.1942C419.523 83.6211 408.316 89.6595 402.028 94.5578Z" fill="#00352C"/>
<path d="M392.296 111.301C392.296 111.301 398.053 94.9952 426.267 87.6614C454.481 80.3277 462.966 79.6469 475.15 67.4987C462.644 84.819 449.688 91.7154 431.72 96.105C413.753 100.494 402.247 104.729 392.296 111.301Z" fill="#00352C"/>
<path d="M392.296 111.301C392.296 111.301 400.55 99.1345 428.764 91.8007C456.979 84.4669 462.966 79.6469 475.151 67.4987C462.646 84.819 449.689 91.7154 431.721 96.105C413.753 100.494 402.247 104.729 392.296 111.301Z" fill="#00352C"/>
<path d="M380.386 137.682C380.386 137.682 383.129 118.9 407.195 111.009C431.26 103.118 449.448 100.093 456.822 93.0864C448.305 104.884 434.115 111.534 415.017 117.813C395.918 124.091 384.225 132.156 380.386 137.682Z" fill="#00352C"/>
<path d="M380.386 137.682C380.386 137.682 384.483 121.979 408.548 114.088C432.613 106.197 449.447 100.092 456.822 93.0864C448.305 104.884 434.115 111.534 415.017 117.813C395.918 124.091 384.225 132.156 380.386 137.682Z" fill="#00352C"/>
<path d="M370.75 162.554C370.75 162.554 379.396 148.731 399.554 142.249C419.712 135.766 435.903 126.268 446.02 111.259C439.246 116.478 431.39 121.299 415.068 126.598C398.744 131.898 376.106 140.363 370.75 162.554Z" fill="#00352C"/>
<path d="M370.75 162.554C370.75 162.554 379.396 148.731 399.554 142.249C419.712 135.766 435.903 126.268 446.02 111.259C439.246 116.478 432.371 125.765 416.05 131.064C399.726 136.364 376.106 140.363 370.75 162.554Z" fill="#00352C"/>
<path d="M362.822 196.635C362.822 196.635 367.105 180.122 389.182 170.72C411.26 161.317 428.488 157.422 437.014 134.852C426.414 146.216 411.989 151.197 397.855 155.859C383.719 160.519 363.231 174.569 362.822 196.635Z" fill="#00352C"/>
<path d="M362.822 196.635C362.822 196.635 367.105 180.122 389.182 170.72C411.26 161.317 428.488 157.422 437.014 134.852C426.414 146.216 413.585 155.34 399.451 160.001C385.316 164.663 363.231 174.569 362.822 196.635Z" fill="#00352C"/>
<path d="M360.63 215.116C360.63 215.116 362.708 194.274 383.109 180.216C403.508 166.157 424.881 165.002 434.893 151.794C428.542 167.23 410.303 176.254 396.503 182.313C382.703 188.372 362.089 205.075 360.63 215.116Z" fill="#00352C"/>
<path d="M360.63 215.116C360.63 215.116 362.952 197.284 383.351 183.227C403.75 169.17 426.343 168.058 434.893 151.795C428.542 167.231 410.303 176.255 396.503 182.314C382.703 188.372 362.089 205.075 360.63 215.116Z" fill="#00352C"/>
<path d="M360.496 231.166C360.496 231.166 358.407 208.947 385.33 193.815C412.254 178.682 415.147 186.332 433.527 166.072C422.511 189.297 407.143 193.933 389.971 202.394C372.798 210.856 364.236 221.215 360.496 231.166Z" fill="#00352C"/>
<path d="M360.495 231.166C360.495 231.166 358.807 213.272 385.731 198.14C412.656 183.007 415.149 186.333 433.527 166.071C422.511 189.296 407.143 193.932 389.971 202.393C372.798 210.856 364.236 221.215 360.495 231.166Z" fill="#00352C"/>
<path d="M363.76 262.541C362.346 257.983 361.515 253.476 360.824 248.885C360.168 244.305 359.712 239.703 359.494 235.092C359.027 225.87 359.366 216.631 360.286 207.467C361.217 198.302 362.782 189.212 364.855 180.249C365.409 178.017 365.875 175.762 366.501 173.549L368.333 166.899C369.705 162.51 371.005 158.099 372.594 153.784C378.623 136.407 386.589 119.769 395.638 103.806L397.327 100.807L399.109 97.8624L402.675 91.9739C405.088 88.0712 407.66 84.2689 410.143 80.4129C412.744 76.634 415.381 72.8811 418.038 69.1434C420.797 65.4786 423.624 61.8647 426.482 58.2823C423.885 62.0654 421.257 65.8169 418.562 69.5175L410.836 80.8736C408.393 84.7447 405.862 88.5608 403.49 92.4745L399.988 98.3795L398.237 101.331L396.581 104.337C387.707 120.333 379.928 136.974 374.093 154.301C372.552 158.604 371.302 163 369.977 167.37L368.22 173.99C367.619 176.193 367.176 178.435 366.648 180.654C364.673 189.565 363.206 198.589 362.367 207.668C361.539 216.744 361.289 225.88 361.832 234.964C362.088 239.506 362.58 244.03 363.264 248.516C363.969 252.976 364.867 257.501 366.209 261.689L363.76 262.541Z" fill="#00352C"/>
<path d="M322.97 417.025C322.97 417.025 329.954 414.75 335.964 417.025C341.973 419.299 343.273 416.465 347.009 416.014C350.744 415.563 355.13 416.823 359.515 417.898C363.9 418.974 364.225 414.033 377.219 416.909C355.179 412.03 385.502 386.603 384.799 355.684C384.366 336.627 381.767 295.111 381.767 295.111L322.97 301.977C322.97 301.977 316.581 403.869 322.97 417.025Z" fill="#964BF9"/>
<path d="M352.954 284.781H348.189V507.16H352.954V284.781Z" fill="#000054"/>
<path d="M387.086 525.787C386.877 525.787 386.665 525.783 386.448 525.773C377.476 525.383 366.858 512.305 363.812 508.303H350.571C349.255 508.303 348.189 507.237 348.189 505.921C348.189 504.605 349.255 503.538 350.571 503.538H366.22L366.935 504.519C370.203 509.01 380.115 520.728 386.654 521.012C388.916 521.106 390.249 520.509 390.613 519.225C391.02 517.793 390.264 516.15 389.795 515.84C389.377 515.754 389.125 515.792 389.036 515.853C388.951 515.911 388.886 516.049 388.86 516.139C388.951 517.366 388.083 518.475 386.847 518.666C385.553 518.871 384.33 517.975 384.129 516.675C383.949 515.509 384.384 513.669 385.763 512.386C386.523 511.679 388.204 510.589 390.92 511.21C393.82 511.874 395.921 515.73 395.418 519.463C394.999 522.564 392.582 525.787 387.086 525.787Z" fill="#000054"/>
<path d="M314.058 525.787C308.56 525.787 306.145 522.565 305.725 519.461C305.221 515.73 307.322 511.874 310.222 511.21C312.94 510.589 314.62 511.679 315.38 512.386C316.76 513.669 317.194 515.509 317.014 516.675C316.813 517.975 315.588 518.871 314.297 518.666C313.061 518.475 312.193 517.366 312.284 516.139C312.259 516.051 312.194 515.912 312.109 515.853C312.02 515.792 311.768 515.754 311.35 515.84C310.881 516.15 310.125 517.793 310.532 519.225C310.897 520.509 312.215 521.111 314.492 521.012C321.031 520.728 330.943 509.01 334.211 504.519L334.924 503.538H350.574C351.89 503.538 352.957 504.604 352.957 505.921C352.957 507.237 351.89 508.303 350.574 508.303H337.334C334.289 512.305 323.671 525.383 314.698 525.773C314.48 525.782 314.265 525.787 314.058 525.787Z" fill="#000054"/>
<path d="M373.884 217.341C372.825 208.341 380.38 190.659 384.351 180.599C388.322 170.54 388.418 155.36 388.418 155.36C388.418 155.36 372.03 149.836 366.471 148.247C360.911 146.659 360.911 128.657 360.911 128.657H355.93H345.16H340.179C340.179 128.657 340.179 146.657 334.619 148.247C329.059 149.836 313.197 155.859 313.197 155.859C313.197 155.859 308.869 171.686 312.84 181.746C316.812 191.806 328.266 208.342 327.207 217.342C326.148 226.343 325.143 248.435 326.731 262.995C328.319 277.556 311.852 327.206 311.852 327.206H345.158H355.929H389.235C389.235 327.206 371.185 277.899 372.773 263.339C374.361 248.779 374.943 226.342 373.884 217.341Z" fill="#FCB57A"/>
<path d="M334.702 148.038C334.702 148.038 335.857 156.352 338.379 171.545C341.147 188.219 360.055 226.071 360.055 238.241C360.055 250.411 348.299 405.571 355.013 427.443C342.669 434.59 330.473 426.001 325.925 426.65C321.378 427.299 317.696 432.93 309.683 425.568C314.231 416.039 315.992 354.371 307.872 287.671C305.776 270.46 312.93 259.387 320.13 242.712C330.439 218.84 315.008 195.921 312.842 187.475C310.676 179.029 310.721 154.812 310.86 153.946C318.436 151.2 334.702 148.038 334.702 148.038Z" fill="#EA9D63"/>
<path d="M366.588 148.038C366.588 148.038 365.538 158.137 362.975 172.577C360.284 187.741 341.147 223.32 341.147 235.491C341.147 247.661 354.901 403.668 348.188 425.541C360.531 432.688 374.35 424.575 378.898 425.224C383.446 425.873 387.127 431.504 395.14 424.141C390.592 414.613 385.592 354.372 393.714 287.671C395.81 270.46 385.477 253.886 378.276 237.211C367.968 213.339 388.373 191.796 390.539 183.35C392.705 174.903 389.433 154.812 389.294 153.946C381.587 150.343 366.588 148.038 366.588 148.038Z" fill="#EA9D63"/>
<path d="M310.86 153.945C310.86 153.945 302.986 170.17 301.267 215.894C300.614 233.256 294.562 269.709 297.485 296.996C310.155 296.672 311.164 296.996 311.164 296.996C311.164 296.996 311.736 268.984 315.192 248.555C318.646 228.125 321.283 210.245 322.582 201.799C323.882 193.353 310.86 153.945 310.86 153.945Z" fill="#AABA49"/>
<path d="M389.294 153.945C389.294 153.945 397.168 170.17 398.887 215.894C399.541 233.256 405.593 269.709 402.669 296.996C390 296.672 388.99 296.996 388.99 296.996C388.99 296.996 388.418 268.984 384.962 248.555C381.507 228.125 378.872 210.245 377.572 201.799C376.273 193.353 389.294 153.945 389.294 153.945Z" fill="#AABA49"/>
<path d="M334.702 148.038C334.702 148.038 336.462 156.72 336.679 172.117C336.896 187.516 360.057 226.071 360.057 238.239C360.057 250.408 348.301 405.57 355.014 427.442C342.671 434.589 330.474 425.999 325.927 426.648C321.379 427.297 317.698 432.929 309.684 425.566C314.232 416.038 315.994 354.37 307.873 287.67C305.778 270.458 312.931 259.385 320.132 242.71C330.44 218.839 315.009 195.92 312.843 187.474C310.677 179.028 310.723 154.811 310.862 153.944C318.436 151.2 334.702 148.038 334.702 148.038Z" fill="#98AA4B"/>
<path d="M366.587 148.038C366.587 148.038 366.461 157.407 366.244 172.805C366.026 188.204 341.147 223.32 341.147 235.489C341.147 247.658 354.901 403.667 348.188 425.54C360.531 432.687 374.35 424.573 378.898 425.222C383.446 425.871 387.127 431.503 395.14 424.14C390.592 414.612 385.592 354.371 393.714 287.67C395.81 270.458 385.477 253.885 378.276 237.209C367.968 213.338 388.373 191.795 390.539 183.348C392.705 174.902 389.433 154.811 389.294 153.944C381.586 150.343 366.587 148.038 366.587 148.038Z" fill="#98AA4B"/>
<path d="M382.212 276.746C382.046 276.746 381.9 276.625 381.873 276.454C380.83 269.735 376.317 260.623 372.333 252.584C368.436 244.715 364.754 237.284 364.811 233.158C364.922 224.966 371.181 202.586 371.447 201.637C371.497 201.454 371.688 201.348 371.871 201.399C372.054 201.45 372.161 201.639 372.109 201.822C372.044 202.055 365.608 225.065 365.498 233.168C365.445 237.128 369.089 244.488 372.949 252.28C376.954 260.363 381.493 269.527 382.55 276.351C382.581 276.538 382.451 276.714 382.263 276.743C382.247 276.744 382.23 276.746 382.212 276.746Z" fill="#7B8421"/>
<path d="M365.633 267.027C365.491 267.027 365.361 266.941 365.31 266.8C365.236 266.594 357.795 246.125 356.202 236.577C354.603 226.969 361.212 209.779 361.494 209.051C361.564 208.874 361.758 208.785 361.939 208.855C362.115 208.924 362.203 209.123 362.136 209.299C362.067 209.475 355.313 227.04 356.883 236.463C358.463 245.947 365.883 266.357 365.959 266.564C366.024 266.741 365.932 266.939 365.754 267.004C365.713 267.02 365.673 267.027 365.633 267.027Z" fill="#7B8421"/>
<path d="M318.906 276.746C318.888 276.746 318.872 276.744 318.854 276.741C318.666 276.713 318.538 276.537 318.567 276.349C319.626 269.526 324.164 260.362 328.168 252.279C332.03 244.487 335.674 237.127 335.62 233.168C335.509 225.065 329.074 202.053 329.01 201.822C328.957 201.639 329.065 201.45 329.248 201.399C329.43 201.352 329.62 201.455 329.671 201.637C329.938 202.586 336.195 224.966 336.308 233.158C336.364 237.284 332.683 244.716 328.784 252.584C324.803 260.623 320.287 269.736 319.246 276.454C319.218 276.625 319.073 276.746 318.906 276.746Z" fill="#7B8421"/>
<path d="M335.487 267.027C335.448 267.027 335.407 267.02 335.368 267.007C335.19 266.942 335.099 266.744 335.164 266.567C335.239 266.36 342.657 245.95 344.238 236.466C345.81 227.043 339.054 209.478 338.987 209.302C338.918 209.126 339.007 208.926 339.182 208.858C339.362 208.788 339.557 208.877 339.627 209.054C339.909 209.782 346.518 226.971 344.918 236.58C343.325 246.126 335.886 266.597 335.811 266.803C335.759 266.941 335.626 267.027 335.487 267.027Z" fill="#7B8421"/>
<path d="M323.627 221.165C323.627 221.165 332.223 231.25 350.571 229.874C368.918 228.499 375.457 221.165 375.457 221.165C375.457 221.165 377.563 231.584 377.48 235.199C377.399 238.814 348.958 250.274 322.611 237.209C320.788 233.084 323.627 221.165 323.627 221.165Z" fill="#FFCE00"/>
<path d="M221.01 505.631C221.01 505.631 221.697 512.393 221.01 516.632C220.322 520.872 220.208 524.54 220.436 526.716C220.666 528.893 223.416 528.435 227.198 528.665C230.979 528.895 266.16 528.895 271.891 528.665C277.621 528.435 273.839 519.612 261.921 518.008C250.002 516.403 238.085 508.267 235.449 503.224C232.814 498.182 221.01 505.631 221.01 505.631Z" fill="#FCB57A"/>
<path d="M261.921 518.008C254.939 517.067 247.974 513.885 242.858 510.397C236.288 514.743 229.427 517.954 221.276 513.797C221.232 514.269 221.08 516.203 221.011 516.634C220.323 520.873 220.209 524.541 220.437 526.718C220.667 528.895 223.417 528.437 227.199 528.667C230.981 528.896 266.162 528.896 271.892 528.667C277.621 528.436 273.839 519.611 261.921 518.008Z" fill="#000C37"/>
<path d="M220.336 523.702C220.314 524.882 220.351 525.904 220.436 526.717C220.666 528.894 223.416 528.436 227.198 528.665C230.979 528.895 266.16 528.895 271.891 528.665C274.814 528.548 275.247 526.194 273.402 523.704H220.336V523.702Z" fill="#4F628E"/>
<path d="M138.271 503.424C138.271 503.424 137.468 512.391 138.156 516.631C138.843 520.871 138.957 524.538 138.729 526.715C138.5 528.892 135.749 528.434 131.967 528.664C128.186 528.893 93.0048 528.893 87.2745 528.664C81.5442 528.434 85.3259 519.611 97.2445 518.006C109.163 516.401 121.08 508.266 123.716 503.223C126.351 498.182 138.271 503.424 138.271 503.424Z" fill="#FCB57A"/>
<path d="M137.881 512.323C130.678 513.511 123.278 513.988 118.297 508.954C113.102 512.973 105.181 516.938 97.2445 518.006C85.3259 519.611 81.5442 528.434 87.2745 528.664C93.0048 528.894 128.186 528.894 131.967 528.664C135.749 528.434 138.5 528.894 138.729 526.715C138.959 524.538 138.843 520.871 138.156 516.631C137.966 515.461 137.892 513.926 137.881 512.323Z" fill="#000C37"/>
<path d="M85.7632 523.702C83.9177 526.193 84.3523 528.547 87.2745 528.664C93.0049 528.894 128.186 528.894 131.967 528.664C135.749 528.434 138.5 528.894 138.729 526.715C138.814 525.903 138.852 524.882 138.83 523.701H85.7632V523.702Z" fill="#4F628E"/>
<path d="M142.164 273.181C142.164 273.181 136.221 307.585 133.682 334.075C131.142 360.565 127.329 388.002 127.101 407.065C126.871 426.127 125.177 474.711 119.899 502.446C132.516 505.025 140.355 506.828 140.355 506.828C140.355 506.828 149.676 455.671 152.213 423.022C154.627 391.938 162.37 384.572 166.92 360.895C171.472 337.219 173.958 336.371 173.958 336.371C173.958 336.371 177.887 336.938 178.674 337.448C182.89 349.789 191.269 374.164 194.597 381.73C197.925 389.297 202.252 417.761 204.679 432.805C206.997 447.174 217.215 500.872 219.057 508.577C228.708 507.493 238.21 504.326 238.21 504.326C238.21 504.326 233.558 469.537 229.956 430.238C228.06 409.544 222.833 373.691 221.056 364.667C219.28 355.643 219.273 306.522 202.155 267.606C176.329 269.505 142.164 273.181 142.164 273.181Z" fill="#000C37"/>
<path d="M167.951 172.258C167.951 172.258 153.558 174.175 139.77 177.19C139.301 186.363 135.902 197.033 136.38 207.375C137.617 234.121 139.172 283.543 134.49 299.125C166.56 312.42 214.823 301.532 214.823 301.532C214.823 301.532 213.562 238.044 214.365 212.833C213.398 202.422 213.412 180.88 213.412 180.88C213.412 180.88 187.604 172.871 183.054 172.329C178.5 171.789 167.951 172.258 167.951 172.258Z" fill="#05C19D"/>
<path d="M165.259 163.844C165.259 163.844 164.644 172 162.223 178.226C165.087 187.622 174.323 185.936 178.267 185.445C182.211 184.954 186.41 179.391 187.207 177.192C185.655 173.96 184.398 163.214 184.398 163.214L165.259 163.844Z" fill="#FCB57A"/>
<path d="M155.497 137.482C155.497 137.482 153.692 148.339 157.328 157.19C160.964 166.04 171.202 171.278 176.78 170.76C182.358 170.242 192.248 161.634 191.756 144.24C191.265 126.845 179.664 122.423 173.262 122.142C166.861 121.862 154.715 129.742 155.497 137.482Z" fill="#FFC28B"/>
<path d="M155.959 144.472C155.959 144.472 153.845 139.886 151.378 140.585C148.911 141.283 151.5 148.965 152.393 151.508C153.285 154.05 156.375 154.514 156.709 152.56C157.045 150.607 155.959 144.472 155.959 144.472Z" fill="#FFC28B"/>
<path d="M191.922 143.17C191.922 143.17 194.047 138.589 196.511 139.293C198.977 139.997 196.369 147.674 195.471 150.214C194.573 152.753 191.482 153.21 191.152 151.256C190.822 149.302 191.922 143.17 191.922 143.17Z" fill="#FFC28B"/>
<path d="M153.14 142.522C153.14 142.522 149.788 135.921 154.662 123.794C162.089 105.313 174.404 111.734 181.665 114.36C188.263 116.747 201.43 126.464 191.687 148.154C189.811 136.107 187.997 130.712 179.539 127.809C171.08 124.908 162.587 125.246 159.293 130.821C155.999 136.396 156.514 151.421 156.514 151.421L153.14 142.522Z" fill="#001551"/>
<path d="M162.649 127.596C162.649 127.596 184.572 134.143 194.316 123.947C204.062 113.75 197.83 103.243 191.798 107.26C192.101 103.088 182.675 104.807 179.277 107.724C180.05 103.707 173.782 104.69 169.544 108.341C167.227 106.332 158.889 112.295 158.947 114.985C154.775 115.757 149.904 124.651 152.07 137.625C156.628 129.74 162.649 127.596 162.649 127.596Z" fill="#001551"/>
<path d="M154.45 201.729C154.45 201.729 176.97 204.322 188.736 201.729C188.987 212.162 172.564 217.133 166.334 215.56C160.105 213.987 151.5 205.391 154.45 201.729Z" fill="#FFB600"/>
<path d="M233.429 246.958C233.429 246.958 210.634 211.594 209.627 210.839C208.621 210.084 188.736 201.727 188.736 201.727C188.736 201.727 185.716 211.343 171.085 210.336C156.455 209.329 154.45 201.727 154.45 201.727L133.557 210.003L112.329 248.13L131.937 255.634L126.676 341.373L212.189 340.823L210.388 256.804L233.429 246.958Z" fill="#FFCE00"/>
<path d="M166.028 245.92C166.028 245.92 172.824 254.321 173.957 259.417C170.842 261.589 169.521 262.532 169.521 262.532L182.451 263.004L189.247 252.338L184.623 253.564C184.623 253.564 182.026 247.76 179.761 246.249C177.497 244.74 166.028 245.92 166.028 245.92Z" fill="white"/>
<path d="M164.14 246.958C164.14 246.958 168.009 251.016 169.331 254.698C166.499 261.116 164.14 264.75 164.14 264.75L154.512 260.314C154.512 260.314 158.618 251.063 159.893 249.176C161.166 247.29 164.14 246.958 164.14 246.958Z" fill="white"/>
<path d="M196.016 278.606C196.016 278.606 185.658 281.684 180.514 280.786C179.695 277.078 179.327 275.497 179.327 275.497L173.957 287.27L181.223 297.621L181.853 292.878C181.853 292.878 188.209 292.693 190.47 291.175C192.732 289.657 196.016 278.606 196.016 278.606Z" fill="white"/>
<path d="M195.777 276.465C195.777 276.465 190.548 278.493 186.641 278.311C181.788 273.244 179.33 269.677 179.33 269.677L187.103 262.47C187.103 262.47 194.088 269.794 195.346 271.692C196.606 273.591 195.777 276.465 195.777 276.465Z" fill="white"/>
<path d="M153.086 289.951C153.086 289.951 156.642 279.748 160.376 276.098C163.863 277.6 165.361 278.225 165.361 278.225L158.944 266.987L146.298 266.836L149.779 270.12C149.779 270.12 146.214 275.386 146.125 278.107C146.038 280.827 153.086 289.951 153.086 289.951Z" fill="white"/>
<path d="M154.964 291.007C154.964 291.007 156.373 285.58 158.805 282.516C165.753 281.538 170.084 281.627 170.084 281.627L171.391 292.147C171.391 292.147 161.366 293.535 159.09 293.447C156.813 293.36 154.964 291.007 154.964 291.007Z" fill="white"/>
<path d="M169.331 228.01C169.331 228.01 171.515 228.14 173.683 226.314C175.852 224.488 179.635 219.206 181.005 217.51C182.374 215.815 182.7 215.489 183.613 216.466C184.526 217.444 183.418 220.053 181.982 222.662C180.548 225.27 183.678 223.575 186.938 222.4C190.199 221.226 196.068 220.746 197.634 221.508C199.199 222.27 197.83 223.573 196.07 223.704C194.308 223.835 188.132 225.009 185.221 227.095C193.917 225.138 198.873 225.008 200.895 225.921C202.916 226.834 200.895 228.477 198.482 228.503C196.068 228.529 190.134 228.791 187.069 230.42C193.917 229.833 197.96 231.464 199.069 232.768C200.177 234.071 198.091 234.92 196.852 234.463C195.613 234.007 189.678 233.158 186.287 234.268C191.635 234.725 195.221 236.812 195.678 238.051C196.134 239.29 194.503 239.485 193.004 239.029C191.504 238.572 188.505 236.551 183.418 237.529C178.331 238.506 171.875 237.267 171.875 237.267L169.331 228.01Z" fill="#FCB57A"/>
<path d="M139.77 177.192C139.77 177.192 133.685 181.345 125.341 193.86C116.997 206.375 102.859 236.041 102.396 242.761C101.932 249.481 104.019 261.302 131.598 252.494C151.779 246.05 175.072 239.979 175.072 239.979L171.084 225.456C171.084 225.456 131.598 233.49 127.89 233.259C124.181 233.026 133.311 217.811 139.998 205.959C146.684 194.106 139.77 177.192 139.77 177.192Z" fill="#05C19D"/>
<path d="M192.952 269.809C192.952 269.809 191.079 270.939 188.309 270.332C185.54 269.724 179.735 266.806 177.734 265.941C175.734 265.076 175.294 264.94 174.94 266.229C174.587 267.521 176.781 269.314 179.265 270.957C181.749 272.599 178.188 272.554 174.756 273.031C171.323 273.508 165.904 275.812 164.872 277.214C163.841 278.617 165.66 279.134 167.279 278.431C168.899 277.729 174.913 275.896 178.461 276.389C169.852 278.701 165.403 280.89 164.038 282.638C162.672 284.386 165.227 284.901 167.375 283.803C169.523 282.704 174.899 280.175 178.371 280.194C172.036 282.858 169.214 286.182 168.838 287.853C168.463 289.523 170.705 289.303 171.59 288.323C172.474 287.342 177.334 283.833 180.853 283.238C176.332 286.128 174.126 289.643 174.298 290.954C174.47 292.263 176.004 291.678 177.12 290.577C178.235 289.475 179.951 286.29 184.91 284.792C189.869 283.293 195.008 279.193 195.008 279.193L192.952 269.809Z" fill="#FCB57A"/>
<path d="M213.41 180.881C213.41 180.881 219.373 184.744 227.716 197.259C236.059 209.775 250.197 239.44 250.661 246.16C251.124 252.881 250.684 262.037 223.532 272.426C203.744 279.996 193.711 282.469 193.711 282.469L187.205 268.811C187.205 268.811 225.389 249.774 227.084 246.468C229.401 241.95 213.544 220.639 206.858 208.786C200.17 196.933 213.41 180.881 213.41 180.881Z" fill="#05C19D"/>
<path d="M138.321 208.556C138.297 208.556 138.275 208.552 138.253 208.543C138.165 208.505 138.125 208.404 138.164 208.317C145.51 191.173 140.291 178.556 140.238 178.431C140.201 178.343 140.24 178.242 140.327 178.205C140.414 178.168 140.515 178.208 140.553 178.294C140.608 178.421 145.887 191.165 138.479 208.452C138.451 208.518 138.387 208.556 138.321 208.556Z" fill="#004437"/>
<path d="M208.894 211.96C208.827 211.96 208.764 211.92 208.736 211.854C202.773 197.682 211.66 182.85 211.751 182.703C211.8 182.621 211.907 182.596 211.986 182.646C212.067 182.695 212.093 182.801 212.043 182.882C211.954 183.029 203.16 197.713 209.054 211.722C209.091 211.809 209.05 211.91 208.962 211.948C208.94 211.956 208.916 211.96 208.894 211.96Z" fill="#004437"/>
<path d="M141.683 183.244C141.605 183.244 141.534 183.191 141.515 183.112C141.493 183.02 141.551 182.926 141.643 182.905L162.183 178.061C162.278 178.037 162.368 178.095 162.389 178.189C162.411 178.281 162.353 178.374 162.261 178.395L141.723 183.24C141.709 183.242 141.695 183.244 141.683 183.244Z" fill="#004437"/>
<path d="M210.583 185.547C210.568 185.547 210.551 185.546 210.535 185.54L190.672 179.847C190.581 179.821 190.529 179.726 190.555 179.634C190.581 179.543 190.673 179.487 190.768 179.517L210.631 185.21C210.722 185.236 210.774 185.331 210.748 185.423C210.726 185.498 210.657 185.547 210.583 185.547Z" fill="#004437"/>
<path d="M228.541 423.48L198.711 537.97C197.966 540.455 199.828 542.955 202.421 542.955C204.062 542.955 205.525 541.921 206.072 540.375L239.57 430.833L228.541 423.48Z" fill="#EFA065"/>
<path d="M242.806 432.597L224.948 533.737C224.45 536.141 226.286 538.396 228.741 538.396H228.919C230.688 538.396 232.231 537.198 232.671 535.486L254.276 436.42L242.806 432.597Z" fill="#EFA065"/>
<path d="M292.07 423.48L321.9 537.97C322.644 540.455 320.783 542.955 318.19 542.955C316.549 542.955 315.086 541.921 314.539 540.375L281.04 430.833L292.07 423.48Z" fill="#EFA065"/>
<path d="M277.805 432.597L295.641 533.629C296.15 536.088 294.273 538.396 291.761 538.396C289.952 538.396 288.372 537.171 287.922 535.419L266.334 436.42L277.805 432.597Z" fill="#EFA065"/>
<path d="M271.027 378.742C271.027 378.742 270.122 315.753 238.371 306.683C206.621 297.614 186.984 319.08 181.978 347.675C176.973 376.271 192.601 438.527 255.012 440.209C317.423 441.891 325.209 415.479 323.772 410.912C322.335 406.345 271.027 378.742 271.027 378.742Z" fill="#001551"/>
<path d="M271.027 378.742C271.027 378.742 270.122 315.753 238.371 306.683C235.648 305.906 233.022 305.368 230.479 305.024C208.952 304.873 195.566 322.251 191.71 344.276C187.152 370.321 199.833 418.688 256.68 420.219C300.468 421.399 316.277 415.743 319.923 407.347C307.745 398.496 271.027 378.742 271.027 378.742Z" fill="#000C37"/>
<path d="M237.642 300.114C237.642 300.114 250.107 301.879 238.212 295.345C219.036 284.812 220.451 260.261 223.03 245.481C225.233 232.849 230.625 226.112 235.864 224.064C242.736 221.38 243.034 222.864 253.055 219.253C266.994 214.229 272.5 230.922 278.496 239.186C284.491 247.45 288.98 244.908 291.732 248.446C294.756 252.335 294.486 257.265 291.732 266.34C288.977 275.414 289.916 279.609 297.37 280.905C304.823 282.202 308.857 288.414 304.968 296.354C301.079 304.294 311.34 300.717 314.906 304.12C318.47 307.522 323.198 312.752 322.551 320.043C321.903 327.335 320.119 334.086 301.323 339.299C282.526 344.511 268.267 343.377 268.267 343.377L237.642 300.114Z" fill="#001551"/>
<path d="M376.038 291.537C373.839 292.006 369.281 295.265 364.864 297.929C365.438 297.381 373.833 291.045 374.401 290.028C375.224 288.554 374.484 287.288 371.607 289.253C369.253 290.862 362.466 296.221 362.466 296.221C362.466 296.221 364.738 292.868 369.535 289.579C371.38 288.312 370.366 286.403 368.456 287.817C363.708 290.297 357.312 297.599 357.312 297.599C357.312 297.599 356.858 295.555 357.444 293.481C358.03 291.406 357.04 289.528 355.83 290.665C354.619 291.802 353.273 297.214 352.203 299.524C351.195 301.698 349.777 304.38 349.614 304.689C348.324 305.989 333.109 321.183 318.22 329.886C316.691 330.427 314.426 330.955 313.098 329.987C310.957 328.427 295.749 316.125 295.409 315.744L286.139 327.095C286.139 327.095 304.303 342.604 312.198 346.471C312.823 346.846 313.518 347.123 314.283 347.266H314.286C314.317 347.271 314.35 347.274 314.382 347.279C320.374 348.483 325.484 342.197 325.484 342.197L325.482 342.195C335.194 333.766 348.833 316.984 351.072 315.029C353.849 312.602 355.597 311.572 355.597 311.572C355.597 311.572 358.801 310.247 361.78 308.787C364.757 307.327 366.889 302.567 374.437 300.899C376.966 300.341 375.896 298.693 375.006 298.729C372.396 298.834 369.789 299.455 366.88 301.038C369.609 298.531 376.845 294.685 377.362 293.263C377.875 291.845 376.912 291.35 376.038 291.537Z" fill="#FCB57A"/>
<path d="M297.371 315.853C297.371 315.853 282.365 298.926 279.449 296.225C276.532 293.524 267.025 290.528 261.516 290.352C256.008 290.176 233.43 291.471 233.43 291.471C233.43 291.471 227.759 292.497 221.278 298.979C214.797 305.46 206.094 324.874 206.094 324.874L222.818 335.284L224.593 333.247L235.365 372.595H274.27L280.608 326.671L285.37 330.073L297.371 315.853Z" fill="#009377"/>
<path d="M248.612 337.357C241.959 337.357 235.435 333.851 235.331 333.793C235.247 333.748 235.216 333.644 235.262 333.561C235.309 333.474 235.413 333.446 235.496 333.492C235.661 333.581 252.114 342.424 259.162 331.752C259.216 331.672 259.323 331.655 259.4 331.704C259.48 331.756 259.502 331.864 259.45 331.943C256.724 336.07 252.644 337.357 248.612 337.357Z" fill="#004437"/>
<path d="M271.788 336.501C268.314 336.501 265.192 334.706 265.151 334.681C265.07 334.635 265.042 334.529 265.089 334.446C265.137 334.364 265.243 334.336 265.324 334.386C265.379 334.416 270.74 337.5 275.113 335.468C277.842 334.203 279.634 331.232 280.439 326.641C280.455 326.549 280.539 326.491 280.638 326.5C280.732 326.517 280.795 326.605 280.778 326.7C279.953 331.41 278.096 334.464 275.257 335.78C274.127 336.304 272.937 336.501 271.788 336.501Z" fill="#004437"/>
<path d="M226.818 329.174C226.802 329.174 226.785 329.171 226.769 329.167C226.678 329.139 226.626 329.043 226.655 328.952C230.878 314.932 221.506 302.691 221.411 302.568C221.353 302.493 221.366 302.385 221.441 302.326C221.514 302.269 221.623 302.281 221.682 302.355C221.778 302.479 231.257 314.862 226.983 329.05C226.961 329.126 226.893 329.174 226.818 329.174Z" fill="#004437"/>
<path d="M259.247 239.187C259.247 239.187 264.865 242.86 263.784 251.61C263.136 257.66 264.492 262.953 263.922 266.842C263.351 270.731 257.41 273.755 256.006 274.188C256.222 279.589 256.87 288.231 256.87 288.231L269.4 291.579C269.4 291.579 287.202 314.051 263.22 315.671C239.239 317.291 233.429 291.471 233.429 291.471L240.775 288.986L241.45 263.411C239.074 263.086 237.074 261.278 237.074 257.821C237.074 254.363 239.829 254.134 240.153 255.43C241.765 256.151 242.796 254.303 242.796 254.303C242.796 254.303 254.036 247.371 259.247 239.187Z" fill="#FCB57A"/>
<path d="M241.348 267.258L240.163 263.259C236.373 263.702 234.361 262.013 234.361 256.383C234.361 252.926 239.829 254.135 240.153 255.432C240.82 254.692 242.367 253.574 242.367 253.574C242.367 253.574 254.036 247.371 259.247 239.187C259.247 239.187 264.865 242.86 263.784 251.61C263.136 257.66 264.492 262.953 263.922 266.842C263.351 270.731 258.634 276.677 257.23 277.109C257.23 277.109 254.763 278.415 251.954 277.496C249.323 276.636 243.597 271.451 241.348 267.258Z" fill="#FFC28B"/>
<path d="M237.67 261.234C237.67 261.77 238.104 262.206 238.642 262.206C239.178 262.206 239.614 261.77 239.614 261.234C239.614 260.697 239.178 260.261 238.642 260.261C238.104 260.261 237.67 260.697 237.67 261.234Z" fill="#000C37"/>
<path d="M324.264 508.325C324.264 508.325 325.965 513.768 326.985 516.716C328.006 519.665 326.419 524.2 328.233 530.097C330.047 535.993 330.274 539.396 330.274 539.396H334.242C334.242 539.396 333.788 531.119 334.242 526.696C338.665 535.541 343.371 540.984 347.793 543.364C352.216 545.745 368.714 548.127 370.754 546.596C372.795 545.065 358.167 531.629 351.023 524.824C343.879 518.021 334.978 505.037 334.978 505.037L324.264 508.325Z" fill="#FFC28B"/>
<path d="M360.797 534.154C358.438 537.853 353.583 540.108 348.303 538.601C336.752 534.75 337.302 520.011 327.124 517.207C327.841 520.158 324.248 521.187 325.964 526.766C327.778 532.663 330.272 539.394 330.272 539.394H334.241C334.241 539.394 333.787 531.117 334.241 526.695C338.663 535.54 343.369 540.983 347.792 543.363C352.214 545.743 368.712 548.125 370.753 546.595C372.041 545.631 366.706 539.936 360.797 534.154Z" fill="#000C37"/>
<path d="M234.211 368.894C234.211 368.894 267.298 370.066 275.228 366.994C294.555 377.358 314.738 402.077 314.738 419.767C314.738 437.456 336.906 504.981 336.906 504.981L322.611 510.026C322.611 510.026 289.452 450.495 291.492 424.982C271.423 402.87 234.211 368.894 234.211 368.894Z" fill="#432D91"/>
<path d="M313.832 489.162C313.832 489.162 311.894 494.525 310.923 497.49C309.953 500.455 305.945 503.108 303.823 508.9C301.702 514.693 299.825 517.539 299.825 517.539L302.985 519.94C302.985 519.94 307.63 513.074 310.666 509.827C308.839 519.545 309.294 526.725 311.376 531.296C313.458 535.867 325.155 547.743 327.707 547.758C330.258 547.773 326.737 528.225 325.163 518.488C323.589 508.749 324.353 493.025 324.353 493.025L313.832 489.162Z" fill="#FFC28B"/>
<path d="M327.303 531.827C323.189 533.346 320.865 533.129 317.574 528.735C310.703 518.683 317.147 506.353 310.739 497.964C309.526 500.748 306.04 499.393 304.034 504.876C301.912 510.67 299.827 517.539 299.827 517.539L302.987 519.94C302.987 519.94 307.633 513.073 310.669 509.827C308.841 519.545 309.297 526.725 311.379 531.296C313.461 535.867 325.158 547.743 327.71 547.758C329.316 547.766 328.512 540.006 327.303 531.827Z" fill="#000C37"/>
<path d="M234.211 368.894C234.211 368.894 223.193 383.141 234.211 403.211C245.229 423.282 314.738 416.562 314.738 416.562L312.64 490.695L326.107 493.784C326.107 493.784 338.778 412.964 337.871 401.171C336.964 389.377 244.852 370.183 234.211 368.894Z" fill="#533999"/>
<path d="M373.965 280.137L331.645 261.689L314.331 269.43L258.017 398.618L324.144 427.443L379.799 299.766L373.965 280.137ZM348.09 284.704C346.188 283.874 345.318 281.66 346.147 279.757C346.976 277.854 349.192 276.985 351.093 277.814C352.997 278.643 353.866 280.857 353.037 282.761C352.206 284.664 349.992 285.533 348.09 284.704Z" fill="white"/>
<path d="M334.189 372.124C334.099 372.124 334.008 372.107 333.922 372.071L292.14 354.423C291.789 354.276 291.626 353.872 291.773 353.523C291.921 353.171 292.326 353.012 292.674 353.155L334.455 370.803C334.806 370.95 334.97 371.354 334.822 371.704C334.711 371.968 334.455 372.124 334.189 372.124Z" fill="#D6CBC4"/>
<path d="M329.282 382.107C329.193 382.107 329.102 382.089 329.015 382.053L287.233 364.406C286.883 364.258 286.719 363.854 286.866 363.505C287.015 363.153 287.42 362.993 287.767 363.138L329.549 380.785C329.899 380.934 330.063 381.337 329.916 381.686C329.805 381.95 329.55 382.107 329.282 382.107Z" fill="#D6CBC4"/>
<path d="M324.377 392.088C324.287 392.088 324.197 392.07 324.11 392.034L282.328 374.387C281.978 374.239 281.814 373.835 281.961 373.486C282.11 373.134 282.515 372.974 282.862 373.119L324.644 390.766C324.994 390.913 325.158 391.318 325.011 391.667C324.899 391.93 324.644 392.088 324.377 392.088Z" fill="#D6CBC4"/>
<path d="M319.47 402.069C319.381 402.069 319.29 402.051 319.203 402.015L277.422 384.368C277.071 384.22 276.907 383.816 277.054 383.467C277.203 383.115 277.609 382.957 277.955 383.1L319.737 400.747C320.088 400.896 320.251 401.299 320.104 401.648C319.993 401.912 319.737 402.069 319.47 402.069Z" fill="#D6CBC4"/>
<path d="M371.112 283.285L370.807 282.117L369.698 281.634L369.972 281.003L371.387 281.619L371.779 283.111L371.112 283.285Z" fill="#D6CBC4"/>
<path d="M367.316 280.595L364.935 279.556L365.208 278.925L367.59 279.963L367.316 280.595ZM362.551 278.518L360.168 277.48L360.442 276.849L362.824 277.887L362.551 278.518ZM357.786 276.442L355.403 275.402L355.677 274.771L358.06 275.81L357.786 276.442ZM353.02 274.364L350.638 273.325L350.912 272.694L353.294 273.733L353.02 274.364ZM348.255 272.286L345.873 271.248L346.147 270.616L348.529 271.655L348.255 272.286ZM343.49 270.211L341.108 269.171L341.382 268.54L343.764 269.58L343.49 270.211ZM338.727 268.133L336.343 267.093L336.617 266.462L338.999 267.502L338.727 268.133Z" fill="#D6CBC4"/>
<path d="M331.75 266.1L331.451 265.483L332.83 264.812L334.235 265.425L333.959 266.056L332.845 265.57L331.75 266.1Z" fill="#D6CBC4"/>
<path d="M264.48 393.958L263.85 393.684L264.948 391.168L265.577 391.441L264.48 393.958ZM266.675 388.925L266.045 388.651L267.141 386.135L267.771 386.408L266.675 388.925ZM268.868 383.892L268.238 383.618L269.336 381.102L269.965 381.375L268.868 383.892ZM271.062 378.857L270.432 378.584L271.529 376.067L272.159 376.341L271.062 378.857ZM273.256 373.824L272.625 373.55L273.722 371.034L274.354 371.308L273.256 373.824ZM275.451 368.791L274.82 368.517L275.916 366.001L276.547 366.274L275.451 368.791ZM277.644 363.759L277.013 363.486L278.111 360.969L278.742 361.243L277.644 363.759ZM279.838 358.726L279.207 358.452L280.304 355.936L280.935 356.21L279.838 358.726ZM282.033 353.693L281.401 353.419L282.497 350.903L283.129 351.177L282.033 353.693ZM284.226 348.659L283.595 348.385L284.692 345.868L285.323 346.142L284.226 348.659ZM286.419 343.625L285.788 343.352L286.886 340.835L287.517 341.109L286.419 343.625ZM288.614 338.592L287.983 338.319L289.079 335.802L289.71 336.076L288.614 338.592ZM290.808 333.561L290.176 333.287L291.274 330.77L291.905 331.044L290.808 333.561ZM293.002 328.528L292.371 328.254L293.468 325.737L294.1 326.011L293.002 328.528ZM295.196 323.494L294.564 323.221L295.662 320.704L296.293 320.978L295.196 323.494ZM297.389 318.461L296.758 318.188L297.855 315.671L298.486 315.945L297.389 318.461ZM299.584 313.427L298.953 313.153L300.05 310.637L300.681 310.91L299.584 313.427ZM301.777 308.394L301.146 308.12L302.243 305.603L302.875 305.877L301.777 308.394ZM303.971 303.361L303.339 303.087L304.437 300.572L305.068 300.845L303.971 303.361ZM306.165 298.329L305.534 298.055L306.632 295.539L307.263 295.812L306.165 298.329ZM308.36 293.296L307.729 293.022L308.826 290.506L309.458 290.779L308.36 293.296ZM310.552 288.263L309.921 287.989L311.018 285.472L311.65 285.746L310.552 288.263ZM312.747 283.228L312.116 282.954L313.213 280.438L313.844 280.712L312.747 283.228ZM314.942 278.195L314.311 277.921L315.408 275.405L316.039 275.678L314.942 278.195ZM316.995 273.277L316.863 273.008L316.505 272.883L316.556 272.77L316.694 272.66L319.107 271.486L319.408 272.103L316.995 273.277ZM321.877 270.902L321.576 270.285L324.044 269.085L324.345 269.702L321.877 270.902ZM326.815 268.501L326.514 267.884L328.982 266.683L329.283 267.301L326.815 268.501Z" fill="#D6CBC4"/>
<path d="M263.641 398.463L262.067 397.775L262.753 396.201L263.383 396.474L262.971 397.422L263.916 397.832L263.641 398.463Z" fill="#D6CBC4"/>
<path d="M318.41 422.339L315.919 421.254L316.193 420.623L318.684 421.708L318.41 422.339ZM313.432 420.167L310.943 419.082L311.216 418.451L313.707 419.536L313.432 420.167ZM308.452 417.997L305.962 416.911L306.236 416.28L308.726 417.366L308.452 417.997ZM303.473 415.826L300.984 414.741L301.257 414.11L303.746 415.195L303.473 415.826ZM298.495 413.656L296.004 412.571L296.278 411.94L298.768 413.025L298.495 413.656ZM293.515 411.486L291.026 410.401L291.3 409.77L293.788 410.855L293.515 411.486ZM288.537 409.316L286.047 408.231L286.32 407.6L288.811 408.685L288.537 409.316ZM283.556 407.146L281.067 406.061L281.341 405.43L283.829 406.515L283.556 407.146ZM278.578 404.974L276.088 403.889L276.361 403.258L278.852 404.343L278.578 404.974ZM273.599 402.804L271.108 401.719L271.383 401.088L273.872 402.173L273.599 402.804ZM268.621 400.633L266.13 399.548L266.405 398.917L268.896 400.002L268.621 400.633Z" fill="#D6CBC4"/>
<path d="M322.475 424.11L320.9 423.424L321.174 422.793L322.121 423.205L322.531 422.259L323.162 422.533L322.475 424.11Z" fill="#D6CBC4"/>
<path d="M324.258 420.019L323.627 419.745L324.723 417.231L325.355 417.505L324.258 420.019ZM326.451 414.99L325.819 414.716L326.917 412.202L327.548 412.476L326.451 414.99ZM328.644 409.962L328.013 409.689L329.109 407.173L329.74 407.447L328.644 409.962ZM330.835 404.932L330.203 404.658L331.299 402.143L331.931 402.417L330.835 404.932ZM333.027 399.903L332.395 399.629L333.493 397.115L334.124 397.389L333.027 399.903ZM335.22 394.874L334.589 394.6L335.685 392.086L336.316 392.36L335.22 394.874ZM337.412 389.846L336.781 389.573L337.877 387.057L338.508 387.331L337.412 389.846ZM339.603 384.816L338.971 384.542L340.069 382.027L340.7 382.301L339.603 384.816ZM341.796 379.787L341.165 379.513L342.261 376.999L342.892 377.273L341.796 379.787ZM343.988 374.758L343.357 374.484L344.453 371.97L345.084 372.244L343.988 374.758ZM346.181 369.73L345.55 369.457L346.646 366.941L347.277 367.215L346.181 369.73ZM348.372 364.701L347.741 364.428L348.837 361.912L349.468 362.186L348.372 364.701ZM350.564 359.671L349.933 359.397L351.029 356.883L351.66 357.157L350.564 359.671ZM352.757 354.642L352.126 354.368L353.222 351.854L353.853 352.128L352.757 354.642ZM354.948 349.614L354.317 349.341L355.413 346.825L356.044 347.099L354.948 349.614ZM357.14 344.585L356.509 344.312L357.605 341.798L358.236 342.072L357.14 344.585ZM359.333 339.555L358.702 339.281L359.798 336.767L360.429 337.041L359.333 339.555ZM361.525 334.526L360.894 334.252L361.99 331.738L362.622 332.012L361.525 334.526ZM363.716 329.498L363.085 329.225L364.181 326.71L364.812 326.983L363.716 329.498ZM365.91 324.469L365.278 324.196L366.374 321.682L367.006 321.956L365.91 324.469ZM368.102 319.44L367.47 319.167L368.566 316.653L369.198 316.927L368.102 319.44ZM370.294 314.41L369.662 314.136L370.76 311.623L371.391 311.896L370.294 314.41ZM372.487 309.382L371.856 309.109L372.952 306.594L373.583 306.867L372.487 309.382ZM374.678 304.353L374.046 304.08L375.142 301.566L375.774 301.84L374.678 304.353ZM375.295 299.203L374.598 296.551L375.263 296.376L375.961 299.029L375.295 299.203ZM373.902 293.897L373.205 291.244L373.87 291.069L374.568 293.722L373.902 293.897ZM372.508 288.591L371.81 285.939L372.476 285.764L373.173 288.417L372.508 288.591Z" fill="#D6CBC4"/>
<path d="M313.972 348.704C313.972 348.704 311.914 335.38 327.045 330.695C342.177 326.009 347.64 323.977 350.484 319.33C340.743 344.677 334.31 353.808 315.691 350.761C330.907 343.987 342.18 328.626 342.18 328.626C342.18 328.626 324.523 347.007 313.972 348.704Z" fill="#006B56"/>
<path d="M317.693 331.85C317.693 331.85 327.826 329.339 326.951 317.195C326.075 305.049 326.004 300.562 328.541 297.157C313.088 311.635 308.34 318.927 315.737 331.242C316.336 318.414 324.197 305.826 324.197 305.826C324.197 305.826 315.957 323.85 317.693 331.85Z" fill="#006B56"/>
<path d="M330.654 320.135C330.654 320.135 328.673 309.886 340.061 305.573C351.448 301.262 355.55 299.44 357.573 295.706C350.934 315.814 346.313 323.189 332.03 321.654C343.416 315.718 351.532 303.293 351.532 303.293C351.532 303.293 338.643 318.347 330.654 320.135Z" fill="#006B56"/>
<path d="M278.751 394.962C277.434 393.14 272.611 390.288 268.391 387.323C269.123 387.627 278.311 392.746 279.471 392.855C281.151 393.012 282.011 391.822 279.051 389.985C276.63 388.482 268.984 384.438 268.984 384.438C268.984 384.438 272.967 385.162 277.915 388.221C279.819 389.398 281.157 387.7 279.09 386.522C274.902 383.181 265.641 380.281 265.641 380.281C265.641 380.281 267.327 379.04 269.461 378.738C271.595 378.435 272.914 376.771 271.385 376.122C269.855 375.474 264.362 376.429 261.815 376.383C259.419 376.341 256.393 376.126 256.043 376.1C254.333 375.445 234.288 367.665 220.311 357.561C219.2 356.382 217.801 354.522 218.149 352.916C218.71 350.328 222.396 335.64 222.606 335.175L209.862 327.221C209.862 327.221 203.053 349.969 202.705 358.752C202.613 359.474 202.641 360.222 202.819 360.98V360.981V360.983C202.826 361.014 202.838 361.045 202.845 361.076C204.165 367.045 211.98 369.179 211.98 369.179L211.982 369.177C223.617 374.656 244.477 380.353 247.171 381.612C250.514 383.173 252.161 384.355 252.161 384.355C252.161 384.355 254.667 386.751 257.205 388.885C259.744 391.019 264.959 391.045 269.534 397.278C271.067 399.365 272.141 397.72 271.749 396.921C270.599 394.575 268.977 392.441 266.354 390.421C269.75 391.905 276.192 396.97 277.701 396.868C279.211 396.767 279.275 395.687 278.751 394.962Z" fill="#FCB57A"/>
</svg>
