<svg width="246" height="201" viewBox="0 0 246 201" fill="none" xmlns="http://www.w3.org/2000/svg">
<g id="Group">
<path id="Highlights" fill-rule="evenodd" clip-rule="evenodd" d="M21.7732 135.695C22.396 135.575 22.9991 135.979 23.1203 136.598C25.3591 148.037 34.8289 155.782 51.7623 159.831C68.7963 163.905 80.3991 163.685 86.5126 159.337C87.0287 158.97 86.6439 162.113 86.2659 162.354C82.2785 164.897 68.7217 168.692 52.5436 165.262C31.8583 160.877 22.1458 143.579 20.8651 137.035C20.7439 136.415 21.1505 135.816 21.7732 135.695Z" fill="#C76B98"/>
<path id="Highlights_2" fill-rule="evenodd" clip-rule="evenodd" d="M13.1527 115.056C13.7033 114.743 34.2486 138.161 62.4436 143.462C90.6386 148.763 97.4651 145.391 98.5625 138.161C98.6572 137.537 99.2425 137.108 99.8698 137.202C100.497 137.296 100.929 137.878 100.834 138.502C99.4435 147.665 86.3971 149.845 62.0571 145.714C38.0228 141.635 21.5449 131.944 12.7261 116.615C12.411 116.068 12.602 115.37 13.1527 115.056Z" fill="#C76B98"/>
<path id="Stroke" fill-rule="evenodd" clip-rule="evenodd" d="M131.494 113.758C130.723 113.492 129.893 112.902 129.359 112.224L128.469 111.132L131.613 108.035C136.448 103.314 140.156 98.4761 143.36 92.7233C144.428 90.8057 147.127 84.4039 147.127 83.7843C147.127 83.5778 147.453 82.7518 147.839 81.8962C148.432 80.6572 148.877 80.1852 150.153 79.4771C151.665 78.5921 153.386 78.2971 154.127 78.7986C155.551 79.7426 155.551 82.7223 154.127 87.8555C152.555 93.4903 150.449 97.532 146.089 103.344C145.406 104.229 144.131 105.969 143.211 107.179C140.749 110.424 139.147 111.988 136.982 113.197C134.846 114.377 133.6 114.525 131.494 113.758ZM152.79 111.103L154.926 112.047C155.369 112.25 160.255 114.585 166.123 117.389C175.585 121.911 187.601 127.653 187.674 127.653C187.793 127.653 188.35 126.373 188.475 124.88C188.772 121.664 189.869 117.298 191.145 114.259C191.738 112.902 192.213 111.206 192.213 111.059C192.213 110.991 191.731 110.798 190.941 110.481C190.001 110.104 188.626 109.553 187.111 108.831C179.636 105.261 165.012 97.9746 163.202 96.883C161.422 95.8504 161.066 95.7619 161.066 96.4405C161.066 97.3255 159.257 101.426 157.863 103.639C157.121 104.848 155.668 107.032 154.629 108.477L152.79 111.103ZM187.17 122.343C188.021 122.833 186.547 123.552 186.191 123.67C184.095 123.847 181.628 123.455 179.606 122.284C178.549 121.538 170.225 116.939 164.704 113.888C162.179 112.494 160.241 111.423 159.85 111.191C158.604 110.454 157.418 109.657 157.21 109.421C156.587 108.625 157.18 108.271 158.93 108.418C159.983 108.507 185.333 121.284 187.17 122.343ZM66.5935 199.578C68.8818 199.08 72.4337 197.589 74.6955 196.64L74.6971 196.639C75.2494 196.407 75.7247 196.208 76.0858 196.063C77.9255 195.325 83.5313 187.452 85.5484 178.573C87.0019 172.023 87.7435 162.701 86.9129 161.137C86.4121 160.232 89.3875 163.27 91.6031 165.532L91.6042 165.533L91.6092 165.538L91.611 165.54C92.2794 166.223 92.8782 166.834 93.2906 167.244C106.224 180.018 125.475 190.285 145.468 195.093C155.435 197.512 162.525 198.368 172.047 198.368C188.035 198.368 200.642 195.241 212.092 188.367C212.636 188.041 213.146 187.74 213.632 187.454C217.623 185.104 220.001 183.704 226.509 176.419C233.809 168.247 240.302 149.278 242.468 142.728C243.417 139.778 245.73 128.044 245.73 125.116C245.73 121.649 244.514 120.012 242.853 118.331C239.916 115.469 235.942 114.436 232.649 115.675L231.106 116.265L230.632 114.702C229.95 112.342 228.526 110.454 226.331 109.038C223.068 106.884 222.593 106.736 219.656 106.736C217.372 106.736 216.749 106.854 215.296 107.533L213.605 108.3L213.249 107.238C212.567 105.055 210.278 102.012 208.503 101.131C206.928 100.35 204.203 100.279 202.303 100.63C198.15 101.397 195.184 103.314 193.968 105.999C193.612 106.825 193.167 107.474 192.989 107.474C192.841 107.474 186.997 105.851 180.026 102.783C178.85 102.264 177.746 101.777 176.709 101.319C164.191 95.8012 161.477 94.6052 161.724 93.1068C161.932 91.8382 161.872 91.1302 161.516 90.0386C160.893 88.2095 160.181 87.708 158.164 87.708C157.198 87.708 156.815 87.708 156.702 87.5332C156.627 87.4182 156.67 87.2275 156.74 86.9115C157.69 82.3978 157.66 79.8016 156.651 78.1495C155.969 77.058 155.168 76.6155 153.329 76.35C152.261 76.2024 151.757 76.291 150.57 76.94C149.77 77.353 149.087 77.648 149.028 77.589C148.969 77.53 149.176 75.9074 149.503 73.9898C151.935 59.7996 150.056 47.5734 143.856 34.5927C143.797 34.4685 143.728 34.3216 143.649 34.1535C141.765 30.1293 134.186 13.9475 112.512 5.78244C111.531 5.41286 110.603 5.0555 109.711 4.71206C102.328 1.86995 97.42 -0.0194559 85.5781 0.000151165C72.3051 0.0221276 67.8097 1.88825 59.059 5.87094C57.8428 6.43147 56.775 6.75599 56.686 6.63798C56.597 6.49047 56.0334 6.13646 55.4698 5.84144C54.9062 5.54643 53.69 4.80889 52.8001 4.21886C50.249 2.50778 48.6769 1.79974 47.876 1.97675C46.9564 2.21276 46.9564 2.9798 47.876 3.33382C48.2616 3.48132 48.7065 3.98285 48.8845 4.48437C49.2701 5.54643 49.7151 5.66443 49.9821 4.77939C50.1007 4.45487 50.2787 4.21886 50.3677 4.27786C50.4014 4.29464 50.5143 4.34721 50.6866 4.42742L50.6868 4.42748L50.6869 4.42753C51.1205 4.62941 51.9299 5.00626 52.8001 5.42842C54.0163 6.01845 55.3511 6.63798 55.7071 6.78549C56.3597 7.0215 56.152 7.19851 53.334 8.85059C42.3289 15.2819 33.3706 25.2829 28.3575 36.6705C27.5862 38.3816 26.904 39.4436 26.1921 40.0336C24.3826 41.5382 20.823 45.8159 19.9924 47.4975C19.5475 48.4121 18.5982 49.8281 17.8567 50.6542C17.1447 51.4802 16.3735 52.5423 16.1065 52.9848C15.8692 53.4568 15.6319 53.7813 15.5429 53.7223C15.4836 53.6338 15.5726 52.1883 15.7802 50.5067C16.2252 46.583 16.2252 45.5504 15.8692 45.4619C15.3353 45.3144 14.564 47.3795 14.2377 49.9461C14.0004 51.5097 13.9411 53.8698 14.0894 56.289L14.2674 60.1241L12.1613 56.7315C11.4358 55.5951 10.7215 54.4587 10.2148 53.6528L10.2142 53.6518C9.89246 53.14 9.65459 52.7617 9.55092 52.6013C8.77968 51.4802 8.33472 49.7986 8.66102 49.2381C8.839 48.9136 8.80934 48.7661 8.5127 48.7661C7.88977 48.7661 6.67358 50.7427 5.87267 53.0143C5.48704 54.0763 5.10142 54.9614 4.98277 54.9614C4.53782 54.9614 4.74546 44.3999 5.22007 41.0072C6.19896 34.3104 8.77968 26.0499 9.93655 26.0499C10.1739 26.0499 10.3815 25.9319 10.3815 25.7549C10.3815 25.2239 9.61025 25.4304 8.98732 26.109C7.59314 27.6135 5.75401 32.2453 4.59714 37.172C3.79623 40.5647 3.29196 44.9309 3.11398 49.6806C2.96566 53.7813 3.02499 54.4599 3.61825 56.702C4.30051 59.2096 4.83445 59.9471 5.75401 59.5931C6.08031 59.4751 6.22863 59.0326 6.22863 58.2066C6.22863 57.5575 6.58459 55.6104 7.02954 53.8698L7.80078 50.7427L8.12708 52.0407C8.54237 53.5453 10.9748 58.2066 13.1699 61.5992C14.6827 63.9003 14.7123 64.0478 15.2166 67.647C15.4836 69.6826 16.3142 74.6339 18.2423 82.2503C19.9459 88.9798 29.5232 95.6555 31.9145 97.3223C32.2296 97.542 32.4199 97.6747 32.451 97.709C32.7477 98.0335 33.1629 98.2105 33.4003 98.122C33.6672 98.0335 33.8155 98.1515 33.8155 98.4761C33.8155 98.7711 34.0232 99.1546 34.2605 99.3316C34.5571 99.5381 34.7648 100.335 34.8241 101.721C34.9724 104.494 37.0488 109.805 38.6507 111.545C39.6889 112.666 41.8543 113.138 44.257 112.725C45.8292 112.489 46.2741 112.312 46.1258 111.958C46.0368 111.722 46.6004 112.017 47.3717 112.607C56.3893 119.452 65.5257 123.552 75.7892 125.322C79.7641 126.001 86.3493 126.384 89.9386 126.119C93.1126 125.912 93.1126 125.912 92.9642 126.532C92.7566 127.358 93.0236 127.86 97.3841 135.205C100.855 141.017 101.151 141.401 105.008 145.324C113.195 153.732 122.123 160.252 132.239 165.297C141.76 170.017 156.963 173.941 170.86 175.18C184.758 176.419 194.739 163.733 194.71 160.488C194.65 156.033 194.027 153.113 192.514 150.281C191.031 147.537 190.052 146.593 185.603 143.643C180.649 140.368 177.594 137.684 175.577 134.822C174.301 133.022 173.827 130.987 173.827 129.895C173.827 129.187 174.746 127.594 176.111 127.269C177.356 126.945 177.594 126.974 178.988 127.653C179.819 128.037 181.984 129.04 183.764 129.895C185.573 130.721 187.323 131.547 187.679 131.724C188.729 132.014 189.172 134.057 189.413 135.164C189.467 135.412 189.51 135.612 189.548 135.736C189.963 137.27 191.929 139.251 193.197 139.926C195.423 141.11 200.91 141.268 202.423 139.646C202.808 139.233 204.087 138.725 204.35 138.879C204.614 139.032 205.566 140.309 205.566 141.342C205.596 143.112 206.516 144.734 208.473 146.357C212.181 149.425 215.059 150.163 217.966 148.806C219.478 148.098 220.718 147.821 220.718 147.821C220.718 147.821 221.955 149.39 222.029 149.927C222.612 154.118 228.852 155.875 230.513 156.052C230.894 156.09 231.635 155.928 232.387 155.764C233.393 155.544 234.421 155.319 234.636 155.561C235.06 156.037 227.547 168.395 226.509 169.958C216.631 184.709 197.409 193.736 173.886 194.68C158.609 195.3 139.832 191.052 123.547 183.322C113.135 178.337 103.91 172.23 94.0321 163.674C92.3117 162.199 90.3242 160.518 89.6123 159.928C88.9004 159.367 87.2096 157.449 85.9044 155.679C83.7093 152.729 82.4634 151.667 82.4634 152.67C82.4634 153.113 83.8873 155.827 85.5188 158.512C86.1713 159.574 86.5866 160.311 86.4383 160.193C86.29 160.075 85.8154 162.199 85.3704 164.913C83.9169 173.616 81.5142 182.201 79.0818 187.541C77.747 190.432 75.1875 192.591 74.4162 193.181C71.5685 195.335 67.3055 196.303 61.4025 196.893C53.9273 197.63 42.9222 195.978 34.5275 192.851C32.3027 192.025 26.5777 189.636 26.1921 189.37C26.1689 189.347 26.0377 188.5 25.8545 187.317L25.8545 187.316L25.8544 187.316L25.8542 187.315L25.8541 187.314L25.8541 187.314L25.8541 187.314L25.854 187.314C25.8023 186.98 25.7465 186.619 25.6878 186.243C24.6199 178.956 23.1367 150.9 23.1367 137.92C23.1367 132.55 23.0774 131.37 22.7214 131.37C21.9799 131.37 21.6832 132.078 21.3569 134.615C20.6154 140.398 20.7637 170.578 21.5646 176.92L21.7426 178.366L20.734 177.806C19.1915 176.92 13.3182 170.991 11.2714 168.247C9.53864 165.901 8.50878 162.897 7.73828 160.65C7.55908 160.127 7.3939 159.645 7.23718 159.222C2.936 147.363 4.44883 134.055 10.3815 122.077C15.4243 111.87 21.6239 106.205 30.7009 103.462C32.1841 103.019 33.4892 102.547 33.6376 102.429C34.2012 101.898 30.5822 102.164 28.5948 102.783C22.1282 104.76 15.3649 110.159 10.7671 117.062C4.30051 126.738 1.3935 141.017 3.44027 153.201C3.91489 156.092 5.843 162.347 6.37694 162.789C6.42422 162.836 6.6682 163.345 7.03719 164.115C8.05744 166.244 10.0334 170.366 11.4494 172.23C13.1699 174.56 18.3609 179.635 20.5264 181.198L21.8909 182.172L22.0985 184.561C22.4841 189.134 22.6325 189.547 24.7089 191.081C29.9 195.005 40.1338 198.663 49.3888 199.961C53.69 200.551 63.0339 200.345 66.5935 199.578ZM166.855 171.876C149.62 170.371 128.797 162.199 113.728 149.572C107.38 144.232 99.1333 133.848 95.8703 128.096C95.1881 126.915 94.6838 126.355 94.0905 126.207C93.4676 126.03 94.0016 125.853 96.5526 125.44C107.32 123.611 117.792 119.157 126.246 112.814L127.491 111.899L127.847 112.755C128.648 114.672 131.733 116.619 134.017 116.619C134.937 116.619 138.022 115.233 139.891 113.964L141.166 113.109L142.204 114.141C143.154 115.085 143.332 115.144 145.112 115.144C147.158 115.144 149.62 114.23 150.985 112.932L151.726 112.253L153.833 113.64C154.96 114.436 158.104 116.177 160.803 117.564C164.838 119.629 169.109 122.018 173.173 124.496L173.826 124.909L173.203 125.735C172.55 126.62 171.334 128.302 171.334 130.869C171.334 133.76 174.357 138.954 180.144 142.522C184.69 145.324 192.514 150.837 192.217 158.895C192.181 159.868 191.09 162.288 189.636 164.471C188.687 165.857 186.047 167.923 183.644 169.132C179.551 171.168 172.342 172.348 166.855 171.876ZM8.69272 39.4436C9.49363 39.6206 10.0276 39.8862 9.90891 40.0042C9.52329 40.3877 7.47652 40.2107 7.00191 39.7386C6.26032 39.0306 6.4383 38.5291 7.47652 38.3226C8.01046 38.2341 8.81137 37.7915 9.25632 37.349C9.70127 36.9065 10.0869 36.7 10.0869 36.8475C10.0869 37.231 8.60373 38.5881 7.86214 38.8831C7.38753 39.0896 7.53585 39.1781 8.69272 39.4436ZM20.499 39.9157C21.3592 39.4436 21.1813 39.1191 20.1727 39.2666C19.1642 39.4141 19.1048 39.2961 19.7574 38.2931C20.0244 37.9096 20.1727 37.349 20.1134 37.054C20.0244 36.6705 19.8168 36.8475 19.3421 37.7915C18.9862 38.4701 18.4819 39.0306 18.2446 39.0306C17.503 39.0306 17.4437 39.6206 18.1556 39.8862C19.0752 40.2697 19.7871 40.2697 20.499 39.9157ZM10.2326 23.8078C9.52063 23.9258 7.29588 24.8109 5.3381 25.7844C3.35065 26.7285 1.65984 27.525 1.54119 27.4955C-1.48447 27.171 2.72772 22.1558 10.3809 17.0225C17.7077 12.0958 22.6615 9.49962 27.2593 8.17206C30.1367 7.34601 33.37 7.22801 34.2895 7.90654C34.7938 8.29006 34.6158 8.31956 32.4207 8.34907C27.6746 8.34907 22.1869 10.7682 13.2582 16.698C8.63073 19.7661 3.26166 24.1619 3.26166 24.8699C3.26166 25.0174 4.1219 24.7224 5.18978 24.2504C7.47386 23.2178 9.81726 22.6868 10.8555 22.9228C11.953 23.2178 11.7157 23.6013 10.2326 23.8078ZM21.7138 26.345C24.5022 25.7844 24.6209 25.7549 24.6209 25.4599C24.6209 25.3124 23.553 25.1649 22.2181 25.1059L19.8154 25.0174L22.0401 22.5098C23.2563 21.1232 24.6802 19.7366 25.1845 19.4121C26.282 18.7041 26.3413 18.2026 25.4514 17.9075L24.7692 17.701L25.5108 17.4355C25.926 17.288 26.6973 17.229 27.2312 17.3175C28.0321 17.4355 28.2101 17.3765 28.1211 16.9635C28.0321 16.5505 27.7058 16.462 26.2523 16.4915C22.0105 16.5505 20.201 17.6715 23.5233 18.2026C24.4429 18.3501 25.2141 18.5861 25.2141 18.7336C25.2141 18.8516 25.0658 18.9696 24.8878 18.9696C24.3242 18.9696 19.5484 23.7783 18.9552 24.9584C18.0356 26.699 18.5399 26.9645 21.7138 26.345ZM41.2894 14.8984C40.4291 14.9574 40.2215 15.1049 40.2808 15.5179L40.29 15.578L40.29 15.5781C40.3232 15.796 40.3423 15.9213 40.2934 15.9595C40.2272 16.0113 40.0364 15.9036 39.5874 15.6503L39.5874 15.6503L39.5096 15.6064C38.946 15.3114 38.8866 15.1639 39.2129 14.9279C39.4206 14.7509 39.9842 14.4854 40.4291 14.3969L41.2597 14.1903L40.6368 13.5413C40.3105 13.1578 40.1325 12.8038 40.2215 12.6858C40.4588 12.4498 43.3658 12.7743 43.7811 13.0988C43.9591 13.2463 44.226 13.2168 44.404 13.0398C44.8193 12.6268 45.3829 12.9513 45.3829 13.6003C45.3829 13.9543 45.2939 13.9838 45.027 13.7183C44.7896 13.4823 44.582 13.4823 44.315 13.6888C44.0777 13.8953 43.8997 13.8953 43.7514 13.6593C43.6624 13.5118 43.0988 13.3643 42.5056 13.3643C41.9577 13.3643 41.6989 13.3643 41.6465 13.4683C41.5995 13.5615 41.7178 13.7379 41.942 14.0723C42.4151 14.8076 42.3871 14.8099 41.2995 14.8976L41.2894 14.8984ZM36.7794 7.051C36.7794 6.66748 36.4234 5.98895 35.9785 5.54643L35.1479 4.72038L39.5974 4.89739C42.0595 5.0154 44.8478 5.28091 45.8267 5.54643C46.8056 5.78244 47.9328 5.95945 48.3481 5.95945C48.971 5.95945 48.8524 5.84144 47.6955 5.22191C45.6784 4.18936 43.0977 3.68783 38.1439 3.33382C32.2112 2.9208 29.2152 3.48132 29.7788 4.9564C29.8678 5.25141 30.3424 5.39892 31.0544 5.39892C32.5079 5.39892 34.8809 6.25446 35.6818 7.051C36.5421 7.90654 36.7794 7.90654 36.7794 7.051ZM22.3059 85.1709C24.7087 88.239 27.8826 91.7202 29.3658 92.9003C30.2557 93.6083 31.0269 94.1983 31.0863 94.1983C31.1159 94.1983 30.4633 92.8413 29.6328 91.1892C26.2808 84.5513 24.323 77.943 23.4035 70.3316C23.1958 68.6501 22.8695 67.234 22.5136 66.644C21.8016 65.4639 21.8016 63.9298 22.5432 62.4843C22.9289 61.7172 23.1365 60.7437 23.1365 59.6816V58.059L21.7127 59.5341C20.3185 60.9797 18.9836 61.5697 18.9836 60.6847C18.9836 60.0356 21.1787 56.9085 22.3356 55.9349C23.2551 55.1679 23.3738 54.9024 23.6704 52.6013C23.8781 51.2147 24.3527 48.7661 24.7383 47.1435C25.1536 45.5209 25.3909 44.1343 25.3316 44.0753C25.1239 43.8688 18.1531 51.8312 17.2038 54.3713C16.9954 54.9291 16.4326 55.9054 15.9876 56.4955L15.2164 57.4803C15.2164 57.4803 15.456 58.8594 15.7207 60.5925C15.9881 62.3435 16.1136 63.5473 16.2253 64.6194C16.3748 66.0536 16.4998 67.2523 16.9072 69.2106C17.3818 71.6297 17.8564 73.7243 17.9751 73.8718C18.0641 74.0488 18.4497 75.4059 18.8353 76.9105C19.6659 80.2441 21.0601 83.5483 22.3059 85.1709ZM142.677 113.079L142.054 112.46C142.054 112.46 152.393 99.3956 154.246 94.5819C155.66 90.9083 156.492 89.8666 157.614 89.8666C158.242 89.8666 158.755 90.0091 158.992 90.3632C159.407 90.9827 159.807 91.7497 159.274 94.3754C158.384 98.6236 157.019 101.426 152.926 107.474C151.976 108.861 150.76 110.395 150.226 110.926C148.98 112.076 146.177 113.256 144.546 113.522C143.508 113.669 143.211 113.61 142.677 113.079Z" fill="#00160A"/>
<path id="Whites" d="M224.806 141.939C228.497 131.939 227.938 129.809 227.298 129.6C227.298 129.6 225.889 130.397 225.266 132.078C224.109 135.235 220.149 143.495 218.666 144.97C216.916 146.711 216.916 146.711 215.136 146.711C213.356 146.711 208.223 144.045 207.524 141.418C206.406 137.214 211.221 122.608 211.339 121.782L210.538 121.222C210.004 121.723 203.059 142.669 193.927 137.211C192.881 136.587 190.664 133.642 190.486 132.078C189.498 127.535 194.033 111.649 194.804 108.385C195.494 105.465 199.088 102.754 203.508 102.754C210.301 102.754 209.389 108.659 212.431 110.74C213.78 111.662 215.995 109.99 216.679 109.864C220.505 109.156 221.971 109.98 224.777 112.194C226.942 113.903 228.544 117.286 230.308 118.478C231.287 119.14 232.327 118.235 232.667 118.065C234.063 117.368 237.057 117.888 237.888 118.478C239.106 119.006 242.089 121.859 242.561 123.518C244.697 131.037 237.951 147.707 235.404 150.834C231.188 156.011 221.116 151.939 224.806 141.939Z" fill="white"/>
<path id="Shape" fill-rule="evenodd" clip-rule="evenodd" d="M54.2752 114.538C62.403 119.642 70.7837 122.976 80.3353 123.89C87.8698 124.598 98.0286 123.625 105.326 121.265C111.466 119.288 119.772 113.812 125.319 109.181C136.087 100.212 142.88 86.2034 145.846 71.3347C146.261 69.2401 146.895 63.9749 146.865 58.7531C146.865 52.6758 144.176 36.0683 136.027 26.4925C119.222 6.7423 91.5964 -2.15458 68.3795 5.44723C60.0043 8.18945 51.0872 13.1578 44.3536 19.6481C35.8699 27.879 29.611 39.0896 27.1192 50.5361C24.5089 62.6318 27.9045 77.0875 33.8075 88.9471C38.524 98.3875 46.2958 109.493 54.2752 114.538ZM133.475 78.8871C127.898 95.5554 113.363 108.005 95.0907 111.781C92.3024 112.342 90.3742 112.548 86.4587 112.607C83.7 112.696 80.9413 112.666 80.3777 112.607C67.5928 111.073 57.8632 106.382 48.9049 97.473C44.9893 93.5493 43.3282 91.4252 40.8958 87.236C37.0692 80.5981 35.0224 73.8128 34.3995 65.6409C32.2637 37.644 52.4052 14.3083 80.7633 11.8892C91.8871 10.9452 104.227 14.3378 113.601 20.9462C117.071 23.3948 123.36 29.5901 125.318 32.4813C126.119 33.6318 133.89 44.9309 135.255 51.4212C137.005 59.8586 136.323 70.4201 133.475 78.8871Z" fill="white"/>
<path id="Shadow" fill-rule="evenodd" clip-rule="evenodd" d="M146.874 58.7531C146.874 78.5549 137.456 100.203 125.301 109.449C119.502 113.86 111.924 119.201 105.325 121.265C95.653 124.289 80.334 123.89 80.334 123.89C80.334 123.89 95.9626 121.812 101.754 119.494C118.362 112.847 127.428 102.643 133.026 92.8526C144.077 73.5266 146.874 58.2721 146.874 58.7531Z" fill="#E7EAEE"/>
<path id="Shape_2" fill-rule="evenodd" clip-rule="evenodd" d="M80.6747 109.067C72.7545 108.064 64.8938 105.261 58.5458 101.102C54.7786 98.6531 49.0832 92.9003 46.3245 88.7996C42.3793 82.8993 39.7689 76.586 38.4934 69.8006C37.5738 64.8739 37.6035 57.292 38.523 52.8963C39.4723 48.4121 40.6885 44.9899 42.8539 40.6532C45.3753 35.6379 48.045 31.9502 52.0495 27.9675C58.8721 21.1822 66.7922 16.875 76.2252 14.8099C79.2805 14.1609 90.3449 13.6298 90.7305 14.1314C90.8195 14.2789 91.4128 14.6624 92.0357 14.9869C92.6587 15.3409 94.3198 16.58 95.6843 17.7895C97.7311 19.5596 98.6507 20.6807 100.43 23.4538C101.647 25.3419 102.626 27.053 102.626 27.2005C102.626 27.525 103.575 28.1151 104.109 28.1151C104.85 28.1151 105.355 25.9024 105.503 22.0082C105.592 19.8546 105.77 18.0846 105.889 18.0846C106.304 18.0846 110.872 20.5922 113.008 22.0082C117.19 24.7814 121.373 28.6756 124.458 32.7468C125.852 34.5759 126.06 35.0479 126.06 36.169C126.06 37.2015 126.356 37.998 127.276 39.5911C129.59 43.6033 131.399 48.6481 132.497 54.2239C133.208 57.9705 133.208 65.0509 132.467 68.9746C130.45 79.7721 124.458 90.5107 116.656 97.3255C110.041 103.078 103.011 106.618 94.7054 108.359C91.8577 108.979 83.3147 109.392 80.6747 109.067ZM59.4673 88.8881C59.7343 88.5931 59.9123 88.1505 59.8233 87.944C59.7966 87.882 59.4252 87.7084 58.8815 87.4542C57.6142 86.8616 55.4108 85.8314 54.4559 84.7579C50.659 80.4507 49.2648 77.235 48.4046 70.5972C47.574 64.1363 48.2718 59.7686 49.7691 52.7488C50.4995 49.3244 52.4409 46.4958 53.6487 44.736C54.47 43.5394 54.9521 42.837 54.4839 42.7773C53.327 42.6003 53.149 42.6888 51.9328 43.8393C49.3225 46.3174 48.1359 48.294 46.8901 52.0997C44.962 58.059 44.5894 74.1639 48.4046 81.4242C52.2198 88.6845 58.7851 89.6551 59.4673 88.8881ZM101.645 64.1068C101.141 68.6898 99.005 75.3174 96.5133 78.2085C95.3564 79.5656 91.1098 81.8962 87.5253 81.4242C84.063 80.9683 81.3553 79.3591 79.0416 75.9074C77.0541 72.9278 76.0277 69.311 75.3336 64.7559C74.1352 56.89 79.3679 47.7335 81.6223 45.4619C83.9063 43.1313 85.5378 42.3052 87.6143 42.2757C89.6314 42.2757 90.9366 42.7183 92.9833 44.1638C96.7209 46.76 102.624 55.2013 101.645 64.1068ZM61.6613 39.7091C62.2546 39.0306 62.3436 38.7061 62.1656 37.4375C62.0469 36.2574 61.8096 35.7854 61.1867 35.2839C60.0892 34.3989 58.7246 34.3989 57.7161 35.3429C57.0042 36.0214 56.9152 36.2574 57.0042 37.88C57.0932 39.6206 57.1525 39.7386 58.1314 40.2696C59.4366 40.9777 60.7121 40.7712 61.6613 39.7091ZM80.1699 21.5067C74.8305 25.3124 72.5168 26.876 70.114 28.3511C68.2156 29.5311 67.6223 29.5606 67.6223 28.4986C67.6223 27.9381 68.0376 27.3185 69.1055 26.345L70.5886 24.9879L67.7113 24.6044C64.478 24.1914 61.3337 23.3063 60.6514 22.6278C59.5242 21.4772 60.5031 21.2117 63.7067 21.8018C65.1306 22.0378 67.8893 22.3328 69.8471 22.3918L73.4067 22.5393L75.9874 20.6807C81.6531 16.6095 87.5264 14.3084 90.3444 15.0164C92.0946 15.4294 91.8869 15.9015 89.8995 16.1375C87.6154 16.403 86.2212 17.17 80.1699 21.5067Z" fill="white"/>
<path id="Whites_2" d="M87.793 77.3825C87.793 77.235 87.9709 77.0875 88.2083 77.0875C88.4456 77.0875 88.7422 77.235 88.8312 77.3825C88.9202 77.5595 88.7422 77.6776 88.4159 77.6776C88.0599 77.6776 87.793 77.5595 87.793 77.3825Z" fill="white"/>
<path id="Whites_3" d="M89.5762 77.117C89.5762 76.7925 90.3178 76.4975 91.1483 76.4975C91.8009 76.527 91.8009 76.527 91.2373 76.94C90.5847 77.4415 89.5762 77.53 89.5762 77.117Z" fill="white"/>
<path id="Whites_4" d="M84.976 76.35C84.887 76.114 84.7683 75.7009 84.6793 75.4649C84.5903 75.1699 84.7387 75.0224 85.1243 75.0224C85.4506 75.0224 85.7175 75.1994 85.7175 75.4354C85.7175 75.6714 85.8065 76.055 85.8955 76.3205C86.0142 76.645 85.9252 76.7925 85.5989 76.7925C85.3319 76.7925 85.0353 76.586 84.976 76.35Z" fill="white"/>
<path id="Whites_5" d="M86.5455 75.6124C86.3972 74.7274 86.7235 74.4324 87.7914 74.4324C88.1177 74.4324 88.3847 74.7274 88.5033 75.2289C88.7406 76.0845 88.355 76.4975 87.3168 76.4975C86.8422 76.4975 86.6345 76.291 86.5455 75.6124Z" fill="white"/>
<path id="Whites_6" d="M83.5249 75.7599C82.9613 75.3174 82.9613 75.3174 83.5843 75.3174C83.9699 75.3174 84.2369 75.4944 84.2369 75.7599C84.2369 76.291 84.2369 76.291 83.5249 75.7599Z" fill="white"/>
<path id="Whites_7" d="M89.4836 75.7304C89.0979 75.3469 89.2759 74.1964 89.7505 74.0193C90.6108 73.6948 90.9964 73.8423 91.1744 74.6094C91.293 75.0519 91.3524 75.4354 91.293 75.4649C91.0557 75.7304 89.6616 75.9074 89.4836 75.7304Z" fill="white"/>
<path id="Whites_8" d="M92.1213 75.1109C92.0323 75.0224 91.9434 74.6389 91.9434 74.2848C91.9434 73.7833 92.1807 73.5768 92.8926 73.4293C93.5155 73.3113 93.9011 73.3703 94.0791 73.6063C94.3758 74.0783 94.3758 74.6684 94.1088 74.8159C93.5748 75.1109 92.329 75.2879 92.1213 75.1109Z" fill="white"/>
<path id="Whites_9" d="M82.1543 74.1964C82.1543 73.8424 82.4213 73.5473 82.8069 73.4588C83.5781 73.2523 83.5485 73.2228 83.6968 73.9899C83.7561 74.4324 83.6078 74.6094 82.9849 74.6684C82.3323 74.7569 82.1543 74.6389 82.1543 74.1964Z" fill="white"/>
<path id="Whites_10" d="M84.4131 74.2259C83.9978 73.7833 84.2648 72.9573 84.8284 72.9573C85.214 72.9573 85.4217 73.1638 85.4217 73.5178C85.4217 74.0784 84.7394 74.5504 84.4131 74.2259Z" fill="white"/>
<path id="Whites_11" d="M86.1909 73.3408C85.9536 72.7803 86.4579 72.3673 87.4368 72.3673C87.8817 72.3673 88.0894 72.5443 88.0894 72.9278C88.0894 73.2523 87.8224 73.5473 87.4368 73.6653C86.4579 73.9014 86.3986 73.9014 86.1909 73.3408Z" fill="white"/>
<path id="Whites_12" d="M94.7631 73.2523C94.8521 73.1048 95.0004 72.9573 95.0894 72.9573C95.1784 72.9573 95.1487 73.1048 95.0597 73.2523C94.9707 73.4293 94.8224 73.5473 94.7334 73.5473C94.6444 73.5473 94.6741 73.4293 94.7631 73.2523Z" fill="white"/>
<path id="Whites_13" d="M88.863 72.7508C88.6257 72.1607 88.9223 71.8657 89.8716 71.7182C90.4055 71.6592 90.6428 71.7772 90.7021 72.1902C90.9098 73.1638 89.219 73.6948 88.863 72.7508Z" fill="white"/>
<path id="Whites_14" d="M81.7377 72.2492C81.4708 71.2757 81.5301 71.1872 82.3013 71.1872C82.7166 71.1872 83.0429 71.3052 83.0429 71.4527C83.0429 71.6002 83.1319 71.9247 83.2209 72.1607C83.3099 72.4558 83.1319 72.6328 82.6276 72.7213C82.064 72.8393 81.8564 72.7213 81.7377 72.2492Z" fill="white"/>
<path id="Whites_15" d="M91.6504 71.9248C91.6504 71.3937 91.858 71.1577 92.4216 71.0102C93.2522 70.8037 93.7268 71.2167 93.7268 72.1608C93.7268 72.5443 93.4895 72.6623 92.6886 72.6623C91.769 72.6623 91.6504 72.5738 91.6504 71.9248Z" fill="white"/>
<path id="Whites_16" d="M80.8543 71.9247C80.7653 71.6887 80.8246 71.4822 80.973 71.4822C81.1509 71.4822 81.2696 71.6887 81.2696 71.9247C81.2696 72.1607 81.2103 72.3673 81.1509 72.3673C81.0916 72.3673 80.973 72.1607 80.8543 71.9247Z" fill="white"/>
<path id="Whites_17" d="M83.8502 72.1608C83.4349 71.7772 83.6722 70.9512 84.2061 70.8037C84.5324 70.7152 84.8587 70.7447 84.9477 70.8332C85.3037 71.1577 85.096 72.0132 84.6511 72.1903C84.0875 72.3968 84.0875 72.3968 83.8502 72.1608Z" fill="white"/>
<path id="Whites_18" d="M94.4384 71.9542C94.1121 71.0987 94.4681 70.4497 95.2986 70.3612C95.9216 70.2727 96.0996 70.3907 96.0996 70.8627C96.0996 71.8362 95.7733 72.3673 95.18 72.3673C94.8537 72.3673 94.5274 72.1902 94.4384 71.9542Z" fill="white"/>
<path id="Whites_19" d="M85.9278 71.5707C85.5719 71.2462 85.6905 70.6562 86.1948 70.4792C86.7584 70.2727 87.945 70.8627 87.6187 71.1872C87.2034 71.5412 86.1355 71.8067 85.9278 71.5707Z" fill="white"/>
<path id="Whites_20" d="M88.5069 70.8332C88.24 70.4202 89.1892 69.7121 89.9604 69.7121C90.3164 69.7121 90.4647 69.8891 90.4054 70.2137C90.2867 70.8037 88.7739 71.2757 88.5069 70.8332Z" fill="white"/>
<path id="Whites_21" d="M80.3789 70.6267C80.3789 70.4792 80.2899 70.1547 80.2009 69.8891C80.1119 69.6236 80.1416 69.4171 80.3196 69.4171C80.7052 69.4171 81.0018 70.5382 80.6459 70.7742C80.4976 70.8627 80.3789 70.8037 80.3789 70.6267Z" fill="white"/>
<path id="Whites_22" d="M81.1764 69.9481C80.9984 69.2991 81.3543 68.8271 82.0366 68.8271C82.4222 68.8271 82.8078 69.9776 82.5705 70.3612C82.2442 70.8627 81.3247 70.5677 81.1764 69.9481Z" fill="white"/>
<path id="Whites_23" d="M83.2573 70.0957C82.8124 69.6531 83.0793 68.5911 83.6726 68.4436C84.1175 68.3256 84.3548 68.4731 84.5922 69.0041C84.7701 69.3876 84.8591 69.7712 84.7998 69.8302C84.5032 70.0957 83.4353 70.3022 83.2573 70.0957Z" fill="white"/>
<path id="Whites_24" d="M91.2646 70.0956C90.879 69.7121 91.0569 69.4761 91.9468 69.1516C92.6884 68.9156 92.8961 68.9451 93.0444 69.2991C93.3114 70.0071 91.8282 70.6857 91.2646 70.0956Z" fill="white"/>
<path id="Whites_25" d="M93.8735 69.4171C93.5769 68.9451 93.9922 68.5321 94.7634 68.5321C95.683 68.5321 95.95 69.2991 95.1194 69.5351C94.2295 69.7711 94.0812 69.7416 93.8735 69.4171Z" fill="white"/>
<path id="Whites_26" d="M96.3945 68.7091C96.3945 68.2665 96.9285 67.7945 97.1658 68.0305C97.3734 68.237 96.9581 69.1221 96.6615 69.1221C96.5132 69.1221 96.3945 68.9451 96.3945 68.7091Z" fill="white"/>
<path id="Whites_27" d="M79.9923 68.3256C79.8737 68.2371 79.7847 67.8535 79.8143 67.529C79.8143 66.9685 79.844 66.9685 80.111 67.6175C80.4076 68.3256 80.3483 68.6796 79.9923 68.3256Z" fill="white"/>
<path id="Whites_28" d="M80.5605 67.883C80.2935 66.8505 80.3232 66.762 81.0944 66.762C81.9546 66.762 82.4886 67.8535 81.836 68.2665C81.1537 68.6796 80.7681 68.5616 80.5605 67.883Z" fill="white"/>
<path id="Whites_29" d="M90.7637 68.4731C90.7637 68.3846 90.912 67.9125 91.09 67.3815C91.5053 66.2015 92.4248 66.1424 92.6325 67.293C92.7215 67.7355 92.7511 68.119 92.7215 68.1485C92.5731 68.3256 90.7637 68.5911 90.7637 68.4731Z" fill="white"/>
<path id="Whites_30" d="M82.6627 67.7355C82.5441 67.647 82.4551 67.293 82.4551 66.9685C82.4551 66.4965 82.5441 66.467 82.9 66.762C83.1373 66.9685 83.345 67.3225 83.345 67.529C83.345 67.9715 82.989 68.0896 82.6627 67.7355Z" fill="white"/>
<path id="Whites_31" d="M93.3431 67.1455C93.1651 66.231 93.5507 65.8179 94.4703 65.9359C94.9152 65.9949 95.0635 66.2605 95.0635 66.9095C95.0635 67.647 94.9449 67.824 94.2923 67.883C93.6397 67.9715 93.4914 67.824 93.3431 67.1455Z" fill="white"/>
<path id="Whites_32" d="M96.2512 67.2635C95.8655 66.0835 95.9842 65.7294 96.7851 65.6409C97.497 65.5524 97.586 65.6409 97.586 66.408C97.586 67.057 97.408 67.3225 96.9631 67.4405C96.6368 67.529 96.3105 67.4405 96.2512 67.2635Z" fill="white"/>
<path id="Whites_33" d="M79.5488 65.5819C79.5488 65.0214 79.608 64.7854 79.6967 65.0804C79.7559 65.3459 79.7559 65.818 79.6967 66.113C79.608 66.3785 79.5488 66.1425 79.5488 65.5819Z" fill="white"/>
<path id="Whites_34" d="M80.2902 65.9654C79.9046 65.6114 80.0826 64.4609 80.5572 64.2839C81.2394 64.0184 81.5657 64.3429 81.5657 65.3164C81.5657 65.9359 81.4174 66.172 81.0318 66.172C80.7352 66.172 80.3792 66.0835 80.2902 65.9654Z" fill="white"/>
<path id="Whites_35" d="M82.0693 65.1689C81.9507 64.7264 81.8913 64.2544 82.01 64.1659C82.3066 63.8709 82.4846 64.3429 82.3956 65.1984L82.3066 66.0245L82.0693 65.1689Z" fill="white"/>
<path id="Whites_36" d="M91.6504 64.9624C91.6504 64.6379 91.7987 64.4609 91.947 64.5494C92.125 64.6379 92.2437 64.9329 92.2437 65.1689C92.2437 65.4049 92.125 65.5819 91.947 65.5819C91.7987 65.5819 91.6504 65.3164 91.6504 64.9624Z" fill="white"/>
<path id="Whites_37" d="M92.9848 65.3459C92.5695 64.9034 92.8958 64.1068 93.578 63.9298C94.4383 63.7233 94.4679 63.7233 94.7349 64.5788C94.9129 65.1099 94.7942 65.2279 94.023 65.3459C93.5484 65.4344 93.0737 65.4049 92.9848 65.3459Z" fill="white"/>
<path id="Whites_38" d="M95.7136 64.7854C95.3873 64.4903 95.4763 63.5168 95.8025 63.5168C95.9805 63.5168 96.0992 63.3988 96.0992 63.2218C96.0992 63.0743 95.9212 62.9268 95.6839 62.9268C95.1796 62.9268 94.7643 61.4812 95.1796 61.0682C95.7136 60.5371 96.3068 61.0977 96.6628 62.5432C96.8704 63.3103 97.0781 64.1953 97.1671 64.4903C97.2857 64.8739 97.1671 64.9919 96.6035 64.9919C96.2178 64.9919 95.8025 64.9034 95.7136 64.7854Z" fill="white"/>
<path id="Whites_39" d="M97.3204 63.2218C97.1128 62.3368 96.5789 60.5667 96.1932 59.2686C95.6 57.3805 95.5406 56.9085 95.8669 56.702C96.0746 56.5545 96.3416 56.4365 96.4305 56.4365C96.7568 56.4365 97.9434 62.4843 97.8247 63.6643L97.7357 64.8444L97.3204 63.2218Z" fill="white"/>
<path id="Whites_40" d="M79.252 63.0743C79.252 62.6023 79.3111 62.4253 79.3999 62.7203C79.459 62.9858 79.459 63.3988 79.3999 63.6053C79.3111 63.7823 79.252 63.5758 79.252 63.0743Z" fill="white"/>
<path id="Whites_41" d="M79.8453 63.0153C79.964 61.9827 80.8242 61.7467 81.0615 62.6908C81.2692 63.4578 81.3285 63.3693 80.4386 63.6643C79.8157 63.8413 79.7563 63.7823 79.8453 63.0153Z" fill="white"/>
<path id="Whites_42" d="M92.3629 62.7498C92.1256 61.8943 92.6299 61.3927 93.5791 61.5107C94.291 61.5993 94.558 62.8678 93.9647 63.2513C93.2232 63.7234 92.5409 63.5168 92.3629 62.7498Z" fill="white"/>
<path id="Whites_43" d="M81.5684 62.5138C81.5684 62.0122 81.7167 61.7467 82.043 61.7467C82.3396 61.7467 82.4583 61.9532 82.3989 62.3958C82.2506 63.3398 81.5684 63.4283 81.5684 62.5138Z" fill="white"/>
<path id="Whites_44" d="M78.9218 61.2747C78.9218 60.9502 79.0106 60.8617 79.0993 61.0977C79.1881 61.3042 79.1585 61.5697 79.0697 61.6582C78.981 61.7762 78.8922 61.5992 78.9218 61.2747Z" fill="white"/>
<path id="Whites_45" d="M79.4883 61.1862C79.4883 60.7437 79.6663 60.5667 80.1112 60.5667C80.5265 60.5667 80.6748 60.7142 80.6155 61.0682C80.4672 61.8352 79.4883 61.9237 79.4883 61.1862Z" fill="white"/>
<path id="Whites_46" d="M81.125 60.9207C80.9173 60.3897 80.9173 60.3897 81.8072 60.1536C82.3412 59.9766 82.4598 60.0651 82.4598 60.5077C82.4598 61.2157 81.3919 61.5697 81.125 60.9207Z" fill="white"/>
<path id="Whites_47" d="M91.8608 60.5077C91.6532 59.7701 92.0388 59.3866 93.077 59.3866C93.5813 59.3866 93.7296 59.5636 93.7296 60.1241C93.7296 60.5667 93.5516 60.8617 93.3143 60.8617C93.077 60.8617 92.6914 60.9502 92.4541 61.0387C92.1871 61.1272 91.9795 60.9502 91.8608 60.5077Z" fill="white"/>
<path id="Whites_48" d="M94.4407 59.8291C94.2034 59.2391 94.5593 58.7966 95.2416 58.7966C95.6569 58.7966 95.8052 59.0031 95.8052 59.5341C95.8052 60.0651 95.6569 60.2716 95.2119 60.2716C94.8856 60.2716 94.5297 60.0651 94.4407 59.8291Z" fill="white"/>
<path id="Whites_49" d="M79.1934 59.4161C79.1934 58.7966 79.8756 58.0885 80.1723 58.4131C80.2909 58.5016 80.3799 58.9146 80.3799 59.2981C80.3799 59.7701 80.2019 59.9766 79.7866 59.9766C79.401 59.9766 79.1934 59.7701 79.1934 59.4161Z" fill="white"/>
<path id="Whites_50" d="M80.8231 59.0621C80.5858 58.3246 80.8527 58 81.8613 57.8525C82.7809 57.7345 83.0775 58.7081 82.2766 59.2981C81.5053 59.8586 81.0307 59.7701 80.8231 59.0621Z" fill="white"/>
<path id="Whites_51" d="M91.5617 58.885C91.3541 58.708 91.2651 57.6165 91.4431 57.6165C91.4727 57.6165 91.9177 57.4985 92.4516 57.351C93.3415 57.0855 93.4009 57.115 93.3712 57.9115C93.3415 58.5015 93.1636 58.7965 92.7186 58.9145C91.9177 59.1211 91.799 59.1211 91.5617 58.885Z" fill="white"/>
<path id="Whites_52" d="M90.4629 58.2065C90.4629 58 90.5516 57.9115 90.67 58C90.7587 58.118 90.7587 58.295 90.67 58.413C90.5516 58.5015 90.4629 58.413 90.4629 58.2065Z" fill="white"/>
<path id="Whites_53" d="M93.785 57.7345C93.874 57.233 94.7936 56.4954 95.0012 56.7314C95.0902 56.82 95.2385 57.174 95.3275 57.5575C95.5351 58.1475 95.4461 58.2065 94.6156 58.2065C93.9037 58.2065 93.696 58.0885 93.785 57.7345Z" fill="white"/>
<path id="Whites_54" d="M79.4883 57.705C79.4883 57.5575 79.6366 57.2625 79.7849 57.0265C80.0222 56.6725 80.0815 56.702 80.0815 57.2625C80.0815 57.6165 79.9629 57.9115 79.7849 57.9115C79.6366 57.9115 79.4883 57.823 79.4883 57.705Z" fill="white"/>
<path id="Whites_55" d="M80.3809 57.056C80.3809 56.2299 81.0038 55.9644 81.4784 56.584C81.775 57.0265 81.775 57.174 81.4784 57.3805C80.8555 57.764 80.3809 57.646 80.3809 57.056Z" fill="white"/>
<path id="Whites_56" d="M89.3964 56.6725C88.8625 56.0824 88.8625 56.0529 89.3668 56.2299C89.6634 56.348 90.049 56.4365 90.1973 56.4365C90.3457 56.4365 90.4643 56.643 90.4643 56.879C90.4643 57.4985 90.049 57.4395 89.3964 56.6725Z" fill="white"/>
<path id="Whites_57" d="M83.0174 56.643C81.7419 55.6694 81.5639 53.4863 82.7504 53.4863C83.5513 53.4863 84.2929 54.7254 84.1743 55.8759C84.0853 56.938 83.7293 57.174 83.0174 56.643Z" fill="white"/>
<path id="Whites_58" d="M91.1457 56.8202C91.2643 56.7314 91.4423 56.7314 91.561 56.8202C91.65 56.9385 91.561 57.0272 91.3533 57.0272C91.1457 57.0272 91.0567 56.9385 91.1457 56.8202Z" fill="white"/>
<path id="Whites_59" d="M95.6264 55.6694C95.7153 55.4039 95.8043 55.1384 95.8043 55.0794C95.8043 55.0204 95.9526 54.9614 96.101 54.9614C96.2789 54.9614 96.3976 55.2269 96.3976 55.5514C96.3976 55.9054 96.19 56.1414 95.923 56.1414C95.5967 56.1414 95.5077 55.9939 95.6264 55.6694Z" fill="white"/>
<path id="Whites_60" d="M80.082 55.5809C80.082 54.9024 80.705 53.7813 81.0609 53.7813C81.6839 53.7813 81.2389 55.6694 80.5863 55.7874C80.3193 55.8464 80.082 55.7579 80.082 55.5809Z" fill="white"/>
<path id="Whites_61" d="M86.759 55.2564L85.8691 55.0499L86.6701 54.8434C87.5006 54.6074 88.0939 54.7844 88.0939 55.2859C88.0939 55.5809 88.0642 55.5809 86.759 55.2564Z" fill="white"/>
<path id="Whites_62" d="M85.7188 53.8403C85.7188 52.6308 86.401 52.4538 87.0239 53.5158C87.4392 54.2239 87.4689 54.3714 87.0833 54.3714C86.846 54.3714 86.4603 54.4599 86.1934 54.5484C85.8374 54.6959 85.7188 54.5189 85.7188 53.8403Z" fill="white"/>
<path id="Whites_63" d="M90.8767 54.2533C89.5419 53.6633 88.6816 52.0997 88.6816 50.2411C88.6816 48.9136 88.8003 48.5891 89.6012 47.8515C90.1055 47.3795 90.6098 46.996 90.7581 46.996C91.4107 46.996 93.8134 49.2676 94.6143 50.6837L95.5339 52.3062L94.555 53.3388C93.4278 54.5188 92.1819 54.8434 90.8767 54.2533Z" fill="white"/>
<path id="Whites_64" d="M84.6824 53.4863C84.5934 53.3388 84.6528 53.1913 84.8011 53.1913C84.9791 53.1913 85.1274 53.3388 85.1274 53.4863C85.1274 53.6633 85.0681 53.7813 85.0087 53.7813C84.9197 53.7813 84.7714 53.6633 84.6824 53.4863Z" fill="white"/>
<path id="Whites_65" d="M80.7921 53.0143C80.8811 52.7488 80.9701 52.4833 80.9701 52.4243C80.9701 52.3653 81.237 52.3063 81.5633 52.3063C82.3049 52.3063 82.3346 52.7783 81.593 53.1913C80.7921 53.6043 80.5844 53.5748 80.7921 53.0143Z" fill="white"/>
<path id="Whites_66" d="M83.1371 52.6603C82.4549 52.5718 82.2472 52.1883 82.6922 51.9228C82.8108 51.8343 83.3448 51.6867 83.8787 51.5687C84.6796 51.3917 84.8279 51.4507 84.8279 51.9523C84.8279 52.5718 84.205 52.8373 83.1371 52.6603Z" fill="white"/>
<path id="Whites_67" d="M85.418 51.6572C85.418 51.3032 85.4476 51.0967 85.507 51.1557C85.5366 51.2147 85.7739 51.5097 85.9816 51.8047C86.3375 52.2177 86.3079 52.3063 85.8926 52.3063C85.5959 52.3063 85.418 52.0702 85.418 51.6572Z" fill="white"/>
<path id="Whites_68" d="M81.2695 51.4507C81.2695 51.2737 81.4178 51.0672 81.5662 50.9787C81.7441 50.8902 81.8628 51.0082 81.8628 51.2442C81.8628 51.5097 81.7441 51.7162 81.5662 51.7162C81.4178 51.7162 81.2695 51.5982 81.2695 51.4507Z" fill="white"/>
<path id="Whites_69" d="M82.3662 51.0082C82.1289 50.4181 84.235 49.7691 84.591 50.3296C84.858 50.8017 84.591 51.0082 83.4638 51.2442C82.7815 51.3917 82.4849 51.3327 82.3662 51.0082Z" fill="white"/>
<path id="Whites_70" d="M85.1581 50.0641C85.1581 49.7396 85.2469 49.6511 85.3356 49.8871C85.4244 50.0936 85.3948 50.3591 85.3061 50.4477C85.2173 50.5657 85.1286 50.3887 85.1581 50.0641Z" fill="white"/>
<path id="Whites_71" d="M82.636 49.5921C82.9919 48.9431 84.0301 47.881 84.2971 47.881C84.5937 47.881 84.6234 49.2676 84.3268 49.4446C84.1785 49.5036 83.7038 49.6511 83.2589 49.7691C82.6063 49.9166 82.458 49.8871 82.636 49.5921Z" fill="white"/>
<path id="Whites_72" d="M85.0046 48.9136C84.6783 48.0285 84.8267 47.645 85.5386 47.527C86.2802 47.3795 86.2802 47.3795 85.8056 48.294C85.2123 49.4741 85.2419 49.4741 85.0046 48.9136Z" fill="white"/>
<path id="Whites_73" d="M84.8281 47.1435C84.8281 47.0845 85.4214 46.6715 86.163 46.2585C87.0529 45.7274 87.6758 45.5504 88.1208 45.6684C88.6547 45.8454 88.5064 45.9634 87.2012 46.583C85.7477 47.232 84.8281 47.468 84.8281 47.1435Z" fill="white"/>
<path id="Whites_74" d="M101.289 21.0052C100.488 19.8546 98.7974 17.996 97.5812 16.875C96.365 15.7539 95.5641 14.8394 95.8014 14.8394C96.454 14.8394 101.437 16.1965 102.683 16.7275C103.722 17.17 103.751 17.229 103.484 18.1436C103.336 18.6746 103.217 20.0021 103.217 21.0937C103.217 22.2148 103.128 23.0998 103.01 23.0998C102.861 23.0998 102.12 22.1558 101.289 21.0052Z" fill="white"/>
<path id="Whites_75" d="M40.9255 110.365C39.7093 109.746 39.4423 109.392 37.8998 106.353C35.6751 102.046 35.6157 101.043 37.7218 103.491C38.5524 104.465 40.4805 106.471 41.9934 107.946C44.5741 110.424 44.6927 110.601 43.8325 110.483C43.2096 110.395 42.9723 110.454 43.1206 110.69C43.4765 111.221 42.3493 111.073 40.9255 110.365Z" fill="white"/>
</g>
</svg>
