<svg width="62" height="95" viewBox="0 0 62 95" fill="none" xmlns="http://www.w3.org/2000/svg">
<path id="Path" fill-rule="evenodd" clip-rule="evenodd" d="M41.0898 22.2911C38.8522 22.5546 35.8082 22.367 35.2717 20.4281C34.9276 19.1844 35.9896 17.9823 37.22 17.3297C39.4405 16.1519 42.1947 16.1055 44.7969 15.8736C47.399 15.6416 50.2084 15.0676 51.7538 13.2423C53.2992 11.417 52.4734 8.07793 49.8735 7.7266C41.1584 7.58085 32.4433 7.43509 23.7281 7.28934C28.569 27.7739 33.41 48.2585 38.2509 68.743C38.8879 71.4388 39.5281 74.1622 39.4648 76.9009C39.2972 84.1512 33.6898 90.9675 25.9324 93.3506C18.175 95.7337 8.75727 93.5332 3.20452 88.0401C2.04755 86.8956 1.03825 85.6061 0.494647 84.1605C-0.508371 81.4933 0.17228 78.5853 1.34349 76.015C5.15092 67.6594 14.3673 61.476 24.6132 60.4032C28.1511 60.0327 28.6446 55.7676 28.1438 52.6575C25.5258 36.3993 21.3154 20.307 15.5743 4.61706C14.919 2.82621 17.8355 1.86747 19.9645 1.80758C30.3008 1.51686 40.6371 1.22613 50.9734 0.935407C53.368 0.868056 56.0802 0.908177 57.764 2.43788C58.8513 3.42563 59.2506 4.82721 59.567 6.16166C60.6406 10.6896 61.2664 15.2905 61.4349 19.8952C54.6532 20.6938 47.8715 21.4925 41.0898 22.2911Z" fill="#C7C7C7"/>
</svg>
