<svg width="25" height="24" viewBox="0 0 25 24" fill="none" xmlns="http://www.w3.org/2000/svg">
<path d="M16.4174 18C14.8403 18 13.3639 17.3826 12.2686 16.3346" stroke="black" stroke-width="2" stroke-linecap="round" stroke-linejoin="round"/>
<path d="M7.57174 8.05196C6.20575 6.76008 4.37336 6 2.41699 6" stroke="black" stroke-width="2" stroke-linecap="round" stroke-linejoin="round"/>
<path d="M23.0602 19.0439C23.6869 18.6522 23.6869 17.7396 23.0602 17.3479L17.947 14.1521C17.2809 13.7359 16.417 14.2147 16.417 15.0001V21.3916C16.417 22.1771 17.2809 22.6559 17.947 22.2396L23.0602 19.0439Z" fill="black"/>
<path d="M16.417 6V6C13.9948 6 11.8101 7.45643 10.8785 9.69231L9.34007 13.3846C8.17555 16.1795 5.44475 18 2.41699 18V18" stroke="black" stroke-width="2" stroke-linecap="round" stroke-linejoin="round"/>
<path d="M22.0602 7.04388C22.6869 6.65222 22.6869 5.73956 22.0602 5.34789L16.947 2.15214C16.2809 1.73586 15.417 2.2147 15.417 3.00013V9.39164C15.417 10.1771 16.2809 10.6559 16.947 10.2396L22.0602 7.04388Z" fill="black"/>
</svg>
