<svg width="26" height="26" viewBox="0 0 26 26" fill="none" xmlns="http://www.w3.org/2000/svg">
<g id="Group 13">
<path id="Path" d="M16.9153 19.8312C15.1226 19.8312 13.4444 19.1045 12.1992 17.8711" stroke="white" stroke-width="2" stroke-linecap="round" stroke-linejoin="round"/>
<path id="Path_2" d="M6.85952 8.12307C5.30677 6.60259 3.22385 5.70801 1 5.70801" stroke="white" stroke-width="2" stroke-linecap="round" stroke-linejoin="round"/>
<g id="Group">
<path id="Path 2 Copy 2" d="M24.7105 20.9014C25.3194 20.5074 25.3194 19.6164 24.7105 19.2223L18.4574 15.1758C17.792 14.7453 16.9141 15.2228 16.9141 16.0154V24.1084C16.9141 24.9009 17.792 25.3785 18.4574 24.948L24.7105 20.9014Z" fill="white"/>
<path id="Path 5 Copy" d="M16.9141 5.70762V5.70762C14.1669 5.70762 11.6954 7.37717 10.6697 9.92576L8.70111 14.8177C7.48214 17.8468 4.54466 19.8311 1.27952 19.8311H1" stroke="white" stroke-width="2" stroke-linecap="round" stroke-linejoin="round"/>
<path id="Path 2 Copy" d="M23.5738 6.77791C24.1827 6.38384 24.1827 5.49288 23.5738 5.09881L17.3206 1.05229C16.6553 0.621721 15.7773 1.09931 15.7773 1.89183V9.98489C15.7773 10.7774 16.6553 11.255 17.3206 10.8244L23.5738 6.77791Z" fill="white"/>
</g>
</g>
</svg>
