<svg width="105" height="46" viewBox="0 0 105 46" fill="none" xmlns="http://www.w3.org/2000/svg">
<path d="M9.82 32.6C9.36667 32.6 8.92667 32.5867 8.5 32.56C8.1 32.5333 7.71333 32.4933 7.34 32.44C5.20667 32.0933 3.67333 31.5467 2.74 30.8C1.80667 30.0533 1.34 29.2267 1.34 28.32C1.34 27.52 1.64667 26.72 2.26 25.92C2.9 25.0933 3.75333 24.3467 4.82 23.68C5.91333 22.9867 7.16667 22.44 8.58 22.04C9.99333 21.6133 11.5 21.4 13.1 21.4C13.5267 21.4 14.02 21.44 14.58 21.52C15.14 21.5733 15.5 21.64 15.66 21.72C15.82 21.8 15.9 21.9067 15.9 22.04C15.9 22.2267 15.74 22.32 15.42 22.32H15.18C14.9133 22.32 14.6333 22.3067 14.34 22.28C14.0467 22.2267 13.7533 22.2 13.46 22.2C12.18 22.2 10.9667 22.3867 9.82 22.76C8.67333 23.1333 7.66 23.6133 6.78 24.2C5.9 24.7867 5.20667 25.44 4.7 26.16C4.19333 26.8533 3.94 27.5333 3.94 28.2C3.94 28.9467 4.27333 29.6133 4.94 30.2C5.63333 30.7867 6.75333 31.2 8.3 31.44C8.59333 31.4667 8.9 31.4933 9.22 31.52C9.54 31.5733 9.84667 31.6 10.14 31.6C11.6067 31.6 13.0067 31.36 14.34 30.88C15.6733 30.4 16.86 29.7733 17.9 29C18.9667 28.2 19.8067 27.3333 20.42 26.4C21.0333 25.4667 21.34 24.56 21.34 23.68C21.34 23.04 21.1533 22.44 20.78 21.88C20.4333 21.32 19.8467 20.8267 19.02 20.4C18.06 19.92 17.02 19.52 15.9 19.2C14.8067 18.8533 13.7 18.52 12.58 18.2C11.46 17.88 10.3933 17.52 9.38 17.12C8.36667 16.72 7.47333 16.2 6.7 15.56C6.14 15.1067 5.72667 14.5867 5.46 14C5.22 13.4133 5.1 12.8 5.1 12.16C5.1 11.3867 5.27333 10.6267 5.62 9.88C5.96667 9.10667 6.43333 8.4 7.02 7.76C7.95333 6.77333 9.04667 5.97333 10.3 5.36C11.5533 4.72 12.8733 4.24 14.26 3.92C15.6467 3.6 16.9933 3.44 18.3 3.44H18.46C20.9933 3.44 22.8333 3.84 23.98 4.64C25.1533 5.41333 25.74 6.30667 25.74 7.32C25.74 8.12 25.3933 8.92 24.7 9.72C24.0067 10.4933 23.0333 11.1467 21.78 11.68C20.5267 12.1867 19.0333 12.44 17.3 12.44H17.14C16.98 12.44 16.8333 12.3733 16.7 12.24C16.5933 12.08 16.54 11.9467 16.54 11.84C16.54 11.7067 16.6067 11.64 16.74 11.64C17.9133 11.64 19.02 11.3733 20.06 10.84C21.1267 10.3067 21.98 9.65333 22.62 8.88C23.2867 8.08 23.62 7.32 23.62 6.6C23.62 5.98667 23.3 5.45333 22.66 5C22.0467 4.52 20.9933 4.28 19.5 4.28H19.38C18.1 4.28 16.7933 4.49333 15.46 4.92C14.1533 5.34667 12.94 5.90667 11.82 6.6C10.7 7.29333 9.79333 8.06666 9.1 8.92C8.40667 9.74667 8.06 10.5867 8.06 11.44C8.06 11.9467 8.20667 12.44 8.5 12.92C8.79333 13.4 9.27333 13.84 9.94 14.24C10.7933 14.7733 11.8333 15.2133 13.06 15.56C14.3133 15.9067 15.6067 16.2667 16.94 16.64C18.3 16.9867 19.5667 17.4133 20.74 17.92C21.9133 18.4267 22.86 19.0933 23.58 19.92C24.3267 20.72 24.7 21.76 24.7 23.04C24.7 23.3067 24.6867 23.5867 24.66 23.88C24.6333 24.1733 24.58 24.4667 24.5 24.76C24.1533 26.1733 23.46 27.3867 22.42 28.4C21.38 29.3867 20.14 30.1867 18.7 30.8C17.26 31.4133 15.7533 31.8667 14.18 32.16C12.6333 32.4533 11.18 32.6 9.82 32.6ZM30.3494 31.4C29.4427 31.4 28.696 31.16 28.1094 30.68C27.5494 30.2 27.1094 29.5733 26.7894 28.8C26.496 28.0267 26.2827 27.1867 26.1494 26.28C26.0427 25.3467 25.9894 24.44 25.9894 23.56C25.9894 22.8933 26.016 22.28 26.0694 21.72C26.1227 21.1333 26.1627 20.6267 26.1894 20.2C26.3227 19.08 26.616 17.96 27.0694 16.84C27.5227 15.6933 28.1894 14.7467 29.0694 14C29.9494 13.2267 31.1094 12.84 32.5494 12.84C33.5627 12.84 34.336 13.1733 34.8694 13.84C35.4294 14.48 35.816 15.32 36.0294 16.36C36.2427 17.3733 36.3494 18.4533 36.3494 19.6C36.3494 19.92 36.336 20.24 36.3094 20.56C36.3094 20.88 36.296 21.2 36.2694 21.52C36.936 22.2667 37.736 22.64 38.6694 22.64C39.3894 22.64 40.096 22.3733 40.7894 21.84C40.9494 21.7067 41.096 21.64 41.2294 21.64C41.336 21.64 41.3894 21.7067 41.3894 21.84C41.3894 22.08 41.3227 22.24 41.1894 22.32C40.7627 22.72 40.3094 23.0133 39.8294 23.2C39.3494 23.3867 38.8694 23.48 38.3894 23.48C37.5627 23.48 36.8027 23.24 36.1094 22.76C36.056 23.2667 35.976 23.7467 35.8694 24.2C35.7894 24.6267 35.7094 25 35.6294 25.32C35.3894 26.1467 35.0294 27.04 34.5494 28C34.096 28.9333 33.5094 29.7333 32.7894 30.4C32.096 31.0667 31.2827 31.4 30.3494 31.4ZM31.6694 29.2C32.2294 29.2 32.696 28.9333 33.0694 28.4C33.4694 27.8667 33.8027 27.2533 34.0694 26.56C34.336 25.8667 34.5227 25.28 34.6294 24.8C34.7094 24.4267 34.776 24 34.8294 23.52C34.8827 23.04 34.9227 22.4667 34.9494 21.8C34.576 21.48 34.256 20.9067 33.9894 20.08C33.7494 19.2267 33.6294 18.4133 33.6294 17.64C33.6294 17.1067 33.696 16.64 33.8294 16.24C33.9627 15.8133 34.1627 15.5333 34.4294 15.4C34.2694 15 34.056 14.6267 33.7894 14.28C33.5227 13.9067 33.1494 13.72 32.6694 13.72C32.216 13.72 31.8027 13.9867 31.4294 14.52C31.0827 15.0533 30.776 15.6933 30.5094 16.44C30.2427 17.1867 30.0294 17.8933 29.8694 18.56C29.736 19.2267 29.656 19.6933 29.6294 19.96C29.6027 20.2533 29.5627 20.7067 29.5094 21.32C29.456 21.9067 29.4294 22.56 29.4294 23.28C29.4294 24.1867 29.4827 25.0933 29.5894 26C29.7227 26.9067 29.9494 27.6667 30.2694 28.28C30.5894 28.8933 31.056 29.2 31.6694 29.2ZM42.4297 31.16C41.843 31.16 41.3097 30.92 40.8297 30.44C40.3764 29.96 40.043 29.2267 39.8297 28.24C39.723 27.7867 39.643 27.2133 39.5897 26.52C39.563 25.8267 39.5497 25.0933 39.5497 24.32C39.5497 23.1467 39.5897 21.9333 39.6697 20.68C39.7764 19.4267 39.9097 18.28 40.0697 17.24C40.2297 16.1733 40.4164 15.36 40.6297 14.8C40.763 14.48 41.003 14.2 41.3497 13.96C41.723 13.72 42.203 13.6 42.7897 13.6C43.1897 13.6 43.5897 13.6533 43.9897 13.76C43.9097 14.0533 43.7497 14.7467 43.5097 15.84C43.2964 16.9333 43.1097 18.1467 42.9497 19.48C42.843 20.4133 42.7497 21.3733 42.6697 22.36C42.5897 23.32 42.5497 24.2267 42.5497 25.08C42.5497 26.1733 42.643 27.0933 42.8297 27.84C43.0164 28.56 43.323 28.92 43.7497 28.92C44.2564 28.92 44.6964 28.6267 45.0697 28.04C45.4697 27.4267 45.8164 26.6667 46.1097 25.76C46.403 24.8533 46.6297 23.9467 46.7897 23.04C47.0297 21.7067 47.243 20.28 47.4297 18.76C47.6164 17.2133 47.8297 15.8933 48.0697 14.8C48.1497 14.48 48.3764 14.2 48.7497 13.96C49.1497 13.72 49.643 13.6 50.2297 13.6C50.6297 13.6 51.0297 13.6533 51.4297 13.76C51.2164 14.3467 51.003 15.2267 50.7897 16.4C50.603 17.5733 50.443 18.8667 50.3097 20.28C50.1764 21.6933 50.1097 23.0933 50.1097 24.48C50.1097 25.1733 50.1364 25.9333 50.1897 26.76C50.2697 27.5867 50.4164 28.2933 50.6297 28.88C50.8697 29.4667 51.203 29.76 51.6297 29.76H51.6697C51.883 29.76 52.1097 29.6533 52.3497 29.44C52.6164 29.2267 52.8964 28.8267 53.1897 28.24C53.403 27.8667 53.5897 27.4267 53.7497 26.92C53.9097 26.4133 54.083 25.8667 54.2697 25.28C54.3764 25.04 54.483 24.92 54.5897 24.92C54.723 24.92 54.7897 25.08 54.7897 25.4V25.56C54.7364 26.2533 54.5497 27.04 54.2297 27.92C53.9097 28.8 53.4564 29.56 52.8697 30.2C52.3097 30.84 51.6297 31.16 50.8297 31.16C49.923 31.16 49.203 30.84 48.6697 30.2C48.1364 29.5333 47.7497 28.7333 47.5097 27.8C47.2697 26.84 47.123 25.92 47.0697 25.04C46.883 25.7333 46.6697 26.4267 46.4297 27.12C46.1897 27.8133 45.8964 28.4267 45.5497 28.96C44.5897 30.4267 43.5497 31.16 42.4297 31.16ZM55.4334 31.32C55.0601 31.32 54.7401 31.1867 54.4734 30.92C54.2334 30.6267 54.1134 30.1467 54.1134 29.48C54.1134 29.3733 54.1134 29.2667 54.1134 29.16C54.1134 29.0267 54.1268 28.8933 54.1534 28.76C54.2068 28.28 54.2601 27.6133 54.3134 26.76C54.3934 25.9067 54.4468 24.9467 54.4734 23.88C54.5268 22.8133 54.5534 21.7467 54.5534 20.68C54.5534 19.56 54.5134 18.5067 54.4334 17.52C54.3801 16.5067 54.2734 15.7067 54.1134 15.12C54.3268 15.0667 54.6068 14.92 54.9534 14.68C55.3001 14.44 55.6601 14.28 56.0334 14.2C56.1134 14.1733 56.2201 14.16 56.3534 14.16C56.8068 14.16 57.0868 14.4 57.1934 14.88C57.3268 15.36 57.3934 15.9467 57.3934 16.64C57.3934 17.12 57.3801 17.6933 57.3534 18.36C57.3534 19 57.3268 19.56 57.2734 20.04C57.5668 19.1867 57.8868 18.4533 58.2334 17.84C58.5801 17.2 58.9534 16.5867 59.3534 16C59.7534 15.3867 60.1801 14.7867 60.6334 14.2C61.0868 13.5867 61.7001 13.28 62.4734 13.28C63.2734 13.28 63.7934 13.5467 64.0334 14.08C64.2734 14.6133 64.3934 15.2 64.3934 15.84C64.3934 16.1867 64.3801 16.52 64.3534 16.84C64.3268 17.1333 64.3001 17.4133 64.2734 17.68C64.2734 17.8667 64.2334 18.36 64.1534 19.16C64.0734 19.9333 63.9934 20.8533 63.9134 21.92C63.8334 22.96 63.7934 24.0133 63.7934 25.08C63.7934 25.3733 63.8068 25.7867 63.8334 26.32C63.8601 26.8267 63.9134 27.3467 63.9934 27.88C64.0734 28.3867 64.2068 28.8267 64.3934 29.2C64.6068 29.5467 64.8868 29.72 65.2334 29.72C65.4468 29.72 65.6868 29.64 65.9534 29.48C66.2468 29.2667 66.5001 28.9867 66.7134 28.64C66.9534 28.2933 67.1401 27.9467 67.2734 27.6C67.3801 27.36 67.4868 27.0933 67.5934 26.8C67.7001 26.5067 67.7934 26.2 67.8734 25.88C67.9801 25.56 68.1268 25.4 68.3134 25.4C68.4468 25.4 68.5134 25.5333 68.5134 25.8V25.96C68.5134 26.1467 68.4734 26.3867 68.3934 26.68C68.3401 26.9733 68.2601 27.2667 68.1534 27.56C67.8334 28.5467 67.3534 29.4133 66.7134 30.16C66.1001 30.88 65.2334 31.24 64.1134 31.24C63.3668 31.24 62.7801 30.96 62.3534 30.4C61.9534 29.8133 61.6601 29.0667 61.4734 28.16C61.3668 27.6533 61.2868 27.1467 61.2334 26.64C61.2068 26.1333 61.1934 25.6267 61.1934 25.12C61.1934 23.8667 61.2734 22.6267 61.4334 21.4C61.6201 20.1467 61.7134 18.9467 61.7134 17.8C61.7134 17.4267 61.6601 17.08 61.5534 16.76C61.4734 16.4133 61.2734 16.24 60.9534 16.24C60.6334 16.24 60.2468 16.5467 59.7934 17.16C59.3401 17.7467 58.8734 18.6133 58.3934 19.76C57.9134 20.88 57.5134 22.16 57.1934 23.6C56.8734 25.0133 56.7134 26.4667 56.7134 27.96C56.7134 28.8667 56.7934 29.7867 56.9534 30.72C56.7668 30.8533 56.5268 30.9867 56.2334 31.12C55.9401 31.2533 55.6734 31.32 55.4334 31.32ZM79.3025 31.2C78.3425 31.2 77.6092 30.8 77.1025 30C76.6225 29.2 76.2892 28.1733 76.1025 26.92C75.9425 25.6667 75.8625 24.36 75.8625 23C75.5158 24.28 75.0758 25.5467 74.5425 26.8C74.0092 28.0533 73.4092 29.0933 72.7425 29.92C72.1025 30.7467 71.4225 31.16 70.7025 31.16C70.0625 31.16 69.5425 30.8667 69.1425 30.28C68.7425 29.6667 68.4492 28.8667 68.2625 27.88C68.0758 26.8933 67.9825 25.8267 67.9825 24.68C67.9825 23.8533 68.0492 22.92 68.1825 21.88C68.3158 20.84 68.5292 19.8 68.8225 18.76C69.1158 17.72 69.5158 16.7733 70.0225 15.92C70.5558 15.04 71.2092 14.3333 71.9825 13.8C72.7558 13.2667 73.6758 13 74.7425 13C75.3558 13 75.8492 13.1333 76.2225 13.4C76.2758 11.9867 76.3425 10.6267 76.4225 9.32C76.5025 8.01333 76.5958 6.98667 76.7025 6.24C76.7825 5.73333 76.8892 5.16 77.0225 4.52C77.1825 3.88 77.3958 3.26667 77.6625 2.68C77.9558 2.06667 78.3025 1.56 78.7025 1.16C79.1292 0.759998 79.6358 0.559999 80.2225 0.559999C80.9692 0.559999 81.5292 0.746665 81.9025 1.12C82.2758 1.46667 82.5292 1.92 82.6625 2.48C82.8225 3.01333 82.9025 3.58667 82.9025 4.2C82.9025 4.54667 82.8892 4.90667 82.8625 5.28C82.8358 5.62667 82.7958 5.94666 82.7425 6.24C82.5825 7.54667 82.2758 8.98666 81.8225 10.56C81.3692 12.1333 80.8358 13.6667 80.2225 15.16C79.6358 16.6267 79.0625 17.8933 78.5025 18.96C78.4758 19.1467 78.4492 19.56 78.4225 20.2C78.3958 20.84 78.3825 21.5867 78.3825 22.44C78.3825 23.24 78.3958 24.08 78.4225 24.96C78.4758 25.8133 78.5692 26.6133 78.7025 27.36C78.8358 28.08 79.0092 28.68 79.2225 29.16C79.4625 29.6133 79.7692 29.84 80.1425 29.84C80.5158 29.84 80.8492 29.6667 81.1425 29.32C81.4358 28.9467 81.7025 28.4933 81.9425 27.96C82.1825 27.4267 82.3692 26.92 82.5025 26.44C82.6625 25.9333 82.7825 25.56 82.8625 25.32C82.9158 25.1067 83.0225 25 83.1825 25C83.3158 25 83.3825 25.1467 83.3825 25.44V25.64C83.3825 26.36 83.2092 27.16 82.8625 28.04C82.5425 28.8933 82.0758 29.64 81.4625 30.28C80.8758 30.8933 80.1558 31.2 79.3025 31.2ZM78.4225 17.2C78.9292 16.1067 79.4092 14.88 79.8625 13.52C80.3158 12.1333 80.6892 10.72 80.9825 9.28C81.3025 7.84 81.4625 6.49333 81.4625 5.24C81.4625 5.02667 81.4625 4.82667 81.4625 4.64C81.4625 4.45333 81.4492 4.26667 81.4225 4.08C81.3958 3.70667 81.3158 3.38667 81.1825 3.12C81.0492 2.82667 80.8758 2.68 80.6625 2.68C80.5558 2.68 80.4225 2.77333 80.2625 2.96C80.1025 3.12 79.9425 3.42666 79.7825 3.88C79.7025 4.12 79.5958 4.66667 79.4625 5.52C79.3558 6.34667 79.2358 7.33333 79.1025 8.48C78.9958 9.6 78.8892 10.7467 78.7825 11.92C78.6758 13.0667 78.5825 14.1067 78.5025 15.04C78.4492 15.9467 78.4225 16.5867 78.4225 16.96V17.2ZM72.1025 27.88C72.5558 27.88 72.9825 27.56 73.3825 26.92C73.7825 26.2533 74.1425 25.4533 74.4625 24.52C74.8092 23.5867 75.0892 22.7067 75.3025 21.88C75.5958 20.8133 75.7958 19.7467 75.9025 18.68C76.0358 17.5867 76.1158 16.4933 76.1425 15.4L76.1825 14.28C76.0225 14.2 75.8358 14.16 75.6225 14.16C75.0358 14.16 74.4358 14.4533 73.8225 15.04C73.2092 15.6 72.7158 16.2667 72.3425 17.04C71.8625 18.0533 71.5025 19.24 71.2625 20.6C71.0492 21.96 70.9425 23.24 70.9425 24.44C70.9425 24.6267 70.9425 24.8267 70.9425 25.04C70.9425 25.2533 70.9558 25.4533 70.9825 25.64C71.0358 26.44 71.1692 27.0133 71.3825 27.36C71.5958 27.7067 71.8358 27.88 72.1025 27.88Z" fill="white"/>
<path d="M86.9472 31.16C85.9872 31.16 85.2272 30.8533 84.6672 30.24C84.1072 29.6267 83.6939 28.8933 83.4272 28.04C83.1605 27.16 83.0005 26.3467 82.9472 25.6C82.8939 24.88 82.8539 24.12 82.8272 23.32C82.8005 22.4933 82.7872 21.6267 82.7872 20.72C82.7872 19.0667 82.8272 17.36 82.9072 15.6C83.0139 13.84 83.1605 12.1333 83.3472 10.48C83.5605 8.8 83.8139 7.30667 84.1072 6C84.2672 5.33333 84.5205 4.57333 84.8672 3.72C85.2139 2.86666 85.6672 2.13333 86.2272 1.52C86.7872 0.879998 87.4539 0.559999 88.2272 0.559999C89.8005 0.559999 90.5872 1.74667 90.5872 4.12C90.5872 5.05333 90.4272 6.4 90.1072 8.16C89.8139 9.89333 89.2672 11.84 88.4672 14C88.0672 15.12 87.5872 16.2533 87.0272 17.4C86.4939 18.52 85.9605 19.5467 85.4272 20.48C85.4005 20.6933 85.3872 20.92 85.3872 21.16C85.3872 21.3733 85.3872 21.5867 85.3872 21.8C85.3872 22.7067 85.4139 23.6267 85.4672 24.56C85.5472 25.4933 85.6672 26.36 85.8272 27.16C86.0139 27.9333 86.2672 28.56 86.5872 29.04C86.9072 29.52 87.3205 29.76 87.8272 29.76C88.4139 29.76 88.8805 29.52 89.2272 29.04C89.6005 28.5333 89.8805 28.0533 90.0672 27.6C90.1739 27.36 90.2672 27.0933 90.3472 26.8C90.4539 26.5067 90.5605 26.2 90.6672 25.88C90.7739 25.5867 90.9205 25.44 91.1072 25.44C91.2405 25.44 91.3072 25.5867 91.3072 25.88V25.96C91.3072 26.1467 91.2672 26.3867 91.1872 26.68C91.1339 26.9733 91.0539 27.2667 90.9472 27.56C90.6272 28.5467 90.1605 29.4 89.5472 30.12C88.9339 30.8133 88.0672 31.16 86.9472 31.16ZM85.4672 18.76C86.1605 17.3467 86.8005 15.8533 87.3872 14.28C87.9739 12.68 88.4405 11.1067 88.7872 9.56C89.1605 8.01333 89.3472 6.61333 89.3472 5.36C89.3472 4.58667 89.2805 3.94667 89.1472 3.44C89.0405 2.93333 88.8272 2.68 88.5072 2.68C88.2139 2.68 87.9339 2.98667 87.6672 3.6C87.4272 4.18666 87.2005 4.97333 86.9872 5.96C86.7739 6.94666 86.5739 8.01333 86.3872 9.16C86.2272 10.28 86.0805 11.4 85.9472 12.52C85.8405 13.6133 85.7472 14.5867 85.6672 15.44C85.6139 16.2667 85.5739 16.8667 85.5472 17.24C85.5472 17.4 85.5339 17.6133 85.5072 17.88C85.5072 18.12 85.4939 18.4133 85.4672 18.76ZM92.555 45.72C91.0883 45.72 90.0483 45.3467 89.435 44.6C88.795 43.88 88.475 42.9733 88.475 41.88C88.475 41.0533 88.6217 40.1733 88.915 39.24C89.2083 38.3067 89.5817 37.4 90.035 36.52C90.675 35.32 91.4883 34.2133 92.475 33.2C93.4883 32.1867 94.5283 31.2933 95.595 30.52C96.6617 29.72 97.5817 29.08 98.355 28.6C98.355 28.2533 98.3417 27.6933 98.315 26.92C98.2883 26.12 98.2483 25.2267 98.195 24.24C98.1683 23.2267 98.115 22.2533 98.035 21.32C97.8217 22.4933 97.515 23.6533 97.115 24.8C96.7417 25.9467 96.2883 27.12 95.755 28.32C95.6217 28.6133 95.4083 28.9867 95.115 29.44C94.8217 29.8933 94.4883 30.2933 94.115 30.64C93.7417 30.96 93.3417 31.12 92.915 31.12C92.595 31.12 92.2883 30.9867 91.995 30.72C91.7283 30.48 91.5017 30.0667 91.315 29.48C91.155 28.8667 91.0217 28.1733 90.915 27.4C90.835 26.6267 90.7683 25.84 90.715 25.04C90.6883 24.24 90.675 23.52 90.675 22.88C90.675 22.5867 90.675 22.3333 90.675 22.12C90.7017 21.88 90.715 21.68 90.715 21.52C90.7417 20.96 90.7683 20.2933 90.795 19.52C90.8483 18.7467 90.9283 17.9733 91.035 17.2C91.1417 16.4 91.3017 15.72 91.515 15.16C91.915 14.1467 92.7017 13.64 93.875 13.64C94.0083 13.64 94.1283 13.64 94.235 13.64C94.3683 13.64 94.4883 13.6533 94.595 13.68C94.675 13.7067 94.7417 13.7333 94.795 13.76C94.875 13.76 94.915 13.8 94.915 13.88C94.915 13.9333 94.9017 13.9733 94.875 14C94.6083 14.64 94.3817 15.48 94.195 16.52C94.0083 17.5333 93.8617 18.6267 93.755 19.8C93.6483 20.9733 93.595 22.0933 93.595 23.16C93.595 23.6933 93.6083 24.2133 93.635 24.72C93.6617 25.2 93.7017 25.6267 93.755 26C93.835 26.4533 93.9417 26.8667 94.075 27.24C94.2083 27.6133 94.3817 27.8 94.595 27.8C94.755 27.8 94.955 27.64 95.195 27.32C95.7283 26.5733 96.1683 25.6933 96.515 24.68C96.8883 23.64 97.1683 22.5733 97.355 21.48C97.5683 20.3867 97.7017 19.3733 97.755 18.44C97.7817 17.8533 97.8083 17.24 97.835 16.6C97.8617 15.96 98.0217 15.3867 98.315 14.88C98.6617 14.2667 99.0883 13.8933 99.595 13.76C100.128 13.6267 100.582 13.56 100.955 13.56H101.435C101.835 13.56 102.035 13.64 102.035 13.8C102.035 13.8533 101.982 13.9333 101.875 14.04C101.608 14.28 101.395 14.7467 101.235 15.44C101.102 16.1333 101.008 16.96 100.955 17.92C100.902 18.8533 100.875 19.8267 100.875 20.84C100.875 21.9867 100.888 23.0933 100.915 24.16C100.942 25.2 100.955 26.0133 100.955 26.6V27.04C101.728 26.5867 102.395 26.2267 102.955 25.96C103.542 25.6667 103.982 25.52 104.275 25.52C104.328 25.52 104.368 25.5333 104.395 25.56C104.422 25.56 104.448 25.56 104.475 25.56C104.608 25.5867 104.675 25.6933 104.675 25.88C104.675 25.96 104.648 26.0533 104.595 26.16C104.542 26.24 104.462 26.28 104.355 26.28C104.035 26.3067 103.595 26.48 103.035 26.8C102.502 27.0933 102.008 27.44 101.555 27.84C101.102 28.2133 100.875 28.5467 100.875 28.84V29.32C100.875 33.0267 100.488 36.0933 99.715 38.52C98.9683 40.9467 97.955 42.7467 96.675 43.92C95.4217 45.12 94.0483 45.72 92.555 45.72ZM92.115 44.88H92.235C93.1683 44.88 93.955 44.5733 94.595 43.96C95.2617 43.3467 95.8083 42.5333 96.235 41.52C96.6883 40.5333 97.0483 39.4533 97.315 38.28C97.6083 37.1067 97.8217 35.9333 97.955 34.76C98.115 33.6133 98.2217 32.5733 98.275 31.64C98.3283 30.7333 98.3683 30.0533 98.395 29.6C97.9683 29.84 97.315 30.3333 96.435 31.08C95.555 31.8267 94.635 32.7467 93.675 33.84C92.7417 34.96 91.955 36.2267 91.315 37.64C90.9683 38.4133 90.7017 39.16 90.515 39.88C90.355 40.6267 90.275 41.3067 90.275 41.92C90.275 42.8 90.435 43.5067 90.755 44.04C91.075 44.6 91.5283 44.88 92.115 44.88Z" fill="#C76B98"/>
</svg>
