<svg width="768" height="768" viewBox="0 0 768 768" fill="none" xmlns="http://www.w3.org/2000/svg">
<rect width="768" height="768" fill="#141416"/>
<path d="M386.688 658.376C347.264 658.376 311.936 651.976 280.704 639.176C249.472 626.376 224.384 607.432 205.44 582.344C187.008 557.256 177.28 527.048 176.256 491.72H316.032C318.08 511.688 324.992 527.048 336.768 537.8C348.544 548.04 363.904 553.16 382.848 553.16C402.304 553.16 417.664 548.808 428.928 540.104C440.192 530.888 445.824 518.344 445.824 502.472C445.824 489.16 441.216 478.152 432 469.448C423.296 460.744 412.288 453.576 398.976 447.944C386.176 442.312 367.744 435.912 343.68 428.744C308.864 417.992 280.448 407.24 258.432 396.488C236.416 385.736 217.472 369.864 201.6 348.872C185.728 327.88 177.792 300.488 177.792 266.696C177.792 216.52 195.968 177.352 232.32 149.192C268.672 120.52 316.032 106.184 374.4 106.184C433.792 106.184 481.664 120.52 518.016 149.192C554.368 177.352 573.824 216.776 576.384 267.464H434.304C433.28 250.056 426.88 236.488 415.104 226.76C403.328 216.52 388.224 211.4 369.792 211.4C353.92 211.4 341.12 215.752 331.392 224.456C321.664 232.648 316.8 244.68 316.8 260.552C316.8 277.96 324.992 291.528 341.376 301.256C357.76 310.984 383.36 321.48 418.176 332.744C452.992 344.52 481.152 355.784 502.656 366.536C524.672 377.288 543.616 392.904 559.488 413.384C575.36 433.864 583.296 460.232 583.296 492.488C583.296 523.208 575.36 551.112 559.488 576.2C544.128 601.288 521.6 621.256 491.904 636.104C462.208 650.952 427.136 658.376 386.688 658.376Z" fill="#C76B98"/>
<path fill-rule="evenodd" clip-rule="evenodd" d="M406.676 282.772C398.271 285.681 386.38 287.462 382.692 280.18C380.326 275.509 383.415 269.836 387.612 266.213C395.187 259.674 405.765 257.201 415.602 254.115C425.439 251.029 435.789 246.407 440.221 237.849C444.652 229.29 438.678 216.668 428.363 217.428C394.646 224.086 360.929 230.745 327.212 237.404C362.994 315.025 398.776 392.645 434.557 470.266C439.266 480.48 444.01 490.803 446.055 501.771C451.469 530.806 435.551 562.631 407.639 578.573C379.728 594.515 341.585 593.568 315.59 576.288C310.173 572.688 305.205 568.387 301.901 563.077C295.805 553.28 295.999 541.125 298.365 529.908C306.058 493.443 336.417 461.143 375.017 448.356C388.345 443.94 386.682 426.532 382.152 414.552C358.472 351.929 328.792 291.291 293.547 233.527C289.524 226.934 299.966 220.69 308.122 218.683C347.724 208.938 387.325 199.193 426.926 189.447C436.101 187.19 446.589 185.097 454.359 189.795C459.375 192.828 462.086 198.082 464.421 203.138C472.344 220.293 478.602 238.11 483.1 256.322C457.625 265.138 432.151 273.955 406.676 282.772Z" fill="#141416"/>
<rect x="365" y="230.008" width="76.3683" height="56.4581" transform="rotate(-25.6086 365 230.008)" fill="#141416"/>
</svg>
