<svg width="26" height="25" viewBox="0 0 26 25" fill="none" xmlns="http://www.w3.org/2000/svg">
<g id="Group">
<path id="Vector" d="M0.869141 24.6355L2.58403 18.4082C1.52381 16.5803 0.967631 14.5103 0.973424 12.3942C0.973424 5.76329 6.39618 0.37207 13.053 0.37207C16.2858 0.37207 19.3216 1.6233 21.5984 3.89511C23.8811 6.16691 25.1383 9.18831 25.1325 12.4C25.1325 19.0309 19.7097 24.4221 13.0472 24.4221H13.0414C11.0194 24.4221 9.03225 23.9147 7.26521 22.9576L0.869141 24.6355ZM7.57227 20.7838L7.93727 21.0029C9.47835 21.9139 11.2454 22.3925 13.0472 22.3982H13.053C18.5858 22.3982 23.0932 17.9181 23.0932 12.4057C23.0932 9.73608 22.0503 7.22786 20.1559 5.33661C18.2614 3.44536 15.7354 2.40747 13.053 2.40747C7.52013 2.40171 3.01275 6.8819 3.01275 12.3942C3.01275 14.2797 3.53996 16.1191 4.54804 17.7105L4.78558 18.091L3.77171 21.7755L7.57227 20.7838Z" fill="white"/>
<path id="Vector_2" d="M1.29297 24.2145L2.94992 18.2006C1.92447 16.4419 1.38567 14.4411 1.38567 12.4C1.39146 5.99968 6.62303 0.792969 13.0539 0.792969C16.1766 0.792969 19.1023 2.00383 21.3039 4.19492C23.5054 6.386 24.7163 9.30361 24.7163 12.4057C24.7163 18.806 19.4789 24.0127 13.0539 24.0127H13.0481C11.0956 24.0127 9.17798 23.5226 7.47468 22.6L1.29297 24.2145Z" fill="url(#paint0_linear_3486_10240)"/>
<path id="Vector_3" d="M0.869141 24.6355L2.58403 18.4082C1.52381 16.5803 0.967631 14.5103 0.973424 12.3942C0.973424 5.76329 6.39618 0.37207 13.053 0.37207C16.2858 0.37207 19.3216 1.6233 21.5984 3.89511C23.8811 6.16691 25.1383 9.18831 25.1325 12.4C25.1325 19.0309 19.7097 24.4221 13.0472 24.4221H13.0414C11.0194 24.4221 9.03225 23.9147 7.26521 22.9576L0.869141 24.6355ZM7.57227 20.7838L7.93727 21.0029C9.47835 21.9139 11.2454 22.3925 13.0472 22.3982H13.053C18.5858 22.3982 23.0932 17.9181 23.0932 12.4057C23.0932 9.73608 22.0503 7.22786 20.1559 5.33661C18.2614 3.44536 15.7354 2.40747 13.053 2.40747C7.52013 2.40171 3.01275 6.8819 3.01275 12.3942C3.01275 14.2797 3.53996 16.1191 4.54804 17.7105L4.78558 18.091L3.77171 21.7755L7.57227 20.7838Z" fill="url(#paint1_linear_3486_10240)"/>
<path id="Vector_4" fill-rule="evenodd" clip-rule="evenodd" d="M10.0349 7.3665C9.80895 6.86486 9.57141 6.85333 9.35705 6.84756C9.18324 6.8418 8.98047 6.8418 8.7777 6.8418C8.57492 6.8418 8.25048 6.91676 7.97239 7.21659C7.6943 7.51642 6.91797 8.24294 6.91797 9.7248C6.91797 11.2009 8.00136 12.6309 8.15199 12.8327C8.30263 13.0345 10.2435 16.1654 13.3082 17.3705C15.8574 18.3738 16.3788 18.172 16.9292 18.1201C17.4796 18.0682 18.7136 17.3936 18.9685 16.6902C19.2177 15.9867 19.2177 15.387 19.1423 15.2602C19.067 15.1333 18.8643 15.0584 18.563 14.9085C18.2617 14.7585 16.7786 14.032 16.5005 13.9282C16.2224 13.8302 16.0196 13.7783 15.8226 14.0781C15.6199 14.378 15.0405 15.0526 14.8667 15.2544C14.6929 15.4562 14.5133 15.4793 14.212 15.3294C13.9108 15.1795 12.9375 14.8623 11.7845 13.836C10.8865 13.0403 10.2782 12.0543 10.1044 11.7544C9.93061 11.4546 10.087 11.2932 10.2377 11.1432C10.3709 11.0106 10.5389 10.7915 10.6896 10.6185C10.8402 10.4456 10.8923 10.3187 10.9908 10.1169C11.0893 9.91508 11.043 9.7421 10.9677 9.59219C10.8923 9.44804 10.3014 7.9604 10.0349 7.3665Z" fill="white"/>
</g>
<defs>
<linearGradient id="paint0_linear_3486_10240" x1="13.004" y1="24.2134" x2="13.004" y2="0.792149" gradientUnits="userSpaceOnUse">
<stop stop-color="#20B038"/>
<stop offset="1" stop-color="#60D66A"/>
</linearGradient>
<linearGradient id="paint1_linear_3486_10240" x1="13.0032" y1="24.6332" x2="13.0032" y2="0.37207" gradientUnits="userSpaceOnUse">
<stop stop-color="#F9F9F9"/>
<stop offset="1" stop-color="white"/>
</linearGradient>
</defs>
</svg>
